<svg width="35" height="34" viewBox="0 0 35 34" fill="none" xmlns="http://www.w3.org/2000/svg">
<path d="M34.9964 16.9842H34.9928C34.9916 15.3387 34.7448 13.7106 34.2633 12.1399L34.2669 12.1376L34.0587 11.4873L34.0527 11.4932C33.7169 10.54 33.2932 9.61838 32.79 8.7459V8.74356L32.7491 8.67222C32.7394 8.65701 32.7298 8.64064 32.7214 8.62543L32.5914 8.40322H32.589C32.4674 8.20206 32.3422 7.99972 32.2122 7.80324C31.9282 7.37519 31.6296 6.96701 31.3263 6.59042C30.1768 5.14836 28.8046 3.90162 27.2494 2.88645C27.0411 2.74961 26.8293 2.61862 26.6078 2.48763V2.48529L26.3671 2.34729C26.355 2.34027 26.3442 2.33442 26.3334 2.32741L26.0577 2.17069L26.0553 2.17536C23.5444 0.802311 20.7097 0.0561384 17.816 0.0046782V0H17.5175C17.5102 0 17.503 0 17.4958 0H17.1756V0.0046782C14.6599 0.0479516 12.2513 0.595301 10.004 1.63503V1.63152L9.76322 1.74731C9.74757 1.75549 9.73192 1.76251 9.71507 1.76953L9.42979 1.90754L9.4322 1.91221C6.87433 3.20457 4.67758 5.0969 3.04777 7.41495L3.04416 7.41261L2.88286 7.65003C2.87805 7.65705 2.87203 7.66406 2.86721 7.67225L2.69147 7.93189L2.69629 7.93423C1.15435 10.3061 0.241944 13.0183 0.0445369 15.817H0.0397221L0.0228703 16.1269C0.0228703 16.141 0.0228703 16.1562 0.0216666 16.1702L0.0072222 16.438H0.0108333C0.0048148 16.6252 0 16.8135 0 17.0018C0 19.6192 0.628332 22.2191 1.81638 24.543L1.81277 24.5454L1.95842 24.8179C1.95842 24.8179 1.95962 24.8202 1.96083 24.8214L2.10768 25.0962L2.11129 25.0939C3.43295 27.4657 5.33721 29.5195 7.63628 31.0445C7.71813 31.0995 7.79998 31.1533 7.88063 31.2048L8.07322 31.3252C8.0997 31.3416 8.12618 31.3592 8.15266 31.3744L8.36211 31.5007C8.36933 31.5042 8.37535 31.5089 8.38257 31.5124L8.4235 31.5369C8.64618 31.6679 8.88331 31.8012 9.14211 31.9393C11.4556 33.1614 13.9569 33.8456 16.581 33.9754V33.9895H16.8939C16.8951 33.9895 16.8975 33.9895 16.8988 33.9895L17.2177 34V33.9977C17.3056 33.9988 17.3983 34 17.5006 34C20.292 34 23.0605 33.3439 25.5305 32.1042L25.5329 32.1088L25.8146 31.9603C25.8146 31.9603 25.8218 31.9568 25.8254 31.9545L26.095 31.8129L26.0926 31.8083C28.6047 30.4294 30.7341 28.4645 32.2808 26.0973L32.2857 26.0997L32.4445 25.8471C32.4445 25.8471 32.4494 25.8389 32.4518 25.8354L32.6179 25.5699L32.6131 25.5675C34.0659 23.1536 34.882 20.4133 34.9843 17.6029H34.9868L34.994 17.2941V17.293L35 16.9819L34.9964 16.9842ZM28.7071 23.6284C28.3363 24.2202 27.9174 24.7793 27.4552 25.3009C27.4468 25.3114 27.4372 25.3219 27.4287 25.3313C27.401 25.3629 27.3722 25.3933 27.3433 25.4237C26.3213 26.5511 25.0996 27.502 23.731 28.2213L23.7225 28.2259C21.8243 29.2236 19.6709 29.7499 17.4946 29.7499C17.4404 29.7499 17.3899 29.7499 17.3417 29.7499L17.0444 29.7405C15.618 29.6961 14.2374 29.4317 12.9193 28.9534C12.4065 28.7674 11.9046 28.5499 11.4123 28.2996C11.3172 28.2517 11.2245 28.2002 11.1306 28.1487C10.9958 28.0762 10.8634 28.0014 10.7322 27.923C10.6503 27.8751 10.5685 27.8283 10.489 27.7792L10.2218 27.6119C9.96183 27.4447 9.69701 27.2587 9.42136 27.0494C7.9372 25.9207 6.701 24.474 5.84517 22.8635C5.75369 22.6928 5.66702 22.5185 5.58397 22.3443C5.12054 21.3712 4.78471 20.3385 4.5873 19.2789C4.44767 18.5292 4.37666 17.7655 4.37666 16.9994C4.37666 16.7573 4.38267 16.5433 4.39471 16.3433C4.51027 14.1375 5.21443 11.9984 6.43378 10.1459H6.43498L6.53008 10.0055C6.84906 9.533 7.19933 9.08273 7.5773 8.65818C8.71239 7.38337 10.1027 6.33312 11.6651 5.57876C13.4839 4.69925 15.4423 4.25249 17.4886 4.25132H17.497C18.549 4.25132 19.577 4.36827 20.5749 4.60101C21.4993 4.81621 22.3973 5.13316 23.2627 5.54484C23.3313 5.57759 23.3999 5.60916 23.4685 5.64308H23.471C23.6335 5.72495 23.7996 5.8115 23.9645 5.90272L24.1234 5.99512C25.3764 6.70386 26.4935 7.6091 27.4456 8.68625C27.6996 8.97162 27.9451 9.27454 28.1943 9.6102C28.4711 9.99147 28.7215 10.3751 28.937 10.7517C29.0164 10.8873 29.0922 11.0242 29.1657 11.1622C29.2848 11.3856 29.3944 11.6125 29.4991 11.8429C29.7832 12.4662 30.0179 13.1107 30.1948 13.7738C30.2358 13.9247 30.2731 14.0767 30.308 14.2299C30.515 15.1305 30.6185 16.0614 30.6185 16.9982C30.6185 17.0696 30.6185 17.1433 30.6161 17.2181V17.2357C30.574 19.4987 29.9144 21.708 28.7083 23.6261L28.7071 23.6284ZM26.2852 3.02212C26.4947 3.14609 26.6945 3.27006 26.8919 3.39988C28.3917 4.37763 29.7133 5.57875 30.822 6.96935C31.1145 7.33191 31.4009 7.72488 31.6754 8.13656C31.7982 8.32252 31.9185 8.51316 32.0341 8.70496L29.3342 10.1798C29.1476 9.87217 28.9406 9.56107 28.7143 9.25114C28.4531 8.89911 28.1955 8.58216 27.9295 8.28276C27.0014 7.23367 25.9217 6.34013 24.718 5.62086L25.303 4.65247L26.2852 3.02095V3.02212ZM17.1768 3.63613C15.2509 3.67824 13.4008 4.09927 11.6687 4.88989L10.2892 2.19057C12.4475 1.19411 14.761 0.667813 17.1768 0.625709V3.6373V3.63613ZM3.22953 8.27457L5.81989 9.92831C4.64267 11.7575 3.94092 13.8463 3.77601 16.003L0.680091 15.8486C0.871479 13.1598 1.74898 10.5529 3.22953 8.27457ZM7.99739 30.5335C5.78378 29.0645 3.94934 27.0903 2.67583 24.8097L5.42749 23.4249C6.31582 25.0026 7.55563 26.4213 9.02775 27.5406C9.32146 27.7628 9.60192 27.9593 9.87636 28.1359L8.22007 30.6808C8.14665 30.634 8.07202 30.5849 7.99739 30.5335ZM17.4958 33.3801C17.4031 33.3801 17.3164 33.3801 17.2358 33.379L17.3441 30.3721C17.3923 30.3721 17.4428 30.3721 17.4958 30.3721C19.6733 30.3721 21.8291 29.868 23.7514 28.9125L25.2211 31.5615C22.845 32.7521 20.18 33.3801 17.4946 33.3801H17.4958ZM32.0642 25.2483L29.416 23.6834C30.5283 21.818 31.1566 19.7069 31.2445 17.5433L34.3428 17.5947C34.2429 20.294 33.4581 22.9279 32.0642 25.2483Z" fill="url(#paint0_linear_1_360)"/>
<defs>
<linearGradient id="paint0_linear_1_360" x1="14.216" y1="0.0201275" x2="31.0681" y2="8.96397" gradientUnits="userSpaceOnUse">
<stop stop-color="#AB9A51"/>
<stop offset="0.574641" stop-color="#F9D773"/>
<stop offset="1" stop-color="#AB9A51"/>
</linearGradient>
</defs>
</svg>
