<svg width="520" height="63" viewBox="0 0 520 63" fill="none" xmlns="http://www.w3.org/2000/svg">
<mask id="path-1-inside-1_573_55" fill="white">
<path fill-rule="evenodd" clip-rule="evenodd" d="M501.829 58.8402C499.95 61.452 496.93 63 493.712 63L21.7292 63C18.1802 63 14.897 61.1189 13.1022 58.0571L1.7425 38.6786C0.0318043 35.7603 -0.0875742 32.175 1.42521 29.1494L13.2358 5.52792C14.9297 2.14005 18.3923 -3.07243e-07 22.1801 0L493.712 3.82484e-05C496.93 3.85094e-05 499.95 1.54812 501.829 4.15983L517.298 25.6598C519.808 29.1487 519.808 33.8514 517.298 37.3403L501.829 58.8402ZM34.7775 17C34.7775 19.7614 32.3649 22 29.3887 22C26.4126 22 23.9999 19.7614 23.9999 17C23.9999 14.2386 26.4126 12 29.3887 12C32.3649 12 34.7775 14.2386 34.7775 17ZM487.438 22C490.414 22 492.826 19.7614 492.826 17C492.826 14.2386 490.414 12 487.438 12C484.461 12 482.049 14.2386 482.049 17C482.049 19.7614 484.461 22 487.438 22ZM34.7775 46C34.7775 48.7614 32.3649 51 29.3887 51C26.4126 51 23.9999 48.7614 23.9999 46C23.9999 43.2386 26.4126 41 29.3887 41C32.3649 41 34.7775 43.2386 34.7775 46ZM487.438 51C490.414 51 492.826 48.7614 492.826 46C492.826 43.2386 490.414 41 487.438 41C484.461 41 482.049 43.2386 482.049 46C482.049 48.7614 484.461 51 487.438 51Z"/>
</mask>
<path fill-rule="evenodd" clip-rule="evenodd" d="M501.829 58.8402C499.95 61.452 496.93 63 493.712 63L21.7292 63C18.1802 63 14.897 61.1189 13.1022 58.0571L1.7425 38.6786C0.0318043 35.7603 -0.0875742 32.175 1.42521 29.1494L13.2358 5.52792C14.9297 2.14005 18.3923 -3.07243e-07 22.1801 0L493.712 3.82484e-05C496.93 3.85094e-05 499.95 1.54812 501.829 4.15983L517.298 25.6598C519.808 29.1487 519.808 33.8514 517.298 37.3403L501.829 58.8402ZM34.7775 17C34.7775 19.7614 32.3649 22 29.3887 22C26.4126 22 23.9999 19.7614 23.9999 17C23.9999 14.2386 26.4126 12 29.3887 12C32.3649 12 34.7775 14.2386 34.7775 17ZM487.438 22C490.414 22 492.826 19.7614 492.826 17C492.826 14.2386 490.414 12 487.438 12C484.461 12 482.049 14.2386 482.049 17C482.049 19.7614 484.461 22 487.438 22ZM34.7775 46C34.7775 48.7614 32.3649 51 29.3887 51C26.4126 51 23.9999 48.7614 23.9999 46C23.9999 43.2386 26.4126 41 29.3887 41C32.3649 41 34.7775 43.2386 34.7775 46ZM487.438 51C490.414 51 492.826 48.7614 492.826 46C492.826 43.2386 490.414 41 487.438 41C484.461 41 482.049 43.2386 482.049 46C482.049 48.7614 484.461 51 487.438 51Z" fill="url(#paint0_linear_573_55)" fill-opacity="0.2"/>
<path d="M493.712 63V61V63ZM501.829 58.8402L500.206 57.6722L500.206 57.6722L501.829 58.8402ZM21.7292 63V61V63ZM13.1022 58.0571L11.3768 59.0686L13.1022 58.0571ZM1.7425 38.6786L3.46791 37.6672H3.46791L1.7425 38.6786ZM1.42521 29.1494L-0.363647 28.255L-0.363647 28.255L1.42521 29.1494ZM13.2358 5.52792L11.4469 4.6335L13.2358 5.52792ZM22.1801 0V-2V0ZM493.712 3.82484e-05V2.00004V3.82484e-05ZM501.829 4.15983L500.206 5.32786L500.206 5.32787L501.829 4.15983ZM517.298 25.6598L515.675 26.8279V26.8279L517.298 25.6598ZM517.298 37.3403L515.675 36.1722V36.1722L517.298 37.3403ZM493.712 65C497.573 65 501.198 63.1423 503.453 60.0083L500.206 57.6722C498.703 59.7616 496.286 61 493.712 61V65ZM21.7292 65L493.712 65V61L21.7292 61V65ZM11.3768 59.0686C13.5305 62.7427 17.4704 65 21.7292 65V61C18.89 61 16.2634 59.4951 14.8276 57.0457L11.3768 59.0686ZM0.0171017 39.69L11.3768 59.0686L14.8276 57.0457L3.46791 37.6672L0.0171017 39.69ZM-0.363647 28.255C-2.17899 31.8857 -2.03574 36.1881 0.0171018 39.69L3.46791 37.6672C2.09935 35.3326 2.00384 32.4643 3.21407 30.0438L-0.363647 28.255ZM11.4469 4.6335L-0.363647 28.255L3.21407 30.0438L15.0246 6.42234L11.4469 4.6335ZM22.1801 -2C17.6348 -2 13.4796 0.56806 11.4469 4.6335L15.0246 6.42234C16.3798 3.71204 19.1499 2 22.1801 2V-2ZM493.712 -1.99996L22.1801 -2V2L493.712 2.00004V-1.99996ZM503.453 2.9918C501.198 -0.142268 497.573 -1.99996 493.712 -1.99996V2.00004C496.286 2.00004 498.703 3.2385 500.206 5.32786L503.453 2.9918ZM518.922 24.4918L503.453 2.99179L500.206 5.32787L515.675 26.8279L518.922 24.4918ZM518.922 38.5083C521.934 34.3216 521.934 28.6784 518.922 24.4918L515.675 26.8279C517.683 29.619 517.683 33.3811 515.675 36.1722L518.922 38.5083ZM503.453 60.0083L518.922 38.5083L515.675 36.1722L500.206 57.6722L503.453 60.0083ZM29.3887 24C33.3258 24 36.7775 21.0044 36.7775 17H32.7775C32.7775 18.5185 31.404 20 29.3887 20V24ZM21.9999 17C21.9999 21.0044 25.4517 24 29.3887 24V20C27.3735 20 25.9999 18.5185 25.9999 17H21.9999ZM29.3887 10C25.4517 10 21.9999 12.9956 21.9999 17H25.9999C25.9999 15.4816 27.3735 14 29.3887 14V10ZM36.7775 17C36.7775 12.9956 33.3258 10 29.3887 10V14C31.404 14 32.7775 15.4816 32.7775 17H36.7775ZM490.826 17C490.826 18.5184 489.453 20 487.438 20V24C491.375 24 494.826 21.0044 494.826 17H490.826ZM487.438 14C489.453 14 490.826 15.4816 490.826 17H494.826C494.826 12.9956 491.375 10 487.438 10V14ZM484.049 17C484.049 15.4816 485.422 14 487.438 14V10C483.5 10 480.049 12.9956 480.049 17H484.049ZM487.438 20C485.422 20 484.049 18.5185 484.049 17H480.049C480.049 21.0044 483.5 24 487.438 24V20ZM29.3887 53C33.3258 53 36.7775 50.0044 36.7775 46H32.7775C32.7775 47.5185 31.404 49 29.3887 49V53ZM21.9999 46C21.9999 50.0044 25.4517 53 29.3887 53V49C27.3735 49 25.9999 47.5185 25.9999 46H21.9999ZM29.3887 39C25.4517 39 21.9999 41.9956 21.9999 46H25.9999C25.9999 44.4815 27.3735 43 29.3887 43V39ZM36.7775 46C36.7775 41.9956 33.3258 39 29.3887 39V43C31.404 43 32.7775 44.4815 32.7775 46H36.7775ZM490.826 46C490.826 47.5184 489.453 49 487.438 49V53C491.375 53 494.826 50.0044 494.826 46H490.826ZM487.438 43C489.453 43 490.826 44.4816 490.826 46H494.826C494.826 41.9956 491.375 39 487.438 39V43ZM484.049 46C484.049 44.4815 485.422 43 487.438 43V39C483.5 39 480.049 41.9956 480.049 46H484.049ZM487.438 49C485.422 49 484.049 47.5185 484.049 46H480.049C480.049 50.0044 483.5 53 487.438 53V49Z" fill="url(#paint1_linear_573_55)" fill-opacity="0.5" mask="url(#path-1-inside-1_573_55)"/>
<path d="M79 1C72.9249 1 68 5.92487 68 12V51C68 57.0751 72.9249 62 79 62H448.355C452.27 62 455.889 59.9199 457.86 56.5379L468.98 37.4537C470.945 34.0807 470.975 29.9187 469.06 26.5174L457.842 6.60166C455.893 3.14108 452.23 1 448.258 1H79Z" fill="#322908" fill-opacity="0.2" stroke="#9F8649" stroke-width="2"/>
<defs>
<linearGradient id="paint0_linear_573_55" x1="248.413" y1="6.26987" x2="254.615" y2="63.7811" gradientUnits="userSpaceOnUse">
<stop stop-color="#322908"/>
<stop offset="1" stop-color="#81680F"/>
</linearGradient>
<linearGradient id="paint1_linear_573_55" x1="397.338" y1="4.00003" x2="404.998" y2="60.8082" gradientUnits="userSpaceOnUse">
<stop stop-color="#9F8649"/>
<stop offset="0.5" stop-color="#887338"/>
<stop offset="1" stop-color="#9F8649"/>
</linearGradient>
</defs>
</svg>
