<svg width="78" height="78" viewBox="0 0 78 78" fill="none" xmlns="http://www.w3.org/2000/svg">
<g id="Vector" filter="url(#filter0_bdi_829_29)">
<path d="M29.4338 43.7083V39.8278H32.5627V24.1742H29.4338V20.2937H41.6814C43.1322 20.2937 44.3984 20.5331 45.4758 21.0119C46.5533 21.4907 47.3913 22.1711 47.9939 23.0529C48.5946 23.9347 48.8949 24.9882 48.8949 26.2132V26.5483C48.8949 27.6197 48.6899 28.4936 48.2821 29.1739C47.8742 29.8543 47.3913 30.379 46.8353 30.7461C46.2794 31.1152 45.7518 31.3765 45.2526 31.5321V32.1347C45.7518 32.2683 46.2956 32.5197 46.8861 32.8868C47.4765 33.2559 47.9797 33.7846 48.3998 34.4769C48.8198 35.1692 49.0288 36.071 49.0288 37.1863V37.5215C49.0288 38.8143 48.7224 39.9256 48.1096 40.8493C47.4968 41.7751 46.6527 42.4833 45.5753 42.9741C44.4978 43.4649 43.2459 43.7103 41.8153 43.7103H29.4318L29.4338 43.7083ZM37.0551 29.9281H41.2046C42.1339 29.9281 42.8989 29.6946 43.5015 29.2258C44.1021 28.7569 44.4024 28.1105 44.4024 27.2865V26.9514C44.4024 26.1034 44.1062 25.451 43.5178 24.9942C42.9273 24.5373 42.1562 24.3078 41.2046 24.3078H37.0551V29.9281ZM41.2736 39.6942C42.2475 39.6942 43.0369 39.4607 43.6375 38.9919C44.2381 38.523 44.5384 37.8547 44.5384 36.9848V36.6496C44.5384 35.7797 44.2421 35.1114 43.6537 34.6425C43.0632 34.1737 42.2699 33.9403 41.2715 33.9403H37.0531V39.6942H41.2736Z" fill="url(#paint0_linear_829_29)"/>
<path d="M68.7293 31.9731H68.7232C68.7211 29.1659 68.3052 26.3887 67.4935 23.7093L67.4996 23.7053L67.1486 22.596L67.1385 22.606C66.5723 20.98 65.8581 19.4078 65.0099 17.9195V17.9155L64.9409 17.7938C64.9247 17.7678 64.9085 17.7399 64.8943 17.714L64.6751 17.3349H64.6711C64.4661 16.9917 64.2551 16.6466 64.036 16.3114C63.5571 15.5812 63.0539 14.8849 62.5426 14.2425C60.6048 11.7825 58.2916 9.6557 55.67 7.92394C55.319 7.69052 54.9619 7.46706 54.5885 7.24361V7.23962L54.1827 7.0042C54.1624 6.99223 54.1441 6.98225 54.1259 6.97028L53.6612 6.70293L53.6572 6.71091C49.4245 4.36865 44.6459 3.09577 39.768 3.00798V3H39.2648C39.2526 3 39.2404 3 39.2283 3H38.6885V3.00798C34.4477 3.0818 30.3875 4.01551 26.5992 5.78917V5.78319L26.1933 5.9807C26.167 5.99467 26.1406 6.00664 26.1122 6.01861L25.6313 6.25403L25.6353 6.26201C21.3235 8.46662 17.6204 11.6947 14.873 15.649L14.8669 15.645L14.595 16.0501C14.5869 16.062 14.5768 16.074 14.5687 16.088L14.2724 16.5309L14.2805 16.5349C11.6813 20.581 10.1432 25.2076 9.81043 29.9819H9.80231L9.7739 30.5106C9.7739 30.5346 9.7739 30.5605 9.77188 30.5845L9.74753 31.0413H9.75361C9.74347 31.3606 9.73535 31.6818 9.73535 32.003C9.73535 36.4681 10.7945 40.9032 12.7973 44.8675L12.7912 44.8715L13.0367 45.3363C13.0367 45.3363 13.0387 45.3403 13.0407 45.3423L13.2883 45.8112L13.2944 45.8072C15.5223 49.8533 18.7324 53.3567 22.6079 55.9583C22.7459 56.0521 22.8839 56.1439 23.0198 56.2317L23.3445 56.4372C23.3891 56.4651 23.4338 56.495 23.4784 56.521L23.8315 56.7364C23.8437 56.7424 23.8538 56.7504 23.866 56.7564L23.935 56.7983C24.3103 57.0217 24.7101 57.2492 25.1463 57.4846C29.0463 59.5695 33.2627 60.7366 37.6861 60.9581V60.982H38.2137C38.2157 60.982 38.2198 60.982 38.2218 60.982L38.7595 61V60.996C38.9077 60.998 39.0639 61 39.2364 61C43.9418 61 48.6088 59.8807 52.7725 57.7659L52.7765 57.7739L53.2513 57.5205C53.2513 57.5205 53.2635 57.5145 53.2696 57.5105L53.7241 57.2691L53.7201 57.2612C57.9548 54.9089 61.5442 51.5571 64.1516 47.519L64.1597 47.523L64.4276 47.0921C64.4276 47.0921 64.4357 47.0781 64.4398 47.0721L64.7198 46.6192L64.7117 46.6152C67.1608 42.4973 68.5365 37.8227 68.709 33.0285H68.713L68.7252 32.5018C68.7252 32.5018 68.7252 32.5018 68.7252 32.4998L68.7354 31.9691L68.7293 31.9731ZM58.1273 43.3073C57.5023 44.3168 56.7962 45.2705 56.017 46.1603C56.0028 46.1783 55.9865 46.1962 55.9723 46.2122C55.9257 46.2661 55.877 46.3179 55.8283 46.3698C54.1056 48.2931 52.0461 49.9151 49.739 51.1421L49.7248 51.1501C46.5249 52.8519 42.8948 53.7497 39.2262 53.7497C39.1349 53.7497 39.0497 53.7497 38.9685 53.7497L38.4673 53.7338C36.0629 53.658 33.7355 53.2071 31.5136 52.3911C30.6492 52.0739 29.8031 51.7028 28.9732 51.2758C28.8129 51.194 28.6567 51.1062 28.4984 51.0184C28.2711 50.8947 28.0479 50.7671 27.8268 50.6334C27.6888 50.5516 27.5508 50.4718 27.4169 50.388L26.9664 50.1027C26.5281 49.8174 26.0817 49.5002 25.6171 49.143C23.1152 47.2177 21.0313 44.7498 19.5886 42.0025C19.4344 41.7112 19.2883 41.414 19.1483 41.1167C18.3671 39.4567 17.801 37.6951 17.4682 35.8875C17.2329 34.6086 17.1131 33.3058 17.1131 31.999C17.1131 31.586 17.1233 31.2209 17.1436 30.8797C17.3384 27.117 18.5254 23.4679 20.5809 20.3076H20.5829L20.7432 20.0682C21.2809 19.2622 21.8714 18.4941 22.5085 17.7698C24.4219 15.5952 26.7655 13.8035 29.3993 12.5167C32.4653 11.0164 35.7666 10.2542 39.2161 10.2522H39.2303C41.0037 10.2522 42.7366 10.4518 44.4187 10.8488C45.977 11.2159 47.4907 11.7566 48.9496 12.4588C49.0653 12.5147 49.181 12.5686 49.2966 12.6264H49.3007C49.5746 12.7661 49.8546 12.9137 50.1326 13.0693L50.4005 13.227C52.5127 14.436 54.3957 15.9802 56.0008 17.8177C56.4289 18.3045 56.8428 18.8213 57.2629 19.3939C57.7295 20.0443 58.1516 20.6987 58.5148 21.3411C58.6487 21.5725 58.7766 21.806 58.9003 22.0414C59.1012 22.4224 59.2859 22.8095 59.4624 23.2025C59.9413 24.2659 60.3369 25.3652 60.6352 26.4965C60.7042 26.7538 60.7671 27.0132 60.8259 27.2746C61.1749 28.8108 61.3494 30.3989 61.3494 31.997C61.3494 32.1187 61.3494 32.2444 61.3454 32.3721V32.402C61.2744 36.2626 60.1624 40.0313 58.1293 43.3033L58.1273 43.3073ZM54.0447 8.15538C54.3978 8.36686 54.7346 8.57834 55.0674 8.7998C57.5956 10.4677 59.8236 12.5167 61.6924 14.8889C62.1854 15.5074 62.6684 16.1777 63.131 16.88C63.338 17.1972 63.5409 17.5224 63.7357 17.8496L59.1844 20.3655C58.8699 19.8408 58.5209 19.3101 58.1394 18.7814C57.6991 18.1808 57.2649 17.6402 56.8164 17.1294C55.252 15.3398 53.4319 13.8155 51.4028 12.5885L52.389 10.9366L54.0447 8.15338V8.15538ZM38.6905 9.20281C35.444 9.27464 32.3253 9.99288 29.4054 11.3416L27.0801 6.73685C30.7182 5.03701 34.6181 4.13921 38.6905 4.06739V9.20481V9.20281ZM15.1794 17.1154L19.546 19.9365C17.5616 23.0569 16.3786 26.6202 16.1006 30.2992L10.8818 30.0358C11.2044 25.449 12.6836 21.0019 15.1794 17.1154ZM23.2167 55.0865C19.4852 52.5806 16.3928 49.2129 14.246 45.3224L18.8845 42.9602C20.382 45.6516 22.472 48.0716 24.9536 49.981C25.4487 50.36 25.9214 50.6952 26.3841 50.9965L23.592 55.3379C23.4683 55.2581 23.3425 55.1743 23.2167 55.0865ZM39.2283 59.9426C39.072 59.9426 38.9259 59.9426 38.79 59.9406L38.9726 54.8112C39.0537 54.8112 39.139 54.8112 39.2283 54.8112C42.8989 54.8112 46.533 53.9513 49.7735 52.3212L52.251 56.8402C48.2455 58.8712 43.7531 59.9426 39.2262 59.9426H39.2283ZM63.7864 46.0706L59.3224 43.4011C61.1973 40.2189 62.2564 36.6177 62.4046 32.9267L67.6275 33.0145C67.459 37.6192 66.1361 42.1122 63.7864 46.0706Z" fill="url(#paint1_linear_829_29)"/>
</g>
<defs>
<filter id="filter0_bdi_829_29" x="0.635351" y="-6" width="77.2" height="83.1" filterUnits="userSpaceOnUse" color-interpolation-filters="sRGB">
<feFlood flood-opacity="0" result="BackgroundImageFix"/>
<feGaussianBlur in="BackgroundImageFix" stdDeviation="4.5"/>
<feComposite in2="SourceAlpha" operator="in" result="effect1_backgroundBlur_829_29"/>
<feColorMatrix in="SourceAlpha" type="matrix" values="0 0 0 0 0 0 0 0 0 0 0 0 0 0 0 0 0 0 127 0" result="hardAlpha"/>
<feOffset dy="7"/>
<feGaussianBlur stdDeviation="4.55"/>
<feComposite in2="hardAlpha" operator="out"/>
<feColorMatrix type="matrix" values="0 0 0 0 0.260143 0 0 0 0 0.343383 0 0 0 0 0.391715 0 0 0 0.1 0"/>
<feBlend mode="normal" in2="effect1_backgroundBlur_829_29" result="effect2_dropShadow_829_29"/>
<feBlend mode="normal" in="SourceGraphic" in2="effect2_dropShadow_829_29" result="shape"/>
<feColorMatrix in="SourceAlpha" type="matrix" values="0 0 0 0 0 0 0 0 0 0 0 0 0 0 0 0 0 0 127 0" result="hardAlpha"/>
<feOffset dx="1" dy="1"/>
<feGaussianBlur stdDeviation="0.4"/>
<feComposite in2="hardAlpha" operator="arithmetic" k2="-1" k3="1"/>
<feColorMatrix type="matrix" values="0 0 0 0 1 0 0 0 0 1 0 0 0 0 1 0 0 0 0.14 0"/>
<feBlend mode="normal" in2="shape" result="effect3_innerShadow_829_29"/>
</filter>
<linearGradient id="paint0_linear_829_29" x1="24.001" y1="8.5" x2="49.001" y2="61" gradientUnits="userSpaceOnUse">
<stop stop-color="#C698FF"/>
<stop offset="0.48607" stop-color="#A55EFF"/>
</linearGradient>
<linearGradient id="paint1_linear_829_29" x1="24.001" y1="8.5" x2="49.001" y2="61" gradientUnits="userSpaceOnUse">
<stop stop-color="#C698FF"/>
<stop offset="0.48607" stop-color="#A55EFF"/>
</linearGradient>
</defs>
</svg>
