<svg width="103" height="102" viewBox="0 0 103 102" fill="none" xmlns="http://www.w3.org/2000/svg">
<g filter="url(#filter0_bdi_215_288)">
<path d="M38.3759 57.7457V52.5271H42.5654V31.4756H38.3759V26.257H54.7753C56.7179 26.257 58.4132 26.579 59.8559 27.2229C61.2986 27.8668 62.4207 28.7818 63.2276 29.9677C64.0318 31.1536 64.4339 32.5703 64.4339 34.2177V34.6685C64.4339 36.1093 64.1595 37.2845 63.6134 38.1994C63.0673 39.1143 62.4207 39.82 61.6762 40.3137C60.9318 40.8101 60.2254 41.1615 59.557 41.3708V42.1811C60.2254 42.3609 60.9535 42.6989 61.7442 43.1926C62.5348 43.689 63.2086 44.4 63.771 45.331C64.3334 46.2621 64.6132 47.4748 64.6132 48.9747V49.4254C64.6132 51.1641 64.203 52.6586 63.3825 53.9008C62.562 55.1458 61.4317 56.0983 59.989 56.7583C58.5463 57.4184 56.87 57.7484 54.9546 57.7484H38.3732L38.3759 57.7457ZM48.5807 39.2136H54.1368C55.3811 39.2136 56.4054 38.8997 57.2123 38.2692C58.0165 37.6386 58.4187 36.7693 58.4187 35.6612V35.2104C58.4187 34.0701 58.022 33.1928 57.2341 32.5783C56.4435 31.9639 55.411 31.6554 54.1368 31.6554H48.5807V39.2136ZM54.2292 52.3473C55.5333 52.3473 56.5902 52.0334 57.3944 51.4029C58.1986 50.7724 58.6007 49.8735 58.6007 48.7037V48.2529C58.6007 47.0831 58.204 46.1843 57.4161 45.5537C56.6255 44.9232 55.5632 44.6093 54.2264 44.6093H48.578V52.3473H54.2292Z" fill="url(#paint0_linear_215_288)"/>
<path d="M90.9919 41.9638H90.9837C90.981 38.1887 90.424 34.4538 89.3372 30.8504L89.3454 30.8451L88.8754 29.3533L88.8618 29.3667C88.1038 27.18 87.1474 25.0657 86.0117 23.0641V23.0588L85.9194 22.8951C85.8976 22.8602 85.8759 22.8226 85.8569 22.7878L85.5634 22.278H85.558C85.2836 21.8165 85.001 21.3523 84.7076 20.9016C84.0664 19.9195 83.3926 18.9831 82.708 18.1192C80.1133 14.8109 77.016 11.9508 73.5057 9.62186C73.0357 9.30794 72.5575 9.00743 72.0576 8.70692V8.70156L71.5142 8.38495C71.4871 8.36885 71.4626 8.35544 71.4382 8.33934L70.816 7.97981L70.8105 7.99054C65.143 4.8406 58.7447 3.12879 52.2132 3.01073V3H51.5394C51.5231 3 51.5068 3 51.4905 3H50.7678V3.01073C45.0894 3.11001 39.6529 4.36569 34.5804 6.75095V6.74291L34.037 7.00853C34.0017 7.02731 33.9663 7.04341 33.9283 7.05951L33.2844 7.37611L33.2898 7.38685C27.5164 10.3517 22.558 14.6929 18.8793 20.0108L18.8711 20.0054L18.507 20.5501C18.4962 20.5662 18.4826 20.5823 18.4717 20.601L18.075 21.1967L18.0859 21.2021C14.6055 26.6434 12.5461 32.8654 12.1005 39.2861H12.0897L12.0516 39.9971C12.0516 40.0293 12.0516 40.0641 12.0489 40.0963L12.0163 40.7108H12.0245C12.0109 41.1401 12 41.572 12 42.004C12 48.0088 13.4182 53.9733 16.0998 59.3046L16.0917 59.3099L16.4204 59.9351C16.4204 59.9351 16.4232 59.9405 16.4259 59.9431L16.7573 60.5737L16.7655 60.5683C19.7487 66.0096 24.0468 70.7211 29.2362 74.2198C29.4209 74.3459 29.6057 74.4694 29.7877 74.5874L30.2224 74.8638C30.2822 74.9013 30.342 74.9416 30.4017 74.9765L30.8745 75.2662C30.8908 75.2743 30.9044 75.285 30.9207 75.2931L31.013 75.3494C31.5157 75.6499 32.0509 75.9558 32.635 76.2724C37.857 79.0762 43.5027 80.6458 49.4256 80.9436V80.9759H50.132C50.1348 80.9759 50.1402 80.9759 50.1429 80.9759L50.8629 81V80.9946C51.0612 80.9973 51.2704 81 51.5014 81C57.8019 81 64.0508 79.4948 69.626 76.6507L69.6314 76.6614L70.2672 76.3207C70.2672 76.3207 70.2835 76.3126 70.2916 76.3073L70.9002 75.9826L70.8948 75.9719C76.565 72.8085 81.3712 68.3009 84.8625 62.8704L84.8733 62.8758L85.232 62.2962C85.232 62.2962 85.2428 62.2774 85.2483 62.2694L85.6232 61.6603L85.6124 61.6549C88.8917 56.1171 90.7337 49.8306 90.9647 43.3831H90.9701L90.9864 42.6748C90.9864 42.6748 90.9864 42.6748 90.9864 42.6721L91 41.9584L90.9919 41.9638ZM76.7959 57.2064C75.9591 58.564 75.0136 59.8465 73.9703 61.0432C73.9513 61.0673 73.9296 61.0915 73.9106 61.113C73.8481 61.1854 73.7829 61.2552 73.7177 61.3249C71.411 63.9114 68.6533 66.0928 65.5642 67.7429L65.5451 67.7536C61.2606 70.0423 56.4 71.2497 51.4878 71.2497C51.3655 71.2497 51.2514 71.2497 51.1427 71.2497L50.4716 71.2282C47.2521 71.1262 44.1358 70.5199 41.1607 69.4225C40.0033 68.9959 38.8704 68.4968 37.7592 67.9226C37.5445 67.8126 37.3353 67.6946 37.1234 67.5765C36.8191 67.4102 36.5202 67.2385 36.2241 67.0587C36.0393 66.9487 35.8546 66.8414 35.6753 66.7287L35.0721 66.345C34.4853 65.9613 33.8875 65.5347 33.2654 65.0544C29.9154 62.4652 27.1251 59.1463 25.1934 55.4516C24.9869 55.0599 24.7913 54.6601 24.6038 54.2604C23.5578 52.028 22.7998 49.6589 22.3542 47.228C22.039 45.5081 21.8787 43.7561 21.8787 41.9987C21.8787 41.4433 21.8923 40.9523 21.9195 40.4934C22.1803 35.4331 23.7697 30.5258 26.522 26.2758H26.5247L26.7393 25.9538C27.4593 24.8698 28.2499 23.8368 29.103 22.8629C31.6651 19.9383 34.8031 17.5289 38.3297 15.7983C42.435 13.7806 46.8554 12.7557 51.4742 12.753H51.4932C53.8678 12.753 56.1881 13.0213 58.4404 13.5553C60.527 14.0489 62.5538 14.7761 64.5073 15.7205C64.6621 15.7956 64.817 15.8681 64.9719 15.9459H64.9773C65.3441 16.1337 65.719 16.3323 66.0912 16.5415L66.4499 16.7535C69.2782 18.3794 71.7995 20.4562 73.9486 22.9273C74.5219 23.582 75.0761 24.2769 75.6385 25.0469C76.2634 25.9216 76.8285 26.8017 77.3149 27.6656C77.4942 27.9768 77.6653 28.2908 77.8311 28.6074C78.1001 29.1198 78.3473 29.6404 78.5837 30.1689C79.2249 31.599 79.7547 33.0774 80.154 34.5987C80.2464 34.9448 80.3307 35.2936 80.4094 35.6451C80.8768 37.7111 81.1104 39.8468 81.1104 41.996C81.1104 42.1596 81.1104 42.3287 81.105 42.5004V42.5406C81.0099 47.7324 79.521 52.8008 76.7986 57.201L76.7959 57.2064ZM71.3295 9.93309C71.8022 10.2175 72.2532 10.5019 72.6988 10.7997C76.0841 13.0428 79.0673 15.7983 81.5696 18.9885C82.2298 19.8203 82.8764 20.7218 83.4959 21.6662C83.773 22.0928 84.0447 22.5302 84.3055 22.9702L78.2114 26.3536C77.7903 25.6479 77.323 24.9342 76.8122 24.2232C76.2227 23.4156 75.6412 22.6885 75.0408 22.0016C72.946 19.5949 70.509 17.545 67.792 15.8949L69.1125 13.6733L71.3295 9.93041V9.93309ZM50.7705 11.3417C46.4234 11.4383 42.2475 12.4042 38.3379 14.218L35.2243 8.02542C40.0957 5.73943 45.3176 4.53204 50.7705 4.43545V11.3444V11.3417ZM19.2895 21.9828L25.1363 25.7767C22.4792 29.9731 20.8952 34.7651 20.523 39.7127L13.5351 39.3585C13.9671 33.1901 15.9477 27.2095 19.2895 21.9828ZM30.0512 73.0473C25.0548 69.6774 20.9142 65.1483 18.0397 59.9163L24.2506 56.7395C26.2557 60.359 29.0541 63.6136 32.3769 66.1813C33.0399 66.6911 33.6729 67.1419 34.2924 67.547L30.5539 73.3854C30.3881 73.2781 30.2197 73.1654 30.0512 73.0473ZM51.4905 79.578C51.2813 79.578 51.0857 79.578 50.9036 79.5753L51.1482 72.6771C51.2568 72.6771 51.371 72.6771 51.4905 72.6771C56.4054 72.6771 61.2714 71.5207 65.6104 69.3286L68.9277 75.4058C63.5645 78.1371 57.5492 79.578 51.4878 79.578H51.4905ZM84.3734 60.9225L78.3962 57.3325C80.9066 53.053 82.3249 48.21 82.5232 43.2463L89.5166 43.3643C89.2911 49.5569 87.5196 55.5992 84.3734 60.9225Z" fill="url(#paint1_linear_215_288)"/>
</g>
<defs>
<filter id="filter0_bdi_215_288" x="0.365823" y="-8.50633" width="102.268" height="110.09" filterUnits="userSpaceOnUse" color-interpolation-filters="sRGB">
<feFlood flood-opacity="0" result="BackgroundImageFix"/>
<feGaussianBlur in="BackgroundImageFix" stdDeviation="5.75316"/>
<feComposite in2="SourceAlpha" operator="in" result="effect1_backgroundBlur_215_288"/>
<feColorMatrix in="SourceAlpha" type="matrix" values="0 0 0 0 0 0 0 0 0 0 0 0 0 0 0 0 0 0 127 0" result="hardAlpha"/>
<feOffset dy="8.94937"/>
<feGaussianBlur stdDeviation="5.81709"/>
<feComposite in2="hardAlpha" operator="out"/>
<feColorMatrix type="matrix" values="0 0 0 0 0.260143 0 0 0 0 0.343383 0 0 0 0 0.391715 0 0 0 0.1 0"/>
<feBlend mode="normal" in2="effect1_backgroundBlur_215_288" result="effect2_dropShadow_215_288"/>
<feBlend mode="normal" in="SourceGraphic" in2="effect2_dropShadow_215_288" result="shape"/>
<feColorMatrix in="SourceAlpha" type="matrix" values="0 0 0 0 0 0 0 0 0 0 0 0 0 0 0 0 0 0 127 0" result="hardAlpha"/>
<feOffset dx="1.27848" dy="1.27848"/>
<feGaussianBlur stdDeviation="0.511392"/>
<feComposite in2="hardAlpha" operator="arithmetic" k2="-1" k3="1"/>
<feColorMatrix type="matrix" values="0 0 0 0 1 0 0 0 0 1 0 0 0 0 1 0 0 0 0.14 0"/>
<feBlend mode="normal" in2="shape" result="effect3_innerShadow_215_288"/>
</filter>
<linearGradient id="paint0_linear_215_288" x1="31.1014" y1="10.3966" x2="64.8144" y2="80.886" gradientUnits="userSpaceOnUse">
<stop stop-color="#C698FF"/>
<stop offset="0.48607" stop-color="#A55EFF"/>
</linearGradient>
<linearGradient id="paint1_linear_215_288" x1="31.1014" y1="10.3966" x2="64.8144" y2="80.886" gradientUnits="userSpaceOnUse">
<stop stop-color="#C698FF"/>
<stop offset="0.48607" stop-color="#A55EFF"/>
</linearGradient>
</defs>
</svg>
