<svg width="422" height="154" viewBox="0 0 422 154" fill="none" xmlns="http://www.w3.org/2000/svg">
<g filter="url(#filter0_d_1_442)">
<mask id="path-1-outside-1_1_442" maskUnits="userSpaceOnUse" x="10" y="8" width="389" height="120" fill="black">
<rect fill="white" x="10" y="8" width="389" height="120"/>
<path d="M51.3472 91.8204V83.9256H57.7558V52.0785H51.3472V44.1837H76.4332C79.4048 44.1837 81.9982 44.6707 84.2051 45.6449C86.412 46.6191 88.1284 48.0032 89.3628 49.7973C90.593 51.5914 91.208 53.7345 91.208 56.2268V56.9087C91.208 59.0884 90.7883 60.8663 89.9529 62.2504C89.1175 63.6345 88.1284 64.702 86.9896 65.4489C85.8509 66.1998 84.7703 66.7316 83.7479 67.0482V68.274C84.7703 68.5459 85.8841 69.0574 87.0936 69.8042C88.303 70.5552 89.3337 71.6308 90.194 73.0393C91.0543 74.4478 91.4824 76.2824 91.4824 78.5514V79.2334C91.4824 81.8636 90.8548 84.1245 89.5997 86.0038C88.3445 87.8872 86.6156 89.3282 84.4087 90.3267C82.2018 91.3252 79.6375 91.8245 76.7075 91.8245H51.343L51.3472 91.8204ZM66.9574 63.7847H75.4565C77.36 63.7847 78.9269 63.3098 80.1612 62.3559C81.3914 61.402 82.0065 60.0869 82.0065 58.4105V57.7286C82.0065 56.0035 81.3997 54.6762 80.1945 53.7467C78.985 52.8172 77.4057 52.3504 75.4565 52.3504H66.9574V63.7847ZM75.5978 83.6536C77.5928 83.6536 79.2095 83.1787 80.4397 82.2249C81.6699 81.271 82.285 79.9112 82.285 78.1415V77.4596C82.285 75.6898 81.6782 74.3301 80.4729 73.3762C79.2635 72.4223 77.6385 71.9474 75.5937 71.9474H66.9532V83.6536H75.5978Z"/>
<path d="M131.834 67.9452H131.821C131.817 62.2341 130.965 56.584 129.303 51.1327L129.315 51.1246L128.596 48.8678L128.575 48.8881C127.416 45.58 125.953 42.3814 124.216 39.3534V39.3453L124.074 39.0977C124.041 39.0449 124.008 38.9881 123.979 38.9353L123.53 38.1641H123.522C123.102 37.466 122.67 36.7637 122.221 36.0818C121.24 34.5962 120.209 33.1796 119.162 31.8726C115.193 26.8678 110.455 22.5409 105.085 19.0177C104.366 18.5428 103.635 18.0882 102.87 17.6336V17.6254L102.039 17.1465C101.997 17.1221 101.96 17.1018 101.922 17.0775L100.971 16.5336L100.962 16.5498C92.2928 11.7845 82.5052 9.19483 72.514 9.01624V9H71.4833C71.4584 9 71.4335 9 71.4085 9H70.303V9.01624C61.6168 9.16642 53.3005 11.066 45.5411 14.6745V14.6623L44.7099 15.0642C44.6559 15.0926 44.6019 15.117 44.5437 15.1413L43.5587 15.6203L43.567 15.6365C34.7353 20.1217 27.1505 26.6892 21.5232 34.7342L21.5107 34.7261L20.9538 35.5501C20.9372 35.5745 20.9164 35.5988 20.8998 35.6272L20.293 36.5283L20.3096 36.5364C14.9857 44.7682 11.8354 54.181 11.1538 63.8943H11.1372L11.079 64.9699C11.079 65.0186 11.079 65.0714 11.0748 65.1201L11.0249 66.0496H11.0374C11.0166 66.6991 11 67.3526 11 68.0061C11 77.0902 13.1695 86.1134 17.2715 94.1787L17.259 94.1868L17.7619 95.1326C17.7619 95.1326 17.7661 95.1407 17.7702 95.1447L18.2773 96.0986L18.2898 96.0905C22.8531 104.322 29.428 111.45 37.3661 116.743C37.6487 116.934 37.9314 117.12 38.2098 117.299L38.8748 117.717C38.9662 117.774 39.0576 117.835 39.1491 117.887L39.8722 118.326C39.8972 118.338 39.918 118.354 39.9429 118.366L40.0842 118.452C40.8531 118.906 41.6718 119.369 42.5654 119.848C50.5533 124.09 59.1897 126.464 68.2499 126.915V126.963H69.3305C69.3346 126.963 69.343 126.963 69.3471 126.963L70.4485 127V126.992C70.7519 126.996 71.0719 127 71.4251 127C81.0631 127 90.6221 124.723 99.1503 120.42L99.1586 120.437L100.131 119.921C100.131 119.921 100.156 119.909 100.169 119.901L101.1 119.41L101.091 119.393C109.765 114.608 117.117 107.789 122.458 99.5731L122.474 99.5813L123.023 98.7045C123.023 98.7045 123.039 98.6761 123.048 98.6639L123.621 97.7425L123.605 97.7344C128.621 89.3566 131.439 79.8463 131.792 70.0924H131.8L131.825 69.0208V69.0168L131.846 67.9371L131.834 67.9452ZM110.118 91.0045C108.838 93.0584 107.392 94.9986 105.796 96.809C105.767 96.8455 105.734 96.882 105.704 96.9145C105.609 97.0241 105.509 97.1296 105.409 97.2351C101.881 101.148 97.6624 104.448 92.937 106.944L92.9079 106.961C86.3538 110.423 78.9185 112.249 71.4044 112.249C71.2173 112.249 71.0428 112.249 70.8766 112.249L69.85 112.217C64.925 112.063 60.158 111.145 55.6071 109.485C53.8366 108.84 52.1036 108.085 50.4037 107.216C50.0754 107.05 49.7554 106.871 49.4312 106.693C48.9657 106.441 48.5086 106.181 48.0555 105.909C47.7729 105.743 47.4903 105.581 47.216 105.41L46.2934 104.83C45.3957 104.249 44.4813 103.604 43.5296 102.877C38.4051 98.9602 34.1369 93.9392 31.1819 88.3499C30.866 87.7573 30.5668 87.1525 30.28 86.5477C28.6799 83.1706 27.5204 79.5865 26.8388 75.909C26.3567 73.3072 26.1115 70.6566 26.1115 67.998C26.1115 67.1578 26.1323 66.4149 26.1738 65.7209C26.5728 58.0655 29.0041 50.6416 33.2142 44.2121H33.2184L33.5467 43.725C34.6481 42.0851 35.8575 40.5224 37.1625 39.049C41.0817 34.6246 45.8819 30.9796 51.2765 28.3616C57.5563 25.3092 64.3183 23.7586 71.3836 23.7546H71.4127C75.0451 23.7546 78.5944 24.1605 82.0398 24.9682C85.2316 25.7151 88.3321 26.8151 91.3203 28.2439C91.5572 28.3575 91.7941 28.4671 92.031 28.5848H92.0393C92.6003 28.8689 93.1739 29.1693 93.7433 29.4859L94.2919 29.8066C98.6183 32.2663 102.475 35.408 105.763 39.1464C106.64 40.1368 107.487 41.1881 108.348 42.353C109.304 43.6763 110.168 45.0076 110.912 46.3146C111.186 46.7855 111.448 47.2604 111.702 47.7394C112.113 48.5146 112.491 49.3021 112.853 50.1017C113.834 52.2652 114.644 54.5017 115.255 56.8032C115.396 57.3268 115.525 57.8545 115.646 58.3862C116.361 61.5116 116.718 64.7426 116.718 67.9939C116.718 68.2415 116.718 68.4972 116.71 68.757V68.8179C116.564 76.6721 114.287 84.3396 110.122 90.9964L110.118 91.0045ZM101.756 19.4885C102.479 19.9188 103.169 20.349 103.851 20.7996C109.029 24.1929 113.593 28.3616 117.42 33.1877C118.43 34.446 119.419 35.8099 120.367 37.2387C120.791 37.884 121.207 38.5457 121.606 39.2113L112.284 44.3298C111.639 43.2623 110.924 42.1825 110.143 41.1069C109.241 39.8851 108.352 38.7851 107.433 37.746C104.229 34.1051 100.501 31.004 96.345 28.5077L98.3648 25.1468L101.756 19.4845V19.4885ZM70.3072 21.6195C63.6575 21.7656 57.2696 23.2269 51.289 25.9708L46.5261 16.6026C53.978 13.1443 61.9659 11.3177 70.3072 11.1716V21.6236V21.6195ZM22.1507 37.7176L31.0946 43.4571C27.03 49.8054 24.607 57.0548 24.0376 64.5397L13.3482 64.0039C14.009 54.6722 17.0388 45.6246 22.1507 37.7176ZM38.6129 114.969C30.9699 109.871 24.6361 103.019 20.239 95.1042L29.7397 90.2983C32.8069 95.7739 37.0877 100.697 42.1705 104.582C43.1846 105.353 44.153 106.035 45.1006 106.648L39.3818 115.48C39.1283 115.318 38.8706 115.148 38.6129 114.969ZM71.4085 124.849C71.0885 124.849 70.7893 124.849 70.5108 124.845L70.8849 114.409C71.0511 114.409 71.2257 114.409 71.4085 114.409C78.9269 114.409 86.3704 112.659 93.0076 109.343L98.0822 118.537C89.8781 122.669 80.6766 124.849 71.4044 124.849H71.4085ZM121.709 96.6263L112.566 91.1953C116.406 84.7212 118.576 77.3946 118.879 69.8854L129.577 70.064C129.232 79.4323 126.522 88.5732 121.709 96.6263Z"/>
<path d="M160.521 63.2664V55.8672H166.552V26.0152H160.521V18.616H184.119C186.916 18.616 189.341 19.0838 191.395 20.0193C193.492 20.9123 195.109 22.2093 196.245 23.9103C197.425 25.5687 198.015 27.5674 198.015 29.9062V30.544C198.015 32.5852 197.622 34.2649 196.835 35.5832C196.049 36.8589 195.109 37.8582 194.017 38.5811C192.968 39.2615 191.963 39.7505 191.001 40.0482V41.1963C191.963 41.4515 193.011 41.9405 194.148 42.6634C195.284 43.3438 196.245 44.3431 197.032 45.6614C197.862 46.9796 198.277 48.7019 198.277 50.8281V51.4659C198.277 53.9323 197.687 56.0585 196.507 57.8446C195.327 59.5881 193.689 60.9276 191.591 61.8631C189.537 62.7986 187.134 63.2664 184.381 63.2664H160.521ZM175.204 55.612H183.332C185.211 55.612 186.719 55.1655 187.855 54.2725C189.035 53.3795 189.625 52.1038 189.625 50.4454V49.8075C189.625 48.149 189.057 46.8733 187.921 45.9803C186.784 45.0873 185.255 44.6408 183.332 44.6408H175.204V55.612ZM175.204 36.9865H183.201C184.993 36.9865 186.457 36.54 187.593 35.6469C188.773 34.7539 189.363 33.5207 189.363 31.9473V31.3095C189.363 29.6936 188.795 28.4604 187.658 27.6099C186.522 26.7169 185.036 26.2704 183.201 26.2704H175.204V36.9865Z"/>
<path d="M205.36 63.2664V18.616H214.013V63.2664H205.36Z"/>
<path d="M222.644 63.2664V18.616H239.096L248.207 57.5256H249.387V18.616H257.908V63.2664H241.456L232.345 24.3568H231.165V63.2664H222.644Z"/>
<path d="M282.418 64.1594C279.272 64.1594 276.41 63.479 273.831 62.1182C271.297 60.7149 269.265 58.695 267.736 56.0585C266.25 53.3795 265.507 50.1264 265.507 46.2992V35.5832C265.507 29.8424 267.167 25.4411 270.489 22.3794C273.81 19.2751 278.311 17.723 283.991 17.723C289.629 17.723 293.977 19.1901 297.036 22.1243C300.138 25.0159 301.689 28.9494 301.689 33.9247V34.1799H293.168V33.6696C293.168 32.0962 292.819 30.6716 292.119 29.3959C291.464 28.1202 290.459 27.1208 289.104 26.3979C287.75 25.6325 286.045 25.2498 283.991 25.2498C280.933 25.2498 278.529 26.1641 276.781 27.9926C275.033 29.8211 274.159 32.3088 274.159 35.4556V46.4268C274.159 49.5311 275.033 52.04 276.781 53.9536C278.529 55.8247 280.976 56.7602 284.123 56.7602C287.269 56.7602 289.563 55.9522 291.005 54.3363C292.447 52.7204 293.168 50.6792 293.168 48.2128V47.575H282.287V40.4309H301.689V63.2664H293.693V58.9927H292.513C292.207 59.7156 291.704 60.4811 291.005 61.289C290.35 62.097 289.345 62.7774 287.99 63.3302C286.635 63.883 284.778 64.1594 282.418 64.1594Z"/>
<path d="M327.785 64.1594C322.017 64.1594 317.428 62.6285 314.02 59.5668C310.611 56.4625 308.907 52.04 308.907 46.2992V35.5832C308.907 29.8424 310.611 25.4411 314.02 22.3794C317.428 19.2751 322.017 17.723 327.785 17.723C333.553 17.723 338.141 19.2751 341.55 22.3794C344.958 25.4411 346.663 29.8424 346.663 35.5832V46.2992C346.663 52.04 344.958 56.4625 341.55 59.5668C338.141 62.6285 333.553 64.1594 327.785 64.1594ZM327.785 56.6326C331.018 56.6326 333.531 55.7184 335.323 53.8898C337.114 52.0613 338.01 49.6161 338.01 46.5544V35.328C338.01 32.2663 337.114 29.8211 335.323 27.9926C333.531 26.1641 331.018 25.2498 327.785 25.2498C324.595 25.2498 322.082 26.1641 320.247 27.9926C318.455 29.8211 317.559 32.2663 317.559 35.328V46.5544C317.559 49.6161 318.455 52.0613 320.247 53.8898C322.082 55.7184 324.595 56.6326 327.785 56.6326Z"/>
<path d="M179.268 118.277C173.587 118.277 169.086 116.746 165.765 113.684C162.444 110.58 160.784 106.158 160.784 100.417V89.7008C160.784 83.96 162.444 79.5587 165.765 76.497C169.086 73.3927 173.587 71.8406 179.268 71.8406C184.905 71.8406 189.253 73.3502 192.312 76.3694C195.415 79.3461 196.966 83.4497 196.966 88.6802V89.0629H188.445V88.425C188.445 85.7885 187.68 83.6198 186.151 81.9188C184.665 80.2179 182.371 79.3674 179.268 79.3674C176.209 79.3674 173.806 80.2817 172.058 82.1102C170.31 83.9387 169.436 86.4264 169.436 89.5732V100.544C169.436 103.649 170.31 106.136 172.058 108.007C173.806 109.836 176.209 110.75 179.268 110.75C182.371 110.75 184.665 109.9 186.151 108.199C187.68 106.455 188.445 104.287 188.445 101.693V100.544H196.966V101.437C196.966 106.668 195.415 110.793 192.312 113.812C189.253 116.789 184.905 118.277 179.268 118.277Z"/>
<path d="M204.016 117.384V72.7336H223.943C226.827 72.7336 229.34 73.2226 231.481 74.2007C233.622 75.1787 235.283 76.5608 236.462 78.3468C237.642 80.1328 238.232 82.2378 238.232 84.6616V85.4271C238.232 88.1061 237.577 90.2748 236.266 91.9333C234.955 93.5917 233.338 94.8037 231.415 95.5691V96.7172C233.163 96.8023 234.518 97.3976 235.479 98.5033C236.441 99.5664 236.921 100.991 236.921 102.777V117.384H228.269V103.989C228.269 102.968 227.985 102.139 227.417 101.501C226.892 100.863 225.997 100.544 224.729 100.544H212.669V117.384H204.016ZM212.669 92.8901H223.025C225.079 92.8901 226.674 92.3585 227.81 91.2954C228.99 90.1898 229.58 88.744 229.58 86.9579V86.3201C229.58 84.5341 229.012 83.1095 227.876 82.0464C226.74 80.9408 225.123 80.388 223.025 80.388H212.669V92.8901Z"/>
<path d="M256.078 117.384V102.011L240.478 72.7336H250.113L259.814 91.8695H260.994L270.695 72.7336H280.331L264.731 102.011V117.384H256.078Z"/>
<path d="M285.183 117.384V72.7336H304.061C306.945 72.7336 309.48 73.3077 311.664 74.4558C313.893 75.5615 315.619 77.1349 316.843 79.176C318.11 81.2172 318.744 83.6411 318.744 86.4477V87.3407C318.744 90.1047 318.088 92.5286 316.777 94.6123C315.51 96.6535 313.762 98.2481 311.533 99.3963C309.348 100.502 306.858 101.055 304.061 101.055H293.835V117.384H285.183ZM293.835 93.4004H303.209C305.263 93.4004 306.923 92.8475 308.19 91.7419C309.458 90.6363 310.091 89.1267 310.091 87.2131V86.5752C310.091 84.6616 309.458 83.152 308.19 82.0464C306.923 80.9408 305.263 80.388 303.209 80.388H293.835V93.4004Z"/>
<path d="M335.233 117.384V80.388H321.861V72.7336H357.257V80.388H343.885V117.384H335.233Z"/>
<path d="M379.122 118.277C373.354 118.277 368.766 116.746 365.357 113.684C361.949 110.58 360.244 106.158 360.244 100.417V89.7008C360.244 83.96 361.949 79.5587 365.357 76.497C368.766 73.3927 373.354 71.8406 379.122 71.8406C384.89 71.8406 389.479 73.3927 392.887 76.497C396.296 79.5587 398 83.96 398 89.7008V100.417C398 106.158 396.296 110.58 392.887 113.684C389.479 116.746 384.89 118.277 379.122 118.277ZM379.122 110.75C382.356 110.75 384.869 109.836 386.66 108.007C388.452 106.179 389.348 103.734 389.348 100.672V89.4456C389.348 86.3839 388.452 83.9387 386.66 82.1102C384.869 80.2817 382.356 79.3674 379.122 79.3674C375.932 79.3674 373.419 80.2817 371.584 82.1102C369.792 83.9387 368.897 86.3839 368.897 89.4456V100.672C368.897 103.734 369.792 106.179 371.584 108.007C373.419 109.836 375.932 110.75 379.122 110.75Z"/>
</mask>
<path d="M51.3472 91.8204V83.9256H57.7558V52.0785H51.3472V44.1837H76.4332C79.4048 44.1837 81.9982 44.6707 84.2051 45.6449C86.412 46.6191 88.1284 48.0032 89.3628 49.7973C90.593 51.5914 91.208 53.7345 91.208 56.2268V56.9087C91.208 59.0884 90.7883 60.8663 89.9529 62.2504C89.1175 63.6345 88.1284 64.702 86.9896 65.4489C85.8509 66.1998 84.7703 66.7316 83.7479 67.0482V68.274C84.7703 68.5459 85.8841 69.0574 87.0936 69.8042C88.303 70.5552 89.3337 71.6308 90.194 73.0393C91.0543 74.4478 91.4824 76.2824 91.4824 78.5514V79.2334C91.4824 81.8636 90.8548 84.1245 89.5997 86.0038C88.3445 87.8872 86.6156 89.3282 84.4087 90.3267C82.2018 91.3252 79.6375 91.8245 76.7075 91.8245H51.343L51.3472 91.8204ZM66.9574 63.7847H75.4565C77.36 63.7847 78.9269 63.3098 80.1612 62.3559C81.3914 61.402 82.0065 60.0869 82.0065 58.4105V57.7286C82.0065 56.0035 81.3997 54.6762 80.1945 53.7467C78.985 52.8172 77.4057 52.3504 75.4565 52.3504H66.9574V63.7847ZM75.5978 83.6536C77.5928 83.6536 79.2095 83.1787 80.4397 82.2249C81.6699 81.271 82.285 79.9112 82.285 78.1415V77.4596C82.285 75.6898 81.6782 74.3301 80.4729 73.3762C79.2635 72.4223 77.6385 71.9474 75.5937 71.9474H66.9532V83.6536H75.5978Z" fill="url(#paint0_linear_1_442)"/>
<path d="M131.834 67.9452H131.821C131.817 62.2341 130.965 56.584 129.303 51.1327L129.315 51.1246L128.596 48.8678L128.575 48.8881C127.416 45.58 125.953 42.3814 124.216 39.3534V39.3453L124.074 39.0977C124.041 39.0449 124.008 38.9881 123.979 38.9353L123.53 38.1641H123.522C123.102 37.466 122.67 36.7637 122.221 36.0818C121.24 34.5962 120.209 33.1796 119.162 31.8726C115.193 26.8678 110.455 22.5409 105.085 19.0177C104.366 18.5428 103.635 18.0882 102.87 17.6336V17.6254L102.039 17.1465C101.997 17.1221 101.96 17.1018 101.922 17.0775L100.971 16.5336L100.962 16.5498C92.2928 11.7845 82.5052 9.19483 72.514 9.01624V9H71.4833C71.4584 9 71.4335 9 71.4085 9H70.303V9.01624C61.6168 9.16642 53.3005 11.066 45.5411 14.6745V14.6623L44.7099 15.0642C44.6559 15.0926 44.6019 15.117 44.5437 15.1413L43.5587 15.6203L43.567 15.6365C34.7353 20.1217 27.1505 26.6892 21.5232 34.7342L21.5107 34.7261L20.9538 35.5501C20.9372 35.5745 20.9164 35.5988 20.8998 35.6272L20.293 36.5283L20.3096 36.5364C14.9857 44.7682 11.8354 54.181 11.1538 63.8943H11.1372L11.079 64.9699C11.079 65.0186 11.079 65.0714 11.0748 65.1201L11.0249 66.0496H11.0374C11.0166 66.6991 11 67.3526 11 68.0061C11 77.0902 13.1695 86.1134 17.2715 94.1787L17.259 94.1868L17.7619 95.1326C17.7619 95.1326 17.7661 95.1407 17.7702 95.1447L18.2773 96.0986L18.2898 96.0905C22.8531 104.322 29.428 111.45 37.3661 116.743C37.6487 116.934 37.9314 117.12 38.2098 117.299L38.8748 117.717C38.9662 117.774 39.0576 117.835 39.1491 117.887L39.8722 118.326C39.8972 118.338 39.918 118.354 39.9429 118.366L40.0842 118.452C40.8531 118.906 41.6718 119.369 42.5654 119.848C50.5533 124.09 59.1897 126.464 68.2499 126.915V126.963H69.3305C69.3346 126.963 69.343 126.963 69.3471 126.963L70.4485 127V126.992C70.7519 126.996 71.0719 127 71.4251 127C81.0631 127 90.6221 124.723 99.1503 120.42L99.1586 120.437L100.131 119.921C100.131 119.921 100.156 119.909 100.169 119.901L101.1 119.41L101.091 119.393C109.765 114.608 117.117 107.789 122.458 99.5731L122.474 99.5813L123.023 98.7045C123.023 98.7045 123.039 98.6761 123.048 98.6639L123.621 97.7425L123.605 97.7344C128.621 89.3566 131.439 79.8463 131.792 70.0924H131.8L131.825 69.0208V69.0168L131.846 67.9371L131.834 67.9452ZM110.118 91.0045C108.838 93.0584 107.392 94.9986 105.796 96.809C105.767 96.8455 105.734 96.882 105.704 96.9145C105.609 97.0241 105.509 97.1296 105.409 97.2351C101.881 101.148 97.6624 104.448 92.937 106.944L92.9079 106.961C86.3538 110.423 78.9185 112.249 71.4044 112.249C71.2173 112.249 71.0428 112.249 70.8766 112.249L69.85 112.217C64.925 112.063 60.158 111.145 55.6071 109.485C53.8366 108.84 52.1036 108.085 50.4037 107.216C50.0754 107.05 49.7554 106.871 49.4312 106.693C48.9657 106.441 48.5086 106.181 48.0555 105.909C47.7729 105.743 47.4903 105.581 47.216 105.41L46.2934 104.83C45.3957 104.249 44.4813 103.604 43.5296 102.877C38.4051 98.9602 34.1369 93.9392 31.1819 88.3499C30.866 87.7573 30.5668 87.1525 30.28 86.5477C28.6799 83.1706 27.5204 79.5865 26.8388 75.909C26.3567 73.3072 26.1115 70.6566 26.1115 67.998C26.1115 67.1578 26.1323 66.4149 26.1738 65.7209C26.5728 58.0655 29.0041 50.6416 33.2142 44.2121H33.2184L33.5467 43.725C34.6481 42.0851 35.8575 40.5224 37.1625 39.049C41.0817 34.6246 45.8819 30.9796 51.2765 28.3616C57.5563 25.3092 64.3183 23.7586 71.3836 23.7546H71.4127C75.0451 23.7546 78.5944 24.1605 82.0398 24.9682C85.2316 25.7151 88.3321 26.8151 91.3203 28.2439C91.5572 28.3575 91.7941 28.4671 92.031 28.5848H92.0393C92.6003 28.8689 93.1739 29.1693 93.7433 29.4859L94.2919 29.8066C98.6183 32.2663 102.475 35.408 105.763 39.1464C106.64 40.1368 107.487 41.1881 108.348 42.353C109.304 43.6763 110.168 45.0076 110.912 46.3146C111.186 46.7855 111.448 47.2604 111.702 47.7394C112.113 48.5146 112.491 49.3021 112.853 50.1017C113.834 52.2652 114.644 54.5017 115.255 56.8032C115.396 57.3268 115.525 57.8545 115.646 58.3862C116.361 61.5116 116.718 64.7426 116.718 67.9939C116.718 68.2415 116.718 68.4972 116.71 68.757V68.8179C116.564 76.6721 114.287 84.3396 110.122 90.9964L110.118 91.0045ZM101.756 19.4885C102.479 19.9188 103.169 20.349 103.851 20.7996C109.029 24.1929 113.593 28.3616 117.42 33.1877C118.43 34.446 119.419 35.8099 120.367 37.2387C120.791 37.884 121.207 38.5457 121.606 39.2113L112.284 44.3298C111.639 43.2623 110.924 42.1825 110.143 41.1069C109.241 39.8851 108.352 38.7851 107.433 37.746C104.229 34.1051 100.501 31.004 96.345 28.5077L98.3648 25.1468L101.756 19.4845V19.4885ZM70.3072 21.6195C63.6575 21.7656 57.2696 23.2269 51.289 25.9708L46.5261 16.6026C53.978 13.1443 61.9659 11.3177 70.3072 11.1716V21.6236V21.6195ZM22.1507 37.7176L31.0946 43.4571C27.03 49.8054 24.607 57.0548 24.0376 64.5397L13.3482 64.0039C14.009 54.6722 17.0388 45.6246 22.1507 37.7176ZM38.6129 114.969C30.9699 109.871 24.6361 103.019 20.239 95.1042L29.7397 90.2983C32.8069 95.7739 37.0877 100.697 42.1705 104.582C43.1846 105.353 44.153 106.035 45.1006 106.648L39.3818 115.48C39.1283 115.318 38.8706 115.148 38.6129 114.969ZM71.4085 124.849C71.0885 124.849 70.7893 124.849 70.5108 124.845L70.8849 114.409C71.0511 114.409 71.2257 114.409 71.4085 114.409C78.9269 114.409 86.3704 112.659 93.0076 109.343L98.0822 118.537C89.8781 122.669 80.6766 124.849 71.4044 124.849H71.4085ZM121.709 96.6263L112.566 91.1953C116.406 84.7212 118.576 77.3946 118.879 69.8854L129.577 70.064C129.232 79.4323 126.522 88.5732 121.709 96.6263Z" fill="url(#paint1_linear_1_442)"/>
<path d="M160.521 63.2664V55.8672H166.552V26.0152H160.521V18.616H184.119C186.916 18.616 189.341 19.0838 191.395 20.0193C193.492 20.9123 195.109 22.2093 196.245 23.9103C197.425 25.5687 198.015 27.5674 198.015 29.9062V30.544C198.015 32.5852 197.622 34.2649 196.835 35.5832C196.049 36.8589 195.109 37.8582 194.017 38.5811C192.968 39.2615 191.963 39.7505 191.001 40.0482V41.1963C191.963 41.4515 193.011 41.9405 194.148 42.6634C195.284 43.3438 196.245 44.3431 197.032 45.6614C197.862 46.9796 198.277 48.7019 198.277 50.8281V51.4659C198.277 53.9323 197.687 56.0585 196.507 57.8446C195.327 59.5881 193.689 60.9276 191.591 61.8631C189.537 62.7986 187.134 63.2664 184.381 63.2664H160.521ZM175.204 55.612H183.332C185.211 55.612 186.719 55.1655 187.855 54.2725C189.035 53.3795 189.625 52.1038 189.625 50.4454V49.8075C189.625 48.149 189.057 46.8733 187.921 45.9803C186.784 45.0873 185.255 44.6408 183.332 44.6408H175.204V55.612ZM175.204 36.9865H183.201C184.993 36.9865 186.457 36.54 187.593 35.6469C188.773 34.7539 189.363 33.5207 189.363 31.9473V31.3095C189.363 29.6936 188.795 28.4604 187.658 27.6099C186.522 26.7169 185.036 26.2704 183.201 26.2704H175.204V36.9865Z" fill="url(#paint2_linear_1_442)"/>
<path d="M205.36 63.2664V18.616H214.013V63.2664H205.36Z" fill="url(#paint3_linear_1_442)"/>
<path d="M222.644 63.2664V18.616H239.096L248.207 57.5256H249.387V18.616H257.908V63.2664H241.456L232.345 24.3568H231.165V63.2664H222.644Z" fill="url(#paint4_linear_1_442)"/>
<path d="M282.418 64.1594C279.272 64.1594 276.41 63.479 273.831 62.1182C271.297 60.7149 269.265 58.695 267.736 56.0585C266.25 53.3795 265.507 50.1264 265.507 46.2992V35.5832C265.507 29.8424 267.167 25.4411 270.489 22.3794C273.81 19.2751 278.311 17.723 283.991 17.723C289.629 17.723 293.977 19.1901 297.036 22.1243C300.138 25.0159 301.689 28.9494 301.689 33.9247V34.1799H293.168V33.6696C293.168 32.0962 292.819 30.6716 292.119 29.3959C291.464 28.1202 290.459 27.1208 289.104 26.3979C287.75 25.6325 286.045 25.2498 283.991 25.2498C280.933 25.2498 278.529 26.1641 276.781 27.9926C275.033 29.8211 274.159 32.3088 274.159 35.4556V46.4268C274.159 49.5311 275.033 52.04 276.781 53.9536C278.529 55.8247 280.976 56.7602 284.123 56.7602C287.269 56.7602 289.563 55.9522 291.005 54.3363C292.447 52.7204 293.168 50.6792 293.168 48.2128V47.575H282.287V40.4309H301.689V63.2664H293.693V58.9927H292.513C292.207 59.7156 291.704 60.4811 291.005 61.289C290.35 62.097 289.345 62.7774 287.99 63.3302C286.635 63.883 284.778 64.1594 282.418 64.1594Z" fill="url(#paint5_linear_1_442)"/>
<path d="M327.785 64.1594C322.017 64.1594 317.428 62.6285 314.02 59.5668C310.611 56.4625 308.907 52.04 308.907 46.2992V35.5832C308.907 29.8424 310.611 25.4411 314.02 22.3794C317.428 19.2751 322.017 17.723 327.785 17.723C333.553 17.723 338.141 19.2751 341.55 22.3794C344.958 25.4411 346.663 29.8424 346.663 35.5832V46.2992C346.663 52.04 344.958 56.4625 341.55 59.5668C338.141 62.6285 333.553 64.1594 327.785 64.1594ZM327.785 56.6326C331.018 56.6326 333.531 55.7184 335.323 53.8898C337.114 52.0613 338.01 49.6161 338.01 46.5544V35.328C338.01 32.2663 337.114 29.8211 335.323 27.9926C333.531 26.1641 331.018 25.2498 327.785 25.2498C324.595 25.2498 322.082 26.1641 320.247 27.9926C318.455 29.8211 317.559 32.2663 317.559 35.328V46.5544C317.559 49.6161 318.455 52.0613 320.247 53.8898C322.082 55.7184 324.595 56.6326 327.785 56.6326Z" fill="url(#paint6_linear_1_442)"/>
<path d="M179.268 118.277C173.587 118.277 169.086 116.746 165.765 113.684C162.444 110.58 160.784 106.158 160.784 100.417V89.7008C160.784 83.96 162.444 79.5587 165.765 76.497C169.086 73.3927 173.587 71.8406 179.268 71.8406C184.905 71.8406 189.253 73.3502 192.312 76.3694C195.415 79.3461 196.966 83.4497 196.966 88.6802V89.0629H188.445V88.425C188.445 85.7885 187.68 83.6198 186.151 81.9188C184.665 80.2179 182.371 79.3674 179.268 79.3674C176.209 79.3674 173.806 80.2817 172.058 82.1102C170.31 83.9387 169.436 86.4264 169.436 89.5732V100.544C169.436 103.649 170.31 106.136 172.058 108.007C173.806 109.836 176.209 110.75 179.268 110.75C182.371 110.75 184.665 109.9 186.151 108.199C187.68 106.455 188.445 104.287 188.445 101.693V100.544H196.966V101.437C196.966 106.668 195.415 110.793 192.312 113.812C189.253 116.789 184.905 118.277 179.268 118.277Z" fill="url(#paint7_linear_1_442)"/>
<path d="M204.016 117.384V72.7336H223.943C226.827 72.7336 229.34 73.2226 231.481 74.2007C233.622 75.1787 235.283 76.5608 236.462 78.3468C237.642 80.1328 238.232 82.2378 238.232 84.6616V85.4271C238.232 88.1061 237.577 90.2748 236.266 91.9333C234.955 93.5917 233.338 94.8037 231.415 95.5691V96.7172C233.163 96.8023 234.518 97.3976 235.479 98.5033C236.441 99.5664 236.921 100.991 236.921 102.777V117.384H228.269V103.989C228.269 102.968 227.985 102.139 227.417 101.501C226.892 100.863 225.997 100.544 224.729 100.544H212.669V117.384H204.016ZM212.669 92.8901H223.025C225.079 92.8901 226.674 92.3585 227.81 91.2954C228.99 90.1898 229.58 88.744 229.58 86.9579V86.3201C229.58 84.5341 229.012 83.1095 227.876 82.0464C226.74 80.9408 225.123 80.388 223.025 80.388H212.669V92.8901Z" fill="url(#paint8_linear_1_442)"/>
<path d="M256.078 117.384V102.011L240.478 72.7336H250.113L259.814 91.8695H260.994L270.695 72.7336H280.331L264.731 102.011V117.384H256.078Z" fill="url(#paint9_linear_1_442)"/>
<path d="M285.183 117.384V72.7336H304.061C306.945 72.7336 309.48 73.3077 311.664 74.4558C313.893 75.5615 315.619 77.1349 316.843 79.176C318.11 81.2172 318.744 83.6411 318.744 86.4477V87.3407C318.744 90.1047 318.088 92.5286 316.777 94.6123C315.51 96.6535 313.762 98.2481 311.533 99.3963C309.348 100.502 306.858 101.055 304.061 101.055H293.835V117.384H285.183ZM293.835 93.4004H303.209C305.263 93.4004 306.923 92.8475 308.19 91.7419C309.458 90.6363 310.091 89.1267 310.091 87.2131V86.5752C310.091 84.6616 309.458 83.152 308.19 82.0464C306.923 80.9408 305.263 80.388 303.209 80.388H293.835V93.4004Z" fill="url(#paint10_linear_1_442)"/>
<path d="M335.233 117.384V80.388H321.861V72.7336H357.257V80.388H343.885V117.384H335.233Z" fill="url(#paint11_linear_1_442)"/>
<path d="M379.122 118.277C373.354 118.277 368.766 116.746 365.357 113.684C361.949 110.58 360.244 106.158 360.244 100.417V89.7008C360.244 83.96 361.949 79.5587 365.357 76.497C368.766 73.3927 373.354 71.8406 379.122 71.8406C384.89 71.8406 389.479 73.3927 392.887 76.497C396.296 79.5587 398 83.96 398 89.7008V100.417C398 106.158 396.296 110.58 392.887 113.684C389.479 116.746 384.89 118.277 379.122 118.277ZM379.122 110.75C382.356 110.75 384.869 109.836 386.66 108.007C388.452 106.179 389.348 103.734 389.348 100.672V89.4456C389.348 86.3839 388.452 83.9387 386.66 82.1102C384.869 80.2817 382.356 79.3674 379.122 79.3674C375.932 79.3674 373.419 80.2817 371.584 82.1102C369.792 83.9387 368.897 86.3839 368.897 89.4456V100.672C368.897 103.734 369.792 106.179 371.584 108.007C373.419 109.836 375.932 110.75 379.122 110.75Z" fill="url(#paint12_linear_1_442)"/>
<path d="M51.3472 91.8204V83.9256H57.7558V52.0785H51.3472V44.1837H76.4332C79.4048 44.1837 81.9982 44.6707 84.2051 45.6449C86.412 46.6191 88.1284 48.0032 89.3628 49.7973C90.593 51.5914 91.208 53.7345 91.208 56.2268V56.9087C91.208 59.0884 90.7883 60.8663 89.9529 62.2504C89.1175 63.6345 88.1284 64.702 86.9896 65.4489C85.8509 66.1998 84.7703 66.7316 83.7479 67.0482V68.274C84.7703 68.5459 85.8841 69.0574 87.0936 69.8042C88.303 70.5552 89.3337 71.6308 90.194 73.0393C91.0543 74.4478 91.4824 76.2824 91.4824 78.5514V79.2334C91.4824 81.8636 90.8548 84.1245 89.5997 86.0038C88.3445 87.8872 86.6156 89.3282 84.4087 90.3267C82.2018 91.3252 79.6375 91.8245 76.7075 91.8245H51.343L51.3472 91.8204ZM66.9574 63.7847H75.4565C77.36 63.7847 78.9269 63.3098 80.1612 62.3559C81.3914 61.402 82.0065 60.0869 82.0065 58.4105V57.7286C82.0065 56.0035 81.3997 54.6762 80.1945 53.7467C78.985 52.8172 77.4057 52.3504 75.4565 52.3504H66.9574V63.7847ZM75.5978 83.6536C77.5928 83.6536 79.2095 83.1787 80.4397 82.2249C81.6699 81.271 82.285 79.9112 82.285 78.1415V77.4596C82.285 75.6898 81.6782 74.3301 80.4729 73.3762C79.2635 72.4223 77.6385 71.9474 75.5937 71.9474H66.9532V83.6536H75.5978Z" stroke="url(#paint13_linear_1_442)" stroke-opacity="0.5" stroke-width="0.727526" mask="url(#path-1-outside-1_1_442)"/>
<path d="M131.834 67.9452H131.821C131.817 62.2341 130.965 56.584 129.303 51.1327L129.315 51.1246L128.596 48.8678L128.575 48.8881C127.416 45.58 125.953 42.3814 124.216 39.3534V39.3453L124.074 39.0977C124.041 39.0449 124.008 38.9881 123.979 38.9353L123.53 38.1641H123.522C123.102 37.466 122.67 36.7637 122.221 36.0818C121.24 34.5962 120.209 33.1796 119.162 31.8726C115.193 26.8678 110.455 22.5409 105.085 19.0177C104.366 18.5428 103.635 18.0882 102.87 17.6336V17.6254L102.039 17.1465C101.997 17.1221 101.96 17.1018 101.922 17.0775L100.971 16.5336L100.962 16.5498C92.2928 11.7845 82.5052 9.19483 72.514 9.01624V9H71.4833C71.4584 9 71.4335 9 71.4085 9H70.303V9.01624C61.6168 9.16642 53.3005 11.066 45.5411 14.6745V14.6623L44.7099 15.0642C44.6559 15.0926 44.6019 15.117 44.5437 15.1413L43.5587 15.6203L43.567 15.6365C34.7353 20.1217 27.1505 26.6892 21.5232 34.7342L21.5107 34.7261L20.9538 35.5501C20.9372 35.5745 20.9164 35.5988 20.8998 35.6272L20.293 36.5283L20.3096 36.5364C14.9857 44.7682 11.8354 54.181 11.1538 63.8943H11.1372L11.079 64.9699C11.079 65.0186 11.079 65.0714 11.0748 65.1201L11.0249 66.0496H11.0374C11.0166 66.6991 11 67.3526 11 68.0061C11 77.0902 13.1695 86.1134 17.2715 94.1787L17.259 94.1868L17.7619 95.1326C17.7619 95.1326 17.7661 95.1407 17.7702 95.1447L18.2773 96.0986L18.2898 96.0905C22.8531 104.322 29.428 111.45 37.3661 116.743C37.6487 116.934 37.9314 117.12 38.2098 117.299L38.8748 117.717C38.9662 117.774 39.0576 117.835 39.1491 117.887L39.8722 118.326C39.8972 118.338 39.918 118.354 39.9429 118.366L40.0842 118.452C40.8531 118.906 41.6718 119.369 42.5654 119.848C50.5533 124.09 59.1897 126.464 68.2499 126.915V126.963H69.3305C69.3346 126.963 69.343 126.963 69.3471 126.963L70.4485 127V126.992C70.7519 126.996 71.0719 127 71.4251 127C81.0631 127 90.6221 124.723 99.1503 120.42L99.1586 120.437L100.131 119.921C100.131 119.921 100.156 119.909 100.169 119.901L101.1 119.41L101.091 119.393C109.765 114.608 117.117 107.789 122.458 99.5731L122.474 99.5813L123.023 98.7045C123.023 98.7045 123.039 98.6761 123.048 98.6639L123.621 97.7425L123.605 97.7344C128.621 89.3566 131.439 79.8463 131.792 70.0924H131.8L131.825 69.0208V69.0168L131.846 67.9371L131.834 67.9452ZM110.118 91.0045C108.838 93.0584 107.392 94.9986 105.796 96.809C105.767 96.8455 105.734 96.882 105.704 96.9145C105.609 97.0241 105.509 97.1296 105.409 97.2351C101.881 101.148 97.6624 104.448 92.937 106.944L92.9079 106.961C86.3538 110.423 78.9185 112.249 71.4044 112.249C71.2173 112.249 71.0428 112.249 70.8766 112.249L69.85 112.217C64.925 112.063 60.158 111.145 55.6071 109.485C53.8366 108.84 52.1036 108.085 50.4037 107.216C50.0754 107.05 49.7554 106.871 49.4312 106.693C48.9657 106.441 48.5086 106.181 48.0555 105.909C47.7729 105.743 47.4903 105.581 47.216 105.41L46.2934 104.83C45.3957 104.249 44.4813 103.604 43.5296 102.877C38.4051 98.9602 34.1369 93.9392 31.1819 88.3499C30.866 87.7573 30.5668 87.1525 30.28 86.5477C28.6799 83.1706 27.5204 79.5865 26.8388 75.909C26.3567 73.3072 26.1115 70.6566 26.1115 67.998C26.1115 67.1578 26.1323 66.4149 26.1738 65.7209C26.5728 58.0655 29.0041 50.6416 33.2142 44.2121H33.2184L33.5467 43.725C34.6481 42.0851 35.8575 40.5224 37.1625 39.049C41.0817 34.6246 45.8819 30.9796 51.2765 28.3616C57.5563 25.3092 64.3183 23.7586 71.3836 23.7546H71.4127C75.0451 23.7546 78.5944 24.1605 82.0398 24.9682C85.2316 25.7151 88.3321 26.8151 91.3203 28.2439C91.5572 28.3575 91.7941 28.4671 92.031 28.5848H92.0393C92.6003 28.8689 93.1739 29.1693 93.7433 29.4859L94.2919 29.8066C98.6183 32.2663 102.475 35.408 105.763 39.1464C106.64 40.1368 107.487 41.1881 108.348 42.353C109.304 43.6763 110.168 45.0076 110.912 46.3146C111.186 46.7855 111.448 47.2604 111.702 47.7394C112.113 48.5146 112.491 49.3021 112.853 50.1017C113.834 52.2652 114.644 54.5017 115.255 56.8032C115.396 57.3268 115.525 57.8545 115.646 58.3862C116.361 61.5116 116.718 64.7426 116.718 67.9939C116.718 68.2415 116.718 68.4972 116.71 68.757V68.8179C116.564 76.6721 114.287 84.3396 110.122 90.9964L110.118 91.0045ZM101.756 19.4885C102.479 19.9188 103.169 20.349 103.851 20.7996C109.029 24.1929 113.593 28.3616 117.42 33.1877C118.43 34.446 119.419 35.8099 120.367 37.2387C120.791 37.884 121.207 38.5457 121.606 39.2113L112.284 44.3298C111.639 43.2623 110.924 42.1825 110.143 41.1069C109.241 39.8851 108.352 38.7851 107.433 37.746C104.229 34.1051 100.501 31.004 96.345 28.5077L98.3648 25.1468L101.756 19.4845V19.4885ZM70.3072 21.6195C63.6575 21.7656 57.2696 23.2269 51.289 25.9708L46.5261 16.6026C53.978 13.1443 61.9659 11.3177 70.3072 11.1716V21.6236V21.6195ZM22.1507 37.7176L31.0946 43.4571C27.03 49.8054 24.607 57.0548 24.0376 64.5397L13.3482 64.0039C14.009 54.6722 17.0388 45.6246 22.1507 37.7176ZM38.6129 114.969C30.9699 109.871 24.6361 103.019 20.239 95.1042L29.7397 90.2983C32.8069 95.7739 37.0877 100.697 42.1705 104.582C43.1846 105.353 44.153 106.035 45.1006 106.648L39.3818 115.48C39.1283 115.318 38.8706 115.148 38.6129 114.969ZM71.4085 124.849C71.0885 124.849 70.7893 124.849 70.5108 124.845L70.8849 114.409C71.0511 114.409 71.2257 114.409 71.4085 114.409C78.9269 114.409 86.3704 112.659 93.0076 109.343L98.0822 118.537C89.8781 122.669 80.6766 124.849 71.4044 124.849H71.4085ZM121.709 96.6263L112.566 91.1953C116.406 84.7212 118.576 77.3946 118.879 69.8854L129.577 70.064C129.232 79.4323 126.522 88.5732 121.709 96.6263Z" stroke="url(#paint14_linear_1_442)" stroke-opacity="0.5" stroke-width="0.727526" mask="url(#path-1-outside-1_1_442)"/>
<path d="M160.521 63.2664V55.8672H166.552V26.0152H160.521V18.616H184.119C186.916 18.616 189.341 19.0838 191.395 20.0193C193.492 20.9123 195.109 22.2093 196.245 23.9103C197.425 25.5687 198.015 27.5674 198.015 29.9062V30.544C198.015 32.5852 197.622 34.2649 196.835 35.5832C196.049 36.8589 195.109 37.8582 194.017 38.5811C192.968 39.2615 191.963 39.7505 191.001 40.0482V41.1963C191.963 41.4515 193.011 41.9405 194.148 42.6634C195.284 43.3438 196.245 44.3431 197.032 45.6614C197.862 46.9796 198.277 48.7019 198.277 50.8281V51.4659C198.277 53.9323 197.687 56.0585 196.507 57.8446C195.327 59.5881 193.689 60.9276 191.591 61.8631C189.537 62.7986 187.134 63.2664 184.381 63.2664H160.521ZM175.204 55.612H183.332C185.211 55.612 186.719 55.1655 187.855 54.2725C189.035 53.3795 189.625 52.1038 189.625 50.4454V49.8075C189.625 48.149 189.057 46.8733 187.921 45.9803C186.784 45.0873 185.255 44.6408 183.332 44.6408H175.204V55.612ZM175.204 36.9865H183.201C184.993 36.9865 186.457 36.54 187.593 35.6469C188.773 34.7539 189.363 33.5207 189.363 31.9473V31.3095C189.363 29.6936 188.795 28.4604 187.658 27.6099C186.522 26.7169 185.036 26.2704 183.201 26.2704H175.204V36.9865Z" stroke="url(#paint15_linear_1_442)" stroke-opacity="0.5" stroke-width="0.727526" mask="url(#path-1-outside-1_1_442)"/>
<path d="M205.36 63.2664V18.616H214.013V63.2664H205.36Z" stroke="url(#paint16_linear_1_442)" stroke-opacity="0.5" stroke-width="0.727526" mask="url(#path-1-outside-1_1_442)"/>
<path d="M222.644 63.2664V18.616H239.096L248.207 57.5256H249.387V18.616H257.908V63.2664H241.456L232.345 24.3568H231.165V63.2664H222.644Z" stroke="url(#paint17_linear_1_442)" stroke-opacity="0.5" stroke-width="0.727526" mask="url(#path-1-outside-1_1_442)"/>
<path d="M282.418 64.1594C279.272 64.1594 276.41 63.479 273.831 62.1182C271.297 60.7149 269.265 58.695 267.736 56.0585C266.25 53.3795 265.507 50.1264 265.507 46.2992V35.5832C265.507 29.8424 267.167 25.4411 270.489 22.3794C273.81 19.2751 278.311 17.723 283.991 17.723C289.629 17.723 293.977 19.1901 297.036 22.1243C300.138 25.0159 301.689 28.9494 301.689 33.9247V34.1799H293.168V33.6696C293.168 32.0962 292.819 30.6716 292.119 29.3959C291.464 28.1202 290.459 27.1208 289.104 26.3979C287.75 25.6325 286.045 25.2498 283.991 25.2498C280.933 25.2498 278.529 26.1641 276.781 27.9926C275.033 29.8211 274.159 32.3088 274.159 35.4556V46.4268C274.159 49.5311 275.033 52.04 276.781 53.9536C278.529 55.8247 280.976 56.7602 284.123 56.7602C287.269 56.7602 289.563 55.9522 291.005 54.3363C292.447 52.7204 293.168 50.6792 293.168 48.2128V47.575H282.287V40.4309H301.689V63.2664H293.693V58.9927H292.513C292.207 59.7156 291.704 60.4811 291.005 61.289C290.35 62.097 289.345 62.7774 287.99 63.3302C286.635 63.883 284.778 64.1594 282.418 64.1594Z" stroke="url(#paint18_linear_1_442)" stroke-opacity="0.5" stroke-width="0.727526" mask="url(#path-1-outside-1_1_442)"/>
<path d="M327.785 64.1594C322.017 64.1594 317.428 62.6285 314.02 59.5668C310.611 56.4625 308.907 52.04 308.907 46.2992V35.5832C308.907 29.8424 310.611 25.4411 314.02 22.3794C317.428 19.2751 322.017 17.723 327.785 17.723C333.553 17.723 338.141 19.2751 341.55 22.3794C344.958 25.4411 346.663 29.8424 346.663 35.5832V46.2992C346.663 52.04 344.958 56.4625 341.55 59.5668C338.141 62.6285 333.553 64.1594 327.785 64.1594ZM327.785 56.6326C331.018 56.6326 333.531 55.7184 335.323 53.8898C337.114 52.0613 338.01 49.6161 338.01 46.5544V35.328C338.01 32.2663 337.114 29.8211 335.323 27.9926C333.531 26.1641 331.018 25.2498 327.785 25.2498C324.595 25.2498 322.082 26.1641 320.247 27.9926C318.455 29.8211 317.559 32.2663 317.559 35.328V46.5544C317.559 49.6161 318.455 52.0613 320.247 53.8898C322.082 55.7184 324.595 56.6326 327.785 56.6326Z" stroke="url(#paint19_linear_1_442)" stroke-opacity="0.5" stroke-width="0.727526" mask="url(#path-1-outside-1_1_442)"/>
<path d="M179.268 118.277C173.587 118.277 169.086 116.746 165.765 113.684C162.444 110.58 160.784 106.158 160.784 100.417V89.7008C160.784 83.96 162.444 79.5587 165.765 76.497C169.086 73.3927 173.587 71.8406 179.268 71.8406C184.905 71.8406 189.253 73.3502 192.312 76.3694C195.415 79.3461 196.966 83.4497 196.966 88.6802V89.0629H188.445V88.425C188.445 85.7885 187.68 83.6198 186.151 81.9188C184.665 80.2179 182.371 79.3674 179.268 79.3674C176.209 79.3674 173.806 80.2817 172.058 82.1102C170.31 83.9387 169.436 86.4264 169.436 89.5732V100.544C169.436 103.649 170.31 106.136 172.058 108.007C173.806 109.836 176.209 110.75 179.268 110.75C182.371 110.75 184.665 109.9 186.151 108.199C187.68 106.455 188.445 104.287 188.445 101.693V100.544H196.966V101.437C196.966 106.668 195.415 110.793 192.312 113.812C189.253 116.789 184.905 118.277 179.268 118.277Z" stroke="url(#paint20_linear_1_442)" stroke-opacity="0.5" stroke-width="0.727526" mask="url(#path-1-outside-1_1_442)"/>
<path d="M204.016 117.384V72.7336H223.943C226.827 72.7336 229.34 73.2226 231.481 74.2007C233.622 75.1787 235.283 76.5608 236.462 78.3468C237.642 80.1328 238.232 82.2378 238.232 84.6616V85.4271C238.232 88.1061 237.577 90.2748 236.266 91.9333C234.955 93.5917 233.338 94.8037 231.415 95.5691V96.7172C233.163 96.8023 234.518 97.3976 235.479 98.5033C236.441 99.5664 236.921 100.991 236.921 102.777V117.384H228.269V103.989C228.269 102.968 227.985 102.139 227.417 101.501C226.892 100.863 225.997 100.544 224.729 100.544H212.669V117.384H204.016ZM212.669 92.8901H223.025C225.079 92.8901 226.674 92.3585 227.81 91.2954C228.99 90.1898 229.58 88.744 229.58 86.9579V86.3201C229.58 84.5341 229.012 83.1095 227.876 82.0464C226.74 80.9408 225.123 80.388 223.025 80.388H212.669V92.8901Z" stroke="url(#paint21_linear_1_442)" stroke-opacity="0.5" stroke-width="0.727526" mask="url(#path-1-outside-1_1_442)"/>
<path d="M256.078 117.384V102.011L240.478 72.7336H250.113L259.814 91.8695H260.994L270.695 72.7336H280.331L264.731 102.011V117.384H256.078Z" stroke="url(#paint22_linear_1_442)" stroke-opacity="0.5" stroke-width="0.727526" mask="url(#path-1-outside-1_1_442)"/>
<path d="M285.183 117.384V72.7336H304.061C306.945 72.7336 309.48 73.3077 311.664 74.4558C313.893 75.5615 315.619 77.1349 316.843 79.176C318.11 81.2172 318.744 83.6411 318.744 86.4477V87.3407C318.744 90.1047 318.088 92.5286 316.777 94.6123C315.51 96.6535 313.762 98.2481 311.533 99.3963C309.348 100.502 306.858 101.055 304.061 101.055H293.835V117.384H285.183ZM293.835 93.4004H303.209C305.263 93.4004 306.923 92.8475 308.19 91.7419C309.458 90.6363 310.091 89.1267 310.091 87.2131V86.5752C310.091 84.6616 309.458 83.152 308.19 82.0464C306.923 80.9408 305.263 80.388 303.209 80.388H293.835V93.4004Z" stroke="url(#paint23_linear_1_442)" stroke-opacity="0.5" stroke-width="0.727526" mask="url(#path-1-outside-1_1_442)"/>
<path d="M335.233 117.384V80.388H321.861V72.7336H357.257V80.388H343.885V117.384H335.233Z" stroke="url(#paint24_linear_1_442)" stroke-opacity="0.5" stroke-width="0.727526" mask="url(#path-1-outside-1_1_442)"/>
<path d="M379.122 118.277C373.354 118.277 368.766 116.746 365.357 113.684C361.949 110.58 360.244 106.158 360.244 100.417V89.7008C360.244 83.96 361.949 79.5587 365.357 76.497C368.766 73.3927 373.354 71.8406 379.122 71.8406C384.89 71.8406 389.479 73.3927 392.887 76.497C396.296 79.5587 398 83.96 398 89.7008V100.417C398 106.158 396.296 110.58 392.887 113.684C389.479 116.746 384.89 118.277 379.122 118.277ZM379.122 110.75C382.356 110.75 384.869 109.836 386.66 108.007C388.452 106.179 389.348 103.734 389.348 100.672V89.4456C389.348 86.3839 388.452 83.9387 386.66 82.1102C384.869 80.2817 382.356 79.3674 379.122 79.3674C375.932 79.3674 373.419 80.2817 371.584 82.1102C369.792 83.9387 368.897 86.3839 368.897 89.4456V100.672C368.897 103.734 369.792 106.179 371.584 108.007C373.419 109.836 375.932 110.75 379.122 110.75Z" stroke="url(#paint25_linear_1_442)" stroke-opacity="0.5" stroke-width="0.727526" mask="url(#path-1-outside-1_1_442)"/>
</g>
<defs>
<filter id="filter0_d_1_442" x="0.178043" y="0.906266" width="421.375" height="152.388" filterUnits="userSpaceOnUse" color-interpolation-filters="sRGB">
<feFlood flood-opacity="0" result="BackgroundImageFix"/>
<feColorMatrix in="SourceAlpha" type="matrix" values="0 0 0 0 0 0 0 0 0 0 0 0 0 0 0 0 0 0 127 0" result="hardAlpha"/>
<feOffset dx="6.36585" dy="9.09408"/>
<feGaussianBlur stdDeviation="8.41202"/>
<feColorMatrix type="matrix" values="0 0 0 0 0 0 0 0 0 0 0 0 0 0 0 0 0 0 0.2 0"/>
<feBlend mode="normal" in2="BackgroundImageFix" result="effect1_dropShadow_1_442"/>
<feBlend mode="normal" in="SourceGraphic" in2="effect1_dropShadow_1_442" result="shape"/>
</filter>
<linearGradient id="paint0_linear_1_442" x1="104.573" y1="20.1897" x2="123.513" y2="148.423" gradientUnits="userSpaceOnUse">
<stop stop-color="#C698FF"/>
<stop offset="0.48607" stop-color="#A55EFF"/>
</linearGradient>
<linearGradient id="paint1_linear_1_442" x1="104.573" y1="20.1897" x2="123.513" y2="148.423" gradientUnits="userSpaceOnUse">
<stop stop-color="#C698FF"/>
<stop offset="0.48607" stop-color="#A55EFF"/>
</linearGradient>
<linearGradient id="paint2_linear_1_442" x1="160.987" y1="18.0476" x2="388.663" y2="119.09" gradientUnits="userSpaceOnUse">
<stop stop-color="white"/>
<stop offset="0.505" stop-color="#C0BBAD"/>
<stop offset="1" stop-color="white"/>
</linearGradient>
<linearGradient id="paint3_linear_1_442" x1="160.987" y1="18.0476" x2="388.663" y2="119.09" gradientUnits="userSpaceOnUse">
<stop stop-color="white"/>
<stop offset="0.505" stop-color="#C0BBAD"/>
<stop offset="1" stop-color="white"/>
</linearGradient>
<linearGradient id="paint4_linear_1_442" x1="160.987" y1="18.0476" x2="388.663" y2="119.09" gradientUnits="userSpaceOnUse">
<stop stop-color="white"/>
<stop offset="0.505" stop-color="#C0BBAD"/>
<stop offset="1" stop-color="white"/>
</linearGradient>
<linearGradient id="paint5_linear_1_442" x1="160.987" y1="18.0476" x2="388.663" y2="119.09" gradientUnits="userSpaceOnUse">
<stop stop-color="white"/>
<stop offset="0.505" stop-color="#C0BBAD"/>
<stop offset="1" stop-color="white"/>
</linearGradient>
<linearGradient id="paint6_linear_1_442" x1="160.987" y1="18.0476" x2="388.663" y2="119.09" gradientUnits="userSpaceOnUse">
<stop stop-color="white"/>
<stop offset="0.505" stop-color="#C0BBAD"/>
<stop offset="1" stop-color="white"/>
</linearGradient>
<linearGradient id="paint7_linear_1_442" x1="160.987" y1="18.0476" x2="388.663" y2="119.09" gradientUnits="userSpaceOnUse">
<stop stop-color="white"/>
<stop offset="0.505" stop-color="#C0BBAD"/>
<stop offset="1" stop-color="white"/>
</linearGradient>
<linearGradient id="paint8_linear_1_442" x1="160.987" y1="18.0476" x2="388.663" y2="119.09" gradientUnits="userSpaceOnUse">
<stop stop-color="white"/>
<stop offset="0.505" stop-color="#C0BBAD"/>
<stop offset="1" stop-color="white"/>
</linearGradient>
<linearGradient id="paint9_linear_1_442" x1="160.987" y1="18.0476" x2="388.663" y2="119.09" gradientUnits="userSpaceOnUse">
<stop stop-color="white"/>
<stop offset="0.505" stop-color="#C0BBAD"/>
<stop offset="1" stop-color="white"/>
</linearGradient>
<linearGradient id="paint10_linear_1_442" x1="160.987" y1="18.0476" x2="388.663" y2="119.09" gradientUnits="userSpaceOnUse">
<stop stop-color="white"/>
<stop offset="0.505" stop-color="#C0BBAD"/>
<stop offset="1" stop-color="white"/>
</linearGradient>
<linearGradient id="paint11_linear_1_442" x1="160.987" y1="18.0476" x2="388.663" y2="119.09" gradientUnits="userSpaceOnUse">
<stop stop-color="white"/>
<stop offset="0.505" stop-color="#C0BBAD"/>
<stop offset="1" stop-color="white"/>
</linearGradient>
<linearGradient id="paint12_linear_1_442" x1="160.987" y1="18.0476" x2="388.663" y2="119.09" gradientUnits="userSpaceOnUse">
<stop stop-color="white"/>
<stop offset="0.505" stop-color="#C0BBAD"/>
<stop offset="1" stop-color="white"/>
</linearGradient>
<linearGradient id="paint13_linear_1_442" x1="-4.34067" y1="67.4332" x2="397.999" y2="67.4332" gradientUnits="userSpaceOnUse">
<stop stop-color="#B6973C"/>
<stop offset="1" stop-color="#DABA5B"/>
</linearGradient>
<linearGradient id="paint14_linear_1_442" x1="-4.34067" y1="67.4332" x2="397.999" y2="67.4332" gradientUnits="userSpaceOnUse">
<stop stop-color="#B6973C"/>
<stop offset="1" stop-color="#DABA5B"/>
</linearGradient>
<linearGradient id="paint15_linear_1_442" x1="-4.34067" y1="67.4332" x2="397.999" y2="67.4332" gradientUnits="userSpaceOnUse">
<stop stop-color="#B6973C"/>
<stop offset="1" stop-color="#DABA5B"/>
</linearGradient>
<linearGradient id="paint16_linear_1_442" x1="-4.34067" y1="67.4332" x2="397.999" y2="67.4332" gradientUnits="userSpaceOnUse">
<stop stop-color="#B6973C"/>
<stop offset="1" stop-color="#DABA5B"/>
</linearGradient>
<linearGradient id="paint17_linear_1_442" x1="-4.34067" y1="67.4332" x2="397.999" y2="67.4332" gradientUnits="userSpaceOnUse">
<stop stop-color="#B6973C"/>
<stop offset="1" stop-color="#DABA5B"/>
</linearGradient>
<linearGradient id="paint18_linear_1_442" x1="-4.34067" y1="67.4332" x2="397.999" y2="67.4332" gradientUnits="userSpaceOnUse">
<stop stop-color="#B6973C"/>
<stop offset="1" stop-color="#DABA5B"/>
</linearGradient>
<linearGradient id="paint19_linear_1_442" x1="-4.34067" y1="67.4332" x2="397.999" y2="67.4332" gradientUnits="userSpaceOnUse">
<stop stop-color="#B6973C"/>
<stop offset="1" stop-color="#DABA5B"/>
</linearGradient>
<linearGradient id="paint20_linear_1_442" x1="-4.34067" y1="67.4332" x2="397.999" y2="67.4332" gradientUnits="userSpaceOnUse">
<stop stop-color="#B6973C"/>
<stop offset="1" stop-color="#DABA5B"/>
</linearGradient>
<linearGradient id="paint21_linear_1_442" x1="-4.34067" y1="67.4332" x2="397.999" y2="67.4332" gradientUnits="userSpaceOnUse">
<stop stop-color="#B6973C"/>
<stop offset="1" stop-color="#DABA5B"/>
</linearGradient>
<linearGradient id="paint22_linear_1_442" x1="-4.34067" y1="67.4332" x2="397.999" y2="67.4332" gradientUnits="userSpaceOnUse">
<stop stop-color="#B6973C"/>
<stop offset="1" stop-color="#DABA5B"/>
</linearGradient>
<linearGradient id="paint23_linear_1_442" x1="-4.34067" y1="67.4332" x2="397.999" y2="67.4332" gradientUnits="userSpaceOnUse">
<stop stop-color="#B6973C"/>
<stop offset="1" stop-color="#DABA5B"/>
</linearGradient>
<linearGradient id="paint24_linear_1_442" x1="-4.34067" y1="67.4332" x2="397.999" y2="67.4332" gradientUnits="userSpaceOnUse">
<stop stop-color="#B6973C"/>
<stop offset="1" stop-color="#DABA5B"/>
</linearGradient>
<linearGradient id="paint25_linear_1_442" x1="-4.34067" y1="67.4332" x2="397.999" y2="67.4332" gradientUnits="userSpaceOnUse">
<stop stop-color="#B6973C"/>
<stop offset="1" stop-color="#DABA5B"/>
</linearGradient>
</defs>
</svg>
