<svg width="857" height="351" viewBox="0 0 857 351" fill="none" xmlns="http://www.w3.org/2000/svg">
<g filter="url(#filter0_bdd_488_78)">
<mask id="path-1-inside-1_488_78" fill="white">
<path fill-rule="evenodd" clip-rule="evenodd" d="M40 20C28.9543 20 20 28.9543 20 40V311C20 322.046 28.9543 331 40 331H817C828.046 331 837 322.046 837 311V40C837 28.9543 828.046 20 817 20H40ZM43.1407 48.9983C43.1407 45.1323 46.4373 41.9983 50.5037 41.9983H287C291.067 41.9983 294.363 45.1323 294.363 48.9983V63.9983C294.363 67.8643 291.067 70.9983 287 70.9983H50.5037C46.4373 70.9983 43.1407 67.8643 43.1407 63.9983V48.9983ZM315.4 48.9983C315.4 45.1323 318.697 41.9983 322.763 41.9983H545.552C549.618 41.9983 552.915 45.1323 552.915 48.9983V63.9983C552.915 67.8643 549.618 70.9983 545.552 70.9983H322.763C318.697 70.9983 315.4 67.8643 315.4 63.9983V48.9983ZM581.315 41.9983C577.248 41.9983 573.952 45.1323 573.952 48.9983V63.9983C573.952 67.8643 577.248 70.9983 581.315 70.9983L801.637 71.0002C805.704 71.0002 809 67.8662 809 64.0002V49.0002C809 45.1342 805.704 42.0002 801.637 42.0002L581.315 41.9983Z"/>
</mask>
<path fill-rule="evenodd" clip-rule="evenodd" d="M40 20C28.9543 20 20 28.9543 20 40V311C20 322.046 28.9543 331 40 331H817C828.046 331 837 322.046 837 311V40C837 28.9543 828.046 20 817 20H40ZM43.1407 48.9983C43.1407 45.1323 46.4373 41.9983 50.5037 41.9983H287C291.067 41.9983 294.363 45.1323 294.363 48.9983V63.9983C294.363 67.8643 291.067 70.9983 287 70.9983H50.5037C46.4373 70.9983 43.1407 67.8643 43.1407 63.9983V48.9983ZM315.4 48.9983C315.4 45.1323 318.697 41.9983 322.763 41.9983H545.552C549.618 41.9983 552.915 45.1323 552.915 48.9983V63.9983C552.915 67.8643 549.618 70.9983 545.552 70.9983H322.763C318.697 70.9983 315.4 67.8643 315.4 63.9983V48.9983ZM581.315 41.9983C577.248 41.9983 573.952 45.1323 573.952 48.9983V63.9983C573.952 67.8643 577.248 70.9983 581.315 70.9983L801.637 71.0002C805.704 71.0002 809 67.8662 809 64.0002V49.0002C809 45.1342 805.704 42.0002 801.637 42.0002L581.315 41.9983Z" fill="#B17EFC" fill-opacity="0.1" shape-rendering="crispEdges"/>
<path d="M581.315 41.9983V39.9983V41.9983ZM581.315 70.9983V68.9983V70.9983ZM801.637 71.0002V73.0002V71.0002ZM801.637 42.0002V44.0002V42.0002ZM22 40C22 30.0589 30.0589 22 40 22V18C27.8497 18 18 27.8497 18 40H22ZM22 311V40H18V311H22ZM40 329C30.0589 329 22 320.941 22 311H18C18 323.15 27.8497 333 40 333V329ZM817 329H40V333H817V329ZM835 311C835 320.941 826.941 329 817 329V333C829.15 333 839 323.15 839 311H835ZM835 40V311H839V40H835ZM817 22C826.941 22 835 30.0589 835 40H839C839 27.8497 829.15 18 817 18V22ZM40 22H817V18H40V22ZM50.5037 39.9983C45.4292 39.9983 41.1407 43.9336 41.1407 48.9983H45.1407C45.1407 46.3309 47.4453 43.9983 50.5037 43.9983V39.9983ZM287 39.9983H50.5037V43.9983H287V39.9983ZM296.363 48.9983C296.363 43.9336 292.075 39.9983 287 39.9983V43.9983C290.058 43.9983 292.363 46.3309 292.363 48.9983H296.363ZM296.363 63.9983V48.9983H292.363V63.9983H296.363ZM287 72.9983C292.075 72.9983 296.363 69.0629 296.363 63.9983H292.363C292.363 66.6656 290.058 68.9983 287 68.9983V72.9983ZM50.5037 72.9983H287V68.9983H50.5037V72.9983ZM41.1407 63.9983C41.1407 69.0629 45.4292 72.9983 50.5037 72.9983V68.9983C47.4453 68.9983 45.1407 66.6656 45.1407 63.9983H41.1407ZM41.1407 48.9983V63.9983H45.1407V48.9983H41.1407ZM322.763 39.9983C317.688 39.9983 313.4 43.9336 313.4 48.9983H317.4C317.4 46.3309 319.705 43.9983 322.763 43.9983V39.9983ZM545.552 39.9983H322.763V43.9983H545.552V39.9983ZM554.915 48.9983C554.915 43.9336 550.627 39.9983 545.552 39.9983V43.9983C548.61 43.9983 550.915 46.3309 550.915 48.9983H554.915ZM554.915 63.9983V48.9983H550.915V63.9983H554.915ZM545.552 72.9983C550.627 72.9983 554.915 69.0629 554.915 63.9983H550.915C550.915 66.6656 548.61 68.9983 545.552 68.9983V72.9983ZM322.763 72.9983H545.552V68.9983H322.763V72.9983ZM313.4 63.9983C313.4 69.0629 317.688 72.9983 322.763 72.9983V68.9983C319.705 68.9983 317.4 66.6656 317.4 63.9983H313.4ZM313.4 48.9983V63.9983H317.4V48.9983H313.4ZM575.952 48.9983C575.952 46.3309 578.257 43.9983 581.315 43.9983V39.9983C576.24 39.9983 571.952 43.9336 571.952 48.9983H575.952ZM575.952 63.9983V48.9983H571.952V63.9983H575.952ZM581.315 68.9983C578.257 68.9983 575.952 66.6656 575.952 63.9983H571.952C571.952 69.0629 576.24 72.9983 581.315 72.9983V68.9983ZM801.637 69.0002L581.315 68.9983V72.9983L801.637 73.0002V69.0002ZM807 64.0002C807 66.6676 804.695 69.0002 801.637 69.0002V73.0002C806.712 73.0002 811 69.0648 811 64.0002H807ZM807 49.0002V64.0002H811V49.0002H807ZM801.637 44.0002C804.695 44.0002 807 46.3329 807 49.0002H811C811 43.9356 806.712 40.0002 801.637 40.0002V44.0002ZM581.315 43.9983L801.637 44.0002V40.0002L581.315 39.9983V43.9983Z" fill="url(#paint0_linear_488_78)" fill-opacity="0.3" mask="url(#path-1-inside-1_488_78)"/>
</g>
<defs>
<filter id="filter0_bdd_488_78" x="0" y="0" width="857" height="351" filterUnits="userSpaceOnUse" color-interpolation-filters="sRGB">
<feFlood flood-opacity="0" result="BackgroundImageFix"/>
<feGaussianBlur in="BackgroundImageFix" stdDeviation="4.5"/>
<feComposite in2="SourceAlpha" operator="in" result="effect1_backgroundBlur_488_78"/>
<feColorMatrix in="SourceAlpha" type="matrix" values="0 0 0 0 0 0 0 0 0 0 0 0 0 0 0 0 0 0 127 0" result="hardAlpha"/>
<feOffset dy="7"/>
<feGaussianBlur stdDeviation="4.55"/>
<feComposite in2="hardAlpha" operator="out"/>
<feColorMatrix type="matrix" values="0 0 0 0 0.260143 0 0 0 0 0.343383 0 0 0 0 0.391715 0 0 0 0.1 0"/>
<feBlend mode="normal" in2="effect1_backgroundBlur_488_78" result="effect2_dropShadow_488_78"/>
<feColorMatrix in="SourceAlpha" type="matrix" values="0 0 0 0 0 0 0 0 0 0 0 0 0 0 0 0 0 0 127 0" result="hardAlpha"/>
<feOffset/>
<feGaussianBlur stdDeviation="10"/>
<feComposite in2="hardAlpha" operator="out"/>
<feColorMatrix type="matrix" values="0 0 0 0 0.792157 0 0 0 0 0.388235 0 0 0 0 0.996078 0 0 0 0.2 0"/>
<feBlend mode="normal" in2="effect2_dropShadow_488_78" result="effect3_dropShadow_488_78"/>
<feBlend mode="normal" in="SourceGraphic" in2="effect3_dropShadow_488_78" result="shape"/>
</filter>
<linearGradient id="paint0_linear_488_78" x1="241.81" y1="480.145" x2="6.29128" y2="258.483" gradientUnits="userSpaceOnUse">
<stop stop-color="#8A60E1"/>
<stop offset="1" stop-color="#B682FF"/>
</linearGradient>
</defs>
</svg>
