<svg width="405" height="511" viewBox="0 0 405 511" fill="none" xmlns="http://www.w3.org/2000/svg">
<g filter="url(#filter0_b_446_53)">
<mask id="path-1-inside-1_446_53" fill="white">
<path fill-rule="evenodd" clip-rule="evenodd" d="M22.9656 0C10.2821 0 0 10.2821 0 22.9656L0 487.534C0 500.218 10.2821 510.5 22.9656 510.5L382.034 510.5C394.718 510.5 405 500.218 405 487.534L405 22.9656C405 10.2821 394.718 0 382.034 0L22.9656 0ZM20.5059 25.129C20.5059 21.779 23.6722 19.0634 27.578 19.0634L121.536 19.0634C125.442 19.0634 128.608 21.779 128.608 25.129V38.1267C128.608 41.4767 125.442 44.1923 121.536 44.1923L27.578 44.1923C23.6722 44.1923 20.5059 41.4767 20.5059 38.1267L20.5059 25.129ZM148.814 25.129C148.814 21.779 151.981 19.0634 155.887 19.0634L249.845 19.0634C253.751 19.0634 256.917 21.779 256.917 25.129V38.1267C256.917 41.4767 253.751 44.1923 249.845 44.1923L155.887 44.1923C151.981 44.1923 148.814 41.4767 148.814 38.1267V25.129ZM284.195 19.0634C280.289 19.0634 277.123 21.779 277.123 25.129V38.1267C277.123 41.4767 280.289 44.1923 284.195 44.1923L378.154 44.1923C382.059 44.1923 385.226 41.4767 385.226 38.1267V25.129C385.226 21.779 382.059 19.0634 378.154 19.0634L284.195 19.0634Z"/>
</mask>
<path fill-rule="evenodd" clip-rule="evenodd" d="M22.9656 0C10.2821 0 0 10.2821 0 22.9656L0 487.534C0 500.218 10.2821 510.5 22.9656 510.5L382.034 510.5C394.718 510.5 405 500.218 405 487.534L405 22.9656C405 10.2821 394.718 0 382.034 0L22.9656 0ZM20.5059 25.129C20.5059 21.779 23.6722 19.0634 27.578 19.0634L121.536 19.0634C125.442 19.0634 128.608 21.779 128.608 25.129V38.1267C128.608 41.4767 125.442 44.1923 121.536 44.1923L27.578 44.1923C23.6722 44.1923 20.5059 41.4767 20.5059 38.1267L20.5059 25.129ZM148.814 25.129C148.814 21.779 151.981 19.0634 155.887 19.0634L249.845 19.0634C253.751 19.0634 256.917 21.779 256.917 25.129V38.1267C256.917 41.4767 253.751 44.1923 249.845 44.1923L155.887 44.1923C151.981 44.1923 148.814 41.4767 148.814 38.1267V25.129ZM284.195 19.0634C280.289 19.0634 277.123 21.779 277.123 25.129V38.1267C277.123 41.4767 280.289 44.1923 284.195 44.1923L378.154 44.1923C382.059 44.1923 385.226 41.4767 385.226 38.1267V25.129C385.226 21.779 382.059 19.0634 378.154 19.0634L284.195 19.0634Z" fill="#FF89EF" fill-opacity="0.1"/>
<path d="M2.29656 22.9656C2.29656 11.5504 11.5504 2.29656 22.9656 2.29656V-2.29656C9.01371 -2.29656 -2.29656 9.0137 -2.29656 22.9656H2.29656ZM2.29656 487.534L2.29656 22.9656H-2.29656L-2.29656 487.534H2.29656ZM22.9656 508.203C11.5504 508.203 2.29656 498.95 2.29656 487.534H-2.29656C-2.29656 501.486 9.01372 512.797 22.9656 512.797V508.203ZM382.034 508.203L22.9656 508.203V512.797L382.034 512.797V508.203ZM402.703 487.534C402.703 498.95 393.45 508.203 382.034 508.203V512.797C395.986 512.797 407.297 501.486 407.297 487.534H402.703ZM402.703 22.9656L402.703 487.534H407.297L407.297 22.9656H402.703ZM382.034 2.29656C393.45 2.29656 402.703 11.5504 402.703 22.9656H407.297C407.297 9.01371 395.986 -2.29656 382.034 -2.29656V2.29656ZM22.9656 2.29656L382.034 2.29656V-2.29656L22.9656 -2.29656V2.29656ZM27.578 16.7668C22.7473 16.7668 18.2093 20.1925 18.2093 25.129H22.8024C22.8024 23.3655 24.5971 21.3599 27.578 21.3599V16.7668ZM121.536 16.7668L27.578 16.7668V21.3599L121.536 21.3599V16.7668ZM130.905 25.129C130.905 20.1925 126.367 16.7668 121.536 16.7668V21.3599C124.517 21.3599 126.312 23.3655 126.312 25.129H130.905ZM130.905 38.1267V25.129H126.312V38.1267H130.905ZM121.536 46.4889C126.367 46.4889 130.905 43.0632 130.905 38.1267H126.312C126.312 39.8902 124.517 41.8958 121.536 41.8958L121.536 46.4889ZM27.578 46.4889L121.536 46.4889L121.536 41.8958L27.578 41.8958V46.4889ZM18.2093 38.1267C18.2093 43.0632 22.7473 46.4889 27.578 46.4889V41.8958C24.5971 41.8958 22.8024 39.8902 22.8024 38.1267L18.2093 38.1267ZM18.2093 25.129L18.2093 38.1267L22.8024 38.1267L22.8024 25.129H18.2093ZM155.887 16.7668C151.056 16.7668 146.518 20.1925 146.518 25.129H151.111C151.111 23.3655 152.906 21.3599 155.887 21.3599V16.7668ZM249.845 16.7668L155.887 16.7668V21.3599L249.845 21.3599V16.7668ZM259.214 25.129C259.214 20.1925 254.676 16.7668 249.845 16.7668V21.3599C252.826 21.3599 254.62 23.3655 254.62 25.129H259.214ZM259.214 38.1267V25.129H254.62V38.1267H259.214ZM249.845 46.4889C254.676 46.4889 259.214 43.0632 259.214 38.1267H254.62C254.62 39.8902 252.826 41.8958 249.845 41.8958V46.4889ZM155.887 46.4889L249.845 46.4889V41.8958L155.887 41.8958V46.4889ZM146.518 38.1267C146.518 43.0632 151.056 46.4889 155.887 46.4889V41.8958C152.906 41.8958 151.111 39.8902 151.111 38.1267H146.518ZM146.518 25.129V38.1267H151.111V25.129H146.518ZM279.42 25.129C279.42 23.3655 281.214 21.3599 284.195 21.3599V16.7668C279.364 16.7668 274.827 20.1925 274.827 25.129L279.42 25.129ZM279.42 38.1267V25.129L274.827 25.129V38.1267H279.42ZM284.195 41.8958C281.214 41.8958 279.42 39.8902 279.42 38.1267H274.827C274.827 43.0632 279.364 46.4889 284.195 46.4889V41.8958ZM378.154 41.8958L284.195 41.8958V46.4889L378.154 46.4889V41.8958ZM382.929 38.1267C382.929 39.8902 381.134 41.8958 378.154 41.8958V46.4889C382.984 46.4889 387.522 43.0632 387.522 38.1267H382.929ZM382.929 25.129V38.1267H387.522V25.129L382.929 25.129ZM378.154 21.3599C381.134 21.3599 382.929 23.3656 382.929 25.129L387.522 25.129C387.522 20.1925 382.984 16.7668 378.154 16.7668V21.3599ZM284.195 21.3599L378.154 21.3599V16.7668L284.195 16.7668V21.3599Z" fill="#FF89EF" fill-opacity="0.12" mask="url(#path-1-inside-1_446_53)"/>
</g>
<defs>
<filter id="filter0_b_446_53" x="-10.3345" y="-10.3345" width="425.669" height="531.169" filterUnits="userSpaceOnUse" color-interpolation-filters="sRGB">
<feFlood flood-opacity="0" result="BackgroundImageFix"/>
<feGaussianBlur in="BackgroundImageFix" stdDeviation="5.16727"/>
<feComposite in2="SourceAlpha" operator="in" result="effect1_backgroundBlur_446_53"/>
<feBlend mode="normal" in="SourceGraphic" in2="effect1_backgroundBlur_446_53" result="shape"/>
</filter>
</defs>
</svg>
