<svg width="712" height="395" viewBox="0 0 712 395" fill="none" xmlns="http://www.w3.org/2000/svg">
<g filter="url(#filter0_bdi_829_40)">
<path fill-rule="evenodd" clip-rule="evenodd" d="M703.5 317.036V58.8248C703.5 41.7964 689.696 27.9922 672.667 27.9922H519.252C511.383 27.9922 503.812 24.9836 498.09 19.5826L488.91 10.9194C483.188 5.51838 475.617 2.50977 467.748 2.50977H256.09C248.02 2.50977 240.272 5.67369 234.508 11.3224L226.492 19.1796C220.728 24.8283 212.98 27.9922 204.91 27.9922H39.8326C22.8042 27.9922 9 41.7964 9 58.8248V197V312.715C9 326.402 18.0226 338.451 31.1562 342.302L157.052 379.222C170.324 383.114 184.563 377.692 191.885 365.959L215.414 328.259C221.046 319.235 230.933 313.751 241.57 313.751H490.846C501.859 313.751 512.036 319.625 517.544 329.161L538.08 364.709C545.224 377.076 559.925 382.917 573.609 378.827L681.498 346.577C694.554 342.674 703.5 330.663 703.5 317.036ZM28 53.7227C28 52.0658 29.3432 50.7227 31 50.7227H51C52.6569 50.7227 54 52.0658 54 53.7227V112.723C54 114.38 52.6569 115.723 51 115.723H31C29.3432 115.723 28 114.38 28 112.723V53.7227ZM659 50.7227C657.343 50.7227 656 52.0658 656 53.7227V112.723C656 114.38 657.343 115.723 659 115.723H679C680.657 115.723 682 114.38 682 112.723V53.7227C682 52.0658 680.657 50.7227 679 50.7227H659ZM28 152.723C28 151.066 29.3432 149.723 31 149.723H51C52.6569 149.723 54 151.066 54 152.723V210.723C54 212.379 52.6569 213.723 51 213.723H31C29.3432 213.723 28 212.379 28 210.723V152.723ZM659 149.723C657.343 149.723 656 151.066 656 152.723V210.723C656 212.379 657.343 213.723 659 213.723H679C680.657 213.723 682 212.379 682 210.723V152.723C682 151.066 680.657 149.723 679 149.723H659ZM28 250.723C28 249.066 29.3432 247.723 31 247.723H51C52.6569 247.723 54 249.066 54 250.723V309.723C54 311.379 52.6569 312.723 51 312.723H31C29.3432 312.723 28 311.379 28 309.723V250.723ZM659 247.723C657.343 247.723 656 249.066 656 250.723V309.723C656 311.379 657.343 312.723 659 312.723H679C680.657 312.723 682 311.379 682 309.723V250.723C682 249.066 680.657 247.723 679 247.723H659Z" fill="#89793F" fill-opacity="0.1" shape-rendering="crispEdges"/>
</g>
<defs>
<filter id="filter0_bdi_829_40" x="-21.8326" y="-28.3229" width="756.165" height="439.626" filterUnits="userSpaceOnUse" color-interpolation-filters="sRGB">
<feFlood flood-opacity="0" result="BackgroundImageFix"/>
<feGaussianBlur in="BackgroundImageFix" stdDeviation="15.4163"/>
<feComposite in2="SourceAlpha" operator="in" result="effect1_backgroundBlur_829_40"/>
<feColorMatrix in="SourceAlpha" type="matrix" values="0 0 0 0 0 0 0 0 0 0 0 0 0 0 0 0 0 0 127 0" result="hardAlpha"/>
<feOffset dy="6.19288"/>
<feGaussianBlur stdDeviation="4.02537"/>
<feComposite in2="hardAlpha" operator="out"/>
<feColorMatrix type="matrix" values="0 0 0 0 0.111133 0 0 0 0 0.0900577 0 0 0 0 0.028192 0 0 0 1 0"/>
<feBlend mode="normal" in2="effect1_backgroundBlur_829_40" result="effect2_dropShadow_829_40"/>
<feBlend mode="normal" in="SourceGraphic" in2="effect2_dropShadow_829_40" result="shape"/>
<feColorMatrix in="SourceAlpha" type="matrix" values="0 0 0 0 0 0 0 0 0 0 0 0 0 0 0 0 0 0 127 0" result="hardAlpha"/>
<feOffset dy="4.21944"/>
<feGaussianBlur stdDeviation="3.85024"/>
<feComposite in2="hardAlpha" operator="arithmetic" k2="-1" k3="1"/>
<feColorMatrix type="matrix" values="0 0 0 0 0.903597 0 0 0 0 0.732888 0 0 0 0 0.323186 0 0 0 0.35 0"/>
<feBlend mode="normal" in2="shape" result="effect3_innerShadow_829_40"/>
</filter>
</defs>
</svg>
