<svg width="399" height="399" viewBox="0 0 399 399" fill="none" xmlns="http://www.w3.org/2000/svg">
<path d="M12.5917 190.473L10.5149 190.4L10.575 188.812L2.19616 188.517L2.13603 190.105L0.0592232 190.032L0.294511 183.818C0.322397 183.082 0.477872 182.448 0.760936 181.916C1.0325 181.372 1.41266 180.959 1.90141 180.677C2.37867 180.383 2.94553 180.247 3.60199 180.27L3.78103 180.277C4.35394 180.297 4.82148 180.417 5.18364 180.637C5.53387 180.857 5.80499 181.114 5.997 181.409C6.17751 181.692 6.30475 181.961 6.37872 182.217L6.70098 182.229C6.78218 181.978 6.9299 181.707 7.14413 181.415C7.34643 181.122 7.63651 180.879 8.01436 180.685C8.39264 180.479 8.88017 180.387 9.47696 180.408L9.65599 180.414C10.3483 180.439 10.9392 180.615 11.4287 180.943C11.9063 181.271 12.2659 181.716 12.5076 182.277C12.7497 182.828 12.857 183.465 12.8296 184.19L12.5917 190.473ZM10.5897 186.531L10.6707 184.391C10.6894 183.896 10.5792 183.494 10.3398 183.186C10.1009 182.867 9.74876 182.699 9.28327 182.683L9.10423 182.676C8.63874 182.66 8.275 182.797 8.01303 183.087C7.75105 183.378 7.61047 183.776 7.5913 184.282L7.51026 186.423L10.5897 186.531ZM5.36184 186.347L5.44157 184.241C5.45944 183.769 5.34871 183.379 5.10939 183.071C4.8705 182.752 4.53025 182.584 4.08863 182.569L3.9096 182.563C3.45604 182.547 3.10424 182.684 2.8542 182.975C2.59222 183.265 2.45208 183.652 2.43378 184.135L2.35405 186.241L5.36184 186.347Z" fill="url(#paint0_radial_213_674)" fill-opacity="0.4"/>
<path d="M13.2357 177.817L0.740938 176.781L0.943466 174.509L13.4382 175.545L13.2357 177.817Z" fill="url(#paint1_radial_213_674)" fill-opacity="0.4"/>
<path d="M13.7055 172.415L1.2788 170.788L1.88404 166.492L13.0482 165.531L13.0916 165.223L2.26261 163.804L2.57608 161.579L15.0028 163.207L14.3975 167.503L3.23339 168.464L3.18999 168.772L14.019 170.19L13.7055 172.415Z" fill="url(#paint2_radial_213_674)" fill-opacity="0.4"/>
<path d="M16.6473 156.196C16.4741 157.008 16.1293 157.709 15.613 158.301C15.0874 158.878 14.4198 159.292 13.6102 159.543C12.7914 159.781 11.8556 159.795 10.8027 159.586L7.85458 159.002C6.27525 158.689 5.15585 158.02 4.4964 156.996C3.82525 155.969 3.64607 154.723 3.95886 153.256C4.26924 151.801 4.91225 150.759 5.88789 150.13C6.85424 149.487 8.02179 149.301 9.39054 149.572L9.46073 149.586L8.99155 151.786L8.85117 151.758C8.41831 151.672 8.00716 151.684 7.6177 151.795C7.23064 151.895 6.90038 152.1 6.62692 152.41C6.34175 152.718 6.14263 153.137 6.02954 153.667C5.86112 154.456 5.98031 155.127 6.38711 155.678C6.79392 156.229 7.43017 156.59 8.29588 156.761L11.3142 157.36C12.1682 157.529 12.9065 157.441 13.5292 157.094C14.1402 156.745 14.5323 156.164 14.7055 155.352C14.8788 154.54 14.7828 153.904 14.4177 153.443C14.0525 152.983 13.5307 152.686 12.8521 152.551L12.6767 152.516L12.0776 155.325L10.1122 154.935L11.1805 149.927L17.4627 151.173L17.0224 153.237L15.8467 153.004L15.7817 153.308C15.9637 153.427 16.1466 153.598 16.3304 153.823C16.5166 154.036 16.6484 154.332 16.7259 154.712C16.8034 155.092 16.7772 155.586 16.6473 156.196Z" fill="url(#paint3_radial_213_674)" fill-opacity="0.4"/>
<path d="M19.7092 143.905C19.287 145.37 18.5369 146.424 17.4589 147.067C16.3694 147.707 15.0479 147.819 13.4944 147.403L10.5945 146.626C9.04103 146.21 7.97476 145.458 7.39571 144.37C6.80515 143.28 6.72097 142.002 7.14317 140.538C7.56537 139.073 8.32123 138.021 9.41075 137.381C10.4888 136.737 11.8045 136.624 13.358 137.04L16.2579 137.817C17.8114 138.234 18.8834 138.987 19.474 140.078C20.053 141.165 20.1314 142.441 19.7092 143.905ZM17.6724 143.36C17.9091 142.539 17.8456 141.834 17.4819 141.247C17.1183 140.659 16.5222 140.255 15.6936 140.033L12.6557 139.218C11.8271 138.996 11.0999 139.047 10.4739 139.369C9.84799 139.691 9.41667 140.263 9.17998 141.084C8.94649 141.894 9.00998 142.598 9.37046 143.196C9.73414 143.784 10.3302 144.189 11.1588 144.411L14.1967 145.225C15.0253 145.447 15.7525 145.397 16.3785 145.074C17.0076 144.741 17.4389 144.169 17.6724 143.36Z" fill="url(#paint4_radial_213_674)" fill-opacity="0.4"/>
<path d="M25.395 127.329C24.8378 128.726 23.995 129.684 22.8666 130.204C21.7271 130.719 20.4048 130.698 18.8998 130.14L16.0905 129.099C14.5855 128.541 13.5945 127.705 13.1176 126.59C12.6295 125.472 12.664 124.214 13.2212 122.817C13.7741 121.43 14.5963 120.507 15.6878 120.048C16.7725 119.574 18.0004 119.592 19.3716 120.1L19.472 120.137L18.6362 122.233L18.469 122.171C17.7778 121.915 17.1343 121.892 16.5383 122.103C15.9467 122.303 15.4987 122.785 15.1944 123.548C14.8944 124.3 14.8984 124.98 15.2063 125.588C15.5142 126.196 16.0807 126.652 16.9056 126.958L19.7819 128.024C20.5957 128.326 21.3336 128.352 21.9955 128.104C22.6463 127.852 23.1217 127.35 23.4218 126.597C23.726 125.834 23.7281 125.187 23.4279 124.657C23.1208 124.111 22.6273 123.712 21.9472 123.46L21.6462 123.349L22.482 121.253L22.7161 121.34C24.0873 121.848 25.0165 122.63 25.5038 123.687C25.9841 124.728 25.9479 125.942 25.395 127.329Z" fill="url(#paint5_radial_213_674)" fill-opacity="0.4"/>
<path d="M27.9509 120.522L16.5637 115.457L18.8453 110.689C19.1755 109.999 19.588 109.453 20.0826 109.052C20.5772 108.65 21.1198 108.41 21.7104 108.33C22.301 108.25 22.9053 108.348 23.5235 108.623L23.7187 108.71C24.402 109.014 24.88 109.417 25.1528 109.918C25.4257 110.42 25.5496 110.944 25.5247 111.491L25.8175 111.622C26.0393 111.213 26.3463 110.956 26.7383 110.852C27.1195 110.742 27.5379 110.789 27.9934 110.992L31.7186 112.649L30.7279 114.719L27.3117 113.199C27.0515 113.084 26.8075 113.057 26.5797 113.121C26.357 113.174 26.1731 113.352 26.028 113.656L24.647 116.541L28.9416 118.452L27.9509 120.522ZM22.6949 115.673L23.8808 113.195C24.1159 112.704 24.163 112.262 24.022 111.869C23.8751 111.461 23.5739 111.156 23.1184 110.954L22.9558 110.881C22.5003 110.679 22.0719 110.653 21.6707 110.804C21.2586 110.951 20.9325 111.275 20.6923 111.777L19.5065 114.255L22.6949 115.673Z" fill="url(#paint6_radial_213_674)" fill-opacity="0.4"/>
<path d="M34.6536 107.227L30.8576 105.244L21.5963 105.08L22.8511 102.848L28.8398 103.069L28.9935 102.796L25.5316 98.0795L26.7864 95.8472L31.9844 103.239L35.7804 105.223L34.6536 107.227Z" fill="url(#paint7_radial_213_674)" fill-opacity="0.4"/>
<path d="M38.901 99.8781L28.274 93.4583L31.0136 89.243C31.4321 88.5989 31.9366 88.1155 32.5269 87.7927C33.1135 87.454 33.7384 87.2948 34.4018 87.3151C35.0715 87.3256 35.7404 87.5326 36.4084 87.9361L36.6209 88.0645C37.2788 88.4619 37.7605 88.9568 38.0662 89.5491C38.3681 90.1256 38.494 90.7451 38.4438 91.4079C38.3899 92.0547 38.16 92.6904 37.7541 93.3149L36.2702 95.5983L40.1567 97.9461L38.901 99.8781ZM34.4484 94.4977L35.8087 92.4047C36.1068 91.946 36.2162 91.4958 36.1369 91.0538C36.0577 90.6119 35.7903 90.2533 35.3349 89.9782L35.1831 89.8865C34.7276 89.6114 34.2764 89.5358 33.8293 89.6598C33.3823 89.7838 33.0097 90.0751 32.7117 90.5338L31.3514 92.6268L34.4484 94.4977Z" fill="url(#paint8_radial_213_674)" fill-opacity="0.4"/>
<path d="M46.8476 88.1542L38.3972 82.3245L36.2704 85.19L34.5221 83.9839L40.1518 76.3986L41.9002 77.6047L39.7734 80.4703L48.2238 86.3L46.8476 88.1542Z" fill="url(#paint9_radial_213_674)" fill-opacity="0.4"/>
<path d="M55.0728 78.1308C54.0743 79.3071 52.9472 79.9802 51.6917 80.1501C50.427 80.3127 49.1707 79.9017 47.923 78.9171L45.5938 77.0792C44.3461 76.0946 43.6845 74.9922 43.6091 73.7721C43.5245 72.5446 43.9814 71.3428 44.9799 70.1665C45.9785 68.9903 47.1101 68.3208 48.3749 68.1582C49.6304 67.9883 50.882 68.3956 52.1298 69.3802L54.4589 71.2181C55.7067 72.2027 56.3729 73.3087 56.4575 74.5362C56.5329 75.7564 56.0714 76.9546 55.0728 78.1308ZM53.4369 76.8399C53.9967 76.1805 54.2329 75.5113 54.1457 74.8324C54.0584 74.1534 53.682 73.5514 53.0165 73.0262L50.5765 71.1008C49.911 70.5757 49.2245 70.339 48.5169 70.3907C47.8094 70.4425 47.1757 70.798 46.6159 71.4574C46.0637 72.1079 45.8274 72.7771 45.9071 73.465C45.9944 74.144 46.3707 74.746 47.0362 75.2711L49.4762 77.1965C50.1417 77.7217 50.8282 77.9584 51.5358 77.9066C52.251 77.846 52.8847 77.4904 53.4369 76.8399Z" fill="url(#paint10_radial_213_674)" fill-opacity="0.4"/>
<path d="M61.0635 64.0889C60.4682 64.6873 59.4803 64.7071 58.8597 64.1332C58.2391 63.5593 58.2185 62.6069 58.8137 62.0085C59.409 61.4102 60.3969 61.3903 61.0175 61.9642C61.6381 62.5381 61.6587 63.4906 61.0635 64.0889ZM60.5851 63.6465C60.9199 63.31 60.9077 62.7483 60.5587 62.4254C60.2096 62.1026 59.6269 62.1143 59.2921 62.4509C58.9573 62.7875 58.9694 63.3492 59.3185 63.672C59.6676 63.9948 60.2502 63.9831 60.5851 63.6465Z" fill="url(#paint11_radial_213_674)" fill-opacity="0.4"/>
<path d="M71.2883 60.9021L69.9054 59.4065L71.1358 58.3491L65.5566 52.3149L64.3263 53.3723L62.9434 51.8767L67.7579 47.739C68.3285 47.2486 68.9107 46.9179 69.5046 46.7469C70.0994 46.5596 70.6717 46.5383 71.2214 46.6829C71.7721 46.8112 72.266 47.1118 72.7031 47.5846L72.8223 47.7135C73.2038 48.1261 73.4374 48.5346 73.5233 48.939C73.6013 49.3348 73.5964 49.7015 73.5086 50.0392C73.4218 50.3606 73.3081 50.6357 73.1676 50.8644L73.3822 51.0965C73.626 50.9795 73.9314 50.8945 74.2983 50.8414C74.6572 50.7797 75.0402 50.8131 75.447 50.9417C75.8628 51.0625 76.2693 51.3379 76.6667 51.7677L76.7859 51.8966C77.2469 52.3951 77.5239 52.9284 77.617 53.4963C77.7021 54.0556 77.6181 54.6137 77.365 55.1706C77.1208 55.7198 76.7179 56.2358 76.1562 56.7185L71.2883 60.9021ZM72.8534 56.7804L74.5117 55.3552C74.8951 55.0257 75.1192 54.6711 75.1841 54.2914C75.2579 53.904 75.1399 53.5427 74.8299 53.2074L74.7107 53.0785C74.4007 52.7433 74.0464 52.585 73.6477 52.6037C73.249 52.6224 72.8535 52.8004 72.4612 53.1375L70.8029 54.5627L72.8534 56.7804ZM69.3724 53.0155L71.0039 51.6133C71.3695 51.2991 71.5847 50.9522 71.6496 50.5724C71.7234 50.185 71.6133 49.8323 71.3193 49.5143L71.2001 49.3853C70.898 49.0587 70.5517 48.909 70.1609 48.9364C69.7622 48.9551 69.3756 49.1253 69.0012 49.4471L67.3696 50.8493L69.3724 53.0155Z" fill="url(#paint12_radial_213_674)" fill-opacity="0.4"/>
<path d="M81.2083 52.5892L73.3345 43.1785L75.1752 41.747L83.049 51.1577L81.2083 52.5892Z" fill="url(#paint13_radial_213_674)" fill-opacity="0.4"/>
<path d="M85.5769 49.1769L78.1932 39.4039L81.828 36.8513L90.2752 43.9543L90.5358 43.7712L84.1015 35.2547L85.984 33.9327L93.3677 43.7057L89.7329 46.2583L81.2858 39.1553L81.0251 39.3384L87.4594 47.8549L85.5769 49.1769Z" fill="url(#paint14_radial_213_674)" fill-opacity="0.4"/>
<path d="M99.7547 39.997C99.0269 40.4385 98.263 40.6843 97.463 40.7343C96.6668 40.7685 95.8946 40.5907 95.1464 40.2011C94.4019 39.7957 93.7434 39.1544 93.1709 38.2773L91.5678 35.8213C90.709 34.5057 90.4347 33.2639 90.7449 32.0961C91.0488 30.9185 91.8577 29.9311 93.1718 29.1338C94.4758 28.3426 95.7011 28.0685 96.8476 28.3117C97.9979 28.5389 98.9452 29.2227 99.6895 30.3629L99.7277 30.4214L97.7565 31.6174L97.6802 31.5004C97.4448 31.1399 97.1508 30.8624 96.7983 30.6682C96.4558 30.4678 96.0738 30.3799 95.6523 30.4043C95.2244 30.419 94.7729 30.5705 94.2978 30.8588C93.5902 31.2881 93.171 31.8349 93.0402 32.4993C92.9094 33.1637 93.0794 33.8565 93.5502 34.5777L95.1914 37.0921C95.6558 37.8036 96.2333 38.2559 96.9239 38.4492C97.6082 38.6326 98.3142 38.5036 99.042 38.062C99.7698 37.6204 100.18 37.1132 100.272 36.5405C100.363 35.9678 100.225 35.3988 99.8558 34.8335L99.7604 34.6873L97.2434 36.2145L96.1747 34.5772L100.663 31.854L104.079 37.0875L102.229 38.2099L101.59 37.2305L101.317 37.3961C101.354 37.6047 101.352 37.8506 101.312 38.1339C101.281 38.4111 101.15 38.7081 100.919 39.0249C100.689 39.3418 100.301 39.6658 99.7547 39.997Z" fill="url(#paint15_radial_213_674)" fill-opacity="0.4"/>
<path d="M111.074 33.6201C109.685 34.34 108.377 34.5476 107.149 34.2429C105.916 33.928 104.917 33.086 104.154 31.7169L102.728 29.1612C101.964 27.7921 101.789 26.5298 102.202 25.3741C102.61 24.2084 103.508 23.2656 104.896 22.5456C106.285 21.8257 107.596 21.6231 108.829 21.938C110.057 22.2428 111.053 23.0797 111.816 24.4488L113.242 27.0045C114.006 28.3736 114.184 29.641 113.776 30.8068C113.363 31.9624 112.462 32.9001 111.074 33.6201ZM110.073 31.8251C110.851 31.4214 111.334 30.8898 111.522 30.2301C111.71 29.5704 111.601 28.8754 111.193 28.1453L109.7 25.4679C109.292 24.7377 108.752 24.2664 108.077 24.0539C107.402 23.8415 106.676 23.937 105.898 24.3406C105.13 24.7388 104.646 25.2705 104.448 25.9356C104.26 26.5953 104.37 27.2903 104.777 28.0204L106.27 30.6978C106.678 31.428 107.219 31.8993 107.893 32.1118C108.578 32.3188 109.305 32.2232 110.073 31.8251Z" fill="url(#paint16_radial_213_674)" fill-opacity="0.4"/>
<path d="M127.418 26.1019C125.987 26.6814 124.686 26.7583 123.516 26.3327C122.342 25.8964 121.442 24.9616 120.818 23.5283L119.653 20.8528C119.029 19.4194 118.969 18.1512 119.473 17.0479C119.972 15.9341 120.938 15.0874 122.369 14.5079C123.79 13.9328 125.05 13.8662 126.149 14.308C127.254 14.7347 128.091 15.601 128.66 16.9069L128.702 17.0025L126.554 17.8717L126.485 17.7125C126.198 17.0542 125.77 16.5907 125.199 16.3221C124.64 16.0489 123.969 16.0706 123.188 16.3871C122.417 16.6992 121.91 17.1726 121.669 17.8075C121.427 18.4423 121.477 19.1526 121.819 19.9383L123.012 22.6775C123.35 23.4526 123.841 23.9845 124.485 24.2734C125.124 24.5516 125.829 24.5347 126.6 24.2226C127.382 23.9061 127.867 23.4598 128.057 22.8835C128.253 22.2922 128.21 21.6727 127.928 21.025L127.803 20.7384L129.95 19.8691L130.047 20.0921C130.616 21.398 130.674 22.5861 130.22 23.6564C129.773 24.7117 128.839 25.5268 127.418 26.1019Z" fill="url(#paint17_radial_213_674)" fill-opacity="0.4"/>
<path d="M134.283 23.1685L130.192 11.739L135.34 10.0262C136.086 9.77834 136.78 9.68754 137.422 9.75386C138.065 9.82017 138.621 10.0312 139.089 10.387C139.558 10.7427 139.903 11.2309 140.125 11.8513L140.195 12.0473C140.441 12.733 140.47 13.3445 140.283 13.8817C140.097 14.4189 139.79 14.8681 139.363 15.2293L139.468 15.5232C139.928 15.3948 140.332 15.4307 140.682 15.6311C141.028 15.8206 141.283 16.1439 141.446 16.6011L142.784 20.3402L140.549 21.0839L139.322 17.6551C139.228 17.3938 139.079 17.206 138.874 17.0915C138.68 16.9733 138.419 16.9687 138.092 17.0776L134.975 18.1143L136.518 22.4248L134.283 23.1685ZM134.274 16.1549L136.95 15.2647C137.481 15.0882 137.844 14.815 138.04 14.4452C138.244 14.0608 138.264 13.64 138.1 13.1828L138.042 13.0195C137.878 12.5624 137.601 12.2465 137.21 12.0721C136.815 11.8867 136.347 11.8842 135.805 12.0645L133.129 12.9547L134.274 16.1549Z" fill="url(#paint18_radial_213_674)" fill-opacity="0.4"/>
<path d="M148.874 18.6295L147.731 14.6152L141.443 8.05802L143.983 7.38594L147.962 11.7063L148.273 11.624L149.407 5.95034L151.947 5.27826L150.012 14.0117L151.155 18.026L148.874 18.6295Z" fill="url(#paint19_radial_213_674)" fill-opacity="0.4"/>
<path d="M157.315 16.4978L154.765 4.65968L159.817 3.64799C160.588 3.49342 161.299 3.5098 161.95 3.69711C162.609 3.87081 163.161 4.19546 163.605 4.67106C164.061 5.14432 164.369 5.753 164.529 6.49711L164.58 6.73388C164.738 7.46671 164.701 8.14449 164.469 8.76719C164.247 9.37628 163.87 9.89274 163.339 10.3166C162.818 10.7268 162.183 11.0069 161.434 11.1568L158.698 11.7048L159.631 16.0341L157.315 16.4978ZM158.261 9.67536L160.769 9.17302C161.319 9.06295 161.732 8.8274 162.008 8.46635C162.283 8.1053 162.367 7.6711 162.258 7.16375L162.221 6.99463C162.112 6.48728 161.856 6.121 161.454 5.89578C161.051 5.67056 160.575 5.61298 160.026 5.72305L157.517 6.22539L158.261 9.67536Z" fill="url(#paint20_radial_213_674)" fill-opacity="0.4"/>
<path d="M171.592 13.9119L170.107 3.99669L166.49 4.50042L166.182 2.44899L175.757 1.11559L176.065 3.16702L172.447 3.67075L173.933 13.586L171.592 13.9119Z" fill="url(#paint21_radial_213_674)" fill-opacity="0.4"/>
<path d="M184.789 12.6968C183.217 12.8162 181.933 12.4979 180.937 11.742C179.94 10.9745 179.378 9.81595 179.251 8.26621L179.015 5.37338C178.888 3.82365 179.255 2.60024 180.117 1.70316C180.977 0.794601 182.193 0.280617 183.764 0.161211C185.336 0.0418052 186.621 0.365825 187.618 1.13327C188.614 1.88924 189.176 3.04208 189.302 4.59181L189.539 7.48465C189.665 9.03438 189.299 10.2635 188.438 11.1721C187.577 12.0692 186.361 12.5774 184.789 12.6968ZM184.623 10.6649C185.504 10.598 186.169 10.2992 186.616 9.76848C187.064 9.23777 187.254 8.55916 187.187 7.73263L186.939 4.70205C186.871 3.87552 186.573 3.234 186.045 2.77747C185.516 2.32094 184.812 2.12614 183.931 2.19308C183.061 2.25912 182.397 2.55794 181.937 3.08955C181.489 3.62026 181.299 4.29887 181.367 5.1254L181.614 8.15598C181.682 8.9825 181.98 9.62403 182.509 10.0806C183.049 10.5362 183.754 10.731 184.623 10.6649Z" fill="url(#paint22_radial_213_674)" fill-opacity="0.4"/>
<path d="M199.447 7.14513C198.587 7.14513 197.888 6.4715 197.888 5.64242C197.888 4.81333 198.587 4.1397 199.447 4.1397C200.307 4.1397 201.005 4.81333 201.005 5.64242C201.005 6.4715 200.307 7.14513 199.447 7.14513ZM199.447 6.50605C199.93 6.50605 200.343 6.10878 200.343 5.64242C200.343 5.17606 199.93 4.77879 199.447 4.77879C198.963 4.77879 198.551 5.17606 198.551 5.64242C198.551 6.10878 198.963 6.50605 199.447 6.50605Z" fill="url(#paint23_radial_213_674)" fill-opacity="0.4"/>
<path d="M208.91 12.0539L209.073 10.0564L210.716 10.1805L211.371 2.12165L209.728 1.9975L209.89 0L216.32 0.485801C217.082 0.543377 217.732 0.719585 218.272 1.01443C218.823 1.29869 219.236 1.68211 219.508 2.16469C219.793 2.6367 219.91 3.1884 219.858 3.81979L219.844 3.99199C219.8 4.54303 219.656 4.98838 219.412 5.32807C219.17 5.65627 218.892 5.9067 218.579 6.07937C218.278 6.24146 217.993 6.35279 217.725 6.41335L217.7 6.72331C217.956 6.81198 218.231 6.96559 218.525 7.18414C218.819 7.39121 219.059 7.68078 219.245 8.05285C219.442 8.42582 219.517 8.8993 219.471 9.47329L219.457 9.64549C219.403 10.3113 219.195 10.8732 218.835 11.331C218.475 11.7774 217.999 12.1053 217.407 12.3147C216.827 12.525 216.162 12.6018 215.411 12.5451L208.91 12.0539ZM213.079 10.2898L215.294 10.4571C215.806 10.4958 216.226 10.4063 216.555 10.1886C216.896 9.97181 217.085 9.63956 217.122 9.19185L217.136 9.01965C217.172 8.57193 217.045 8.21584 216.755 7.95137C216.465 7.6869 216.058 7.53488 215.534 7.4953L213.32 7.32796L213.079 10.2898ZM213.488 5.26159L215.667 5.42622C216.155 5.4631 216.563 5.3727 216.893 5.15501C217.234 4.93823 217.422 4.61746 217.456 4.1927L217.47 4.0205C217.506 3.58427 217.378 3.23965 217.087 2.98667C216.797 2.7222 216.402 2.57107 215.902 2.53329L213.723 2.36865L213.488 5.26159Z" fill="url(#paint24_radial_213_674)" fill-opacity="0.4"/>
<path d="M221.999 13.202L223.594 1.20922L225.939 1.49904L224.345 13.4918L221.999 13.202Z" fill="url(#paint25_radial_213_674)" fill-opacity="0.4"/>
<path d="M227.578 13.8797L229.782 1.97713L234.209 2.7393L234.739 13.5336L235.057 13.5882L236.978 3.21604L239.271 3.61079L237.066 15.5133L232.639 14.7511L232.109 3.95686L231.792 3.90221L229.87 14.2744L227.578 13.8797Z" fill="url(#paint26_radial_213_674)" fill-opacity="0.4"/>
<path d="M244.263 17.3901C243.429 17.1894 242.716 16.828 242.125 16.306C241.548 15.7756 241.147 15.1153 240.921 14.325C240.709 13.5263 240.733 12.6242 240.993 11.6187L241.722 8.80325C242.112 7.29497 242.852 6.24457 243.941 5.65205C245.033 5.04835 246.332 4.92773 247.838 5.29018C249.333 5.64985 250.387 6.31271 250.998 7.27878C251.624 8.23646 251.768 9.36889 251.43 10.6761L251.412 10.7431L249.153 10.1994L249.187 10.0654C249.294 9.65197 249.299 9.25539 249.2 8.87561C249.113 8.49861 248.914 8.17193 248.604 7.89557C248.297 7.60804 247.871 7.39875 247.327 7.26771C246.515 7.07254 245.816 7.1594 245.228 7.5283C244.64 7.89719 244.239 8.49501 244.025 9.32177L243.279 12.2043C243.068 13.0199 243.129 13.7348 243.462 14.3491C243.799 14.9522 244.384 15.3541 245.218 15.5549C246.053 15.7556 246.716 15.6897 247.208 15.3572C247.701 15.0246 248.031 14.5343 248.198 13.8863L248.242 13.7187L245.356 13.0245L245.842 11.1475L250.987 12.3854L249.434 18.3851L247.314 17.8748L247.604 16.752L247.292 16.6767C247.161 16.8471 246.976 17.0162 246.736 17.1838C246.507 17.3543 246.194 17.4689 245.797 17.5277C245.4 17.5866 244.889 17.5407 244.263 17.3901Z" fill="url(#paint27_radial_213_674)" fill-opacity="0.4"/>
<path d="M256.872 20.8521C255.372 20.3843 254.311 19.6178 253.689 18.5526C253.071 17.4764 253.01 16.1987 253.507 14.7196L254.433 11.9586C254.929 10.4795 255.753 9.48378 256.904 8.97134C258.058 8.44795 259.386 8.42014 260.886 8.88791C262.386 9.35568 263.445 10.1277 264.063 11.2039C264.685 12.2692 264.747 13.5413 264.251 15.0204L263.325 17.7814C262.829 19.2605 262.003 20.2617 260.849 20.7851C259.698 21.2976 258.372 21.3199 256.872 20.8521ZM257.523 18.9129C258.364 19.1751 259.096 19.1433 259.72 18.8175C260.344 18.4917 260.788 17.9343 261.053 17.1455L262.023 14.253C262.288 13.4642 262.266 12.7615 261.958 12.1451C261.651 11.5287 261.076 11.0894 260.235 10.8272C259.406 10.5685 258.673 10.6003 258.038 10.9225C257.414 11.2484 256.97 11.8057 256.705 12.5946L255.735 15.487C255.47 16.2759 255.492 16.9785 255.799 17.5949C256.119 18.2148 256.693 18.6542 257.523 18.9129Z" fill="url(#paint28_radial_213_674)" fill-opacity="0.4"/>
<path d="M273.814 27.0204C272.389 26.4254 271.431 25.5736 270.94 24.465C270.453 23.3458 270.53 22.073 271.171 20.6465L272.368 17.9837C273.008 16.5573 273.916 15.6375 275.091 15.2246C276.27 14.8011 277.573 14.8868 278.997 15.4818C280.411 16.0722 281.333 16.9027 281.763 17.9733C282.209 19.0379 282.14 20.22 281.556 21.5197L281.513 21.6148L279.376 20.7223L279.448 20.5638C279.742 19.9087 279.792 19.2897 279.598 18.7069C279.416 18.1286 278.935 17.677 278.157 17.352C277.39 17.0317 276.685 17.0071 276.043 17.2784C275.4 17.5497 274.903 18.0763 274.552 18.8582L273.327 21.5844C272.981 22.3557 272.922 23.0654 273.152 23.7134C273.386 24.3508 273.887 24.8297 274.654 25.1501C275.432 25.475 276.102 25.504 276.665 25.2369C277.243 24.9639 277.677 24.5051 277.966 23.8606L278.095 23.5753L280.232 24.4677L280.132 24.6896C279.548 25.9893 278.699 26.8518 277.583 27.277C276.484 27.6963 275.227 27.6108 273.814 27.0204Z" fill="url(#paint29_radial_213_674)" fill-opacity="0.4"/>
<path d="M280.761 29.7663L286.485 19.0084L291.331 21.4051C292.032 21.752 292.581 22.172 292.976 22.6652C293.371 23.1584 293.598 23.6911 293.656 24.2633C293.714 24.8356 293.587 25.4137 293.277 25.9977L293.179 26.1821C292.835 26.8276 292.398 27.2713 291.866 27.5132C291.335 27.7551 290.786 27.8526 290.221 27.8058L290.073 28.0824C290.488 28.3131 290.741 28.6195 290.833 29.0015C290.93 29.3733 290.865 29.7743 290.636 30.2046L288.763 33.724L286.659 32.6833L288.376 29.456C288.507 29.2101 288.544 28.9761 288.488 28.7541C288.442 28.5373 288.265 28.3528 287.957 28.2003L285.024 26.7497L282.865 30.8069L280.761 29.7663ZM286.005 24.9055L288.524 26.1511C289.023 26.3982 289.479 26.4619 289.892 26.3425C290.32 26.218 290.649 25.9406 290.878 25.5103L290.96 25.3566C291.189 24.9263 291.233 24.5147 291.093 24.1219C290.959 23.7189 290.637 23.3912 290.126 23.1389L287.608 21.8933L286.005 24.9055Z" fill="url(#paint30_radial_213_674)" fill-opacity="0.4"/>
<path d="M294.259 36.7772L296.473 33.2034L297.029 24.2889L299.29 25.5908L298.81 31.3503L299.087 31.5097L304.119 28.3716L306.38 29.6735L298.503 34.3724L296.289 37.9463L294.259 36.7772Z" fill="url(#paint31_radial_213_674)" fill-opacity="0.4"/>
<path d="M301.698 41.1751L308.794 31.2061L313.048 34.0208C313.698 34.4509 314.178 34.957 314.488 35.5391C314.814 36.1183 314.953 36.7269 314.905 37.3651C314.866 38.0098 314.623 38.6454 314.177 39.2721L314.035 39.4714C313.596 40.0886 313.063 40.532 312.437 40.8018C311.827 41.0685 311.179 41.1639 310.495 41.088C309.827 41.0091 309.177 40.7611 308.547 40.3441L306.243 38.8194L303.648 42.4652L301.698 41.1751ZM307.459 37.1104L309.572 38.508C310.034 38.8143 310.496 38.9385 310.958 38.8806C311.419 38.8227 311.802 38.5801 312.106 38.1528L312.207 38.0104C312.511 37.5832 312.608 37.1517 312.499 36.7158C312.389 36.28 312.102 35.909 311.64 35.6028L309.527 34.2052L307.459 37.1104Z" fill="url(#paint32_radial_213_674)" fill-opacity="0.4"/>
<path d="M313.516 49.319L319.91 41.4221L317.029 39.2539L318.352 37.62L325.978 43.3594L324.655 44.9932L321.774 42.825L315.38 50.722L313.516 49.319Z" fill="url(#paint33_radial_213_674)" fill-opacity="0.4"/>
<path d="M323.56 57.6602C322.383 56.6493 321.732 55.5356 321.609 54.3191C321.493 53.094 321.971 51.901 323.043 50.7401L325.045 48.5732C326.118 47.4123 327.288 46.821 328.555 46.7993C329.831 46.7689 331.057 47.2592 332.235 48.2701C333.412 49.2811 334.058 50.3991 334.174 51.6242C334.298 52.8407 333.824 54.0294 332.751 55.1902L330.749 57.3572C329.677 58.518 328.503 59.1137 327.228 59.144C325.96 59.1658 324.737 58.6712 323.56 57.6602ZM324.966 56.1382C325.626 56.705 326.31 56.9604 327.017 56.9047C327.724 56.8489 328.364 56.5115 328.936 55.8924L331.033 53.6222C331.605 53.0031 331.879 52.3517 331.855 51.6679C331.831 50.9841 331.489 50.3589 330.829 49.7922C330.177 49.2331 329.494 48.9776 328.778 49.0257C328.07 49.0814 327.431 49.4189 326.859 50.038L324.762 52.3081C324.19 52.9273 323.916 53.5787 323.94 54.2625C323.973 54.9539 324.315 55.5791 324.966 56.1382Z" fill="url(#paint34_radial_213_674)" fill-opacity="0.4"/>
<path d="M337.862 64.0164C337.267 63.418 337.288 62.4656 337.908 61.8917C338.529 61.3178 339.517 61.3377 340.112 61.936C340.707 62.5344 340.687 63.4868 340.066 64.0607C339.446 64.6346 338.458 64.6147 337.862 64.0164ZM338.341 63.574C338.676 63.9106 339.258 63.9223 339.607 63.5995C339.956 63.2767 339.969 62.715 339.634 62.3784C339.299 62.0418 338.716 62.0301 338.367 62.3529C338.018 62.6757 338.006 63.2374 338.341 63.574Z" fill="url(#paint35_radial_213_674)" fill-opacity="0.4"/>
<path d="M340.738 73.9988L342.346 72.7291L343.39 73.9584L349.876 68.8358L348.832 67.6065L350.44 66.3368L354.527 71.147C355.011 71.7171 355.329 72.2918 355.482 72.871C355.651 73.4518 355.649 74.0039 355.477 74.5274C355.321 75.0525 354.989 75.5157 354.48 75.9171L354.342 76.0265C353.898 76.3768 353.465 76.5849 353.043 76.6507C352.629 76.7093 352.249 76.6893 351.903 76.5906C351.574 76.4936 351.293 76.3727 351.062 76.2278L350.813 76.4248C350.924 76.6645 350.999 76.9622 351.039 77.3179C351.088 77.6663 351.037 78.0337 350.887 78.4203C350.744 78.8157 350.442 79.1959 349.98 79.5607L349.842 79.6702C349.306 80.0934 348.742 80.338 348.149 80.404C347.566 80.4627 346.991 80.3585 346.425 80.0915C345.866 79.8333 345.348 79.4237 344.871 78.8625L340.738 73.9988ZM344.944 75.6784L346.352 77.3352C346.678 77.7182 347.036 77.9489 347.427 78.0273C347.825 78.1146 348.204 78.0159 348.565 77.7313L348.703 77.6219C349.064 77.3373 349.242 77.0026 349.24 76.6177C349.237 76.2329 349.069 75.8445 348.736 75.4525L347.328 73.7957L344.944 75.6784ZM348.991 72.4822L350.376 74.1123C350.687 74.4775 351.037 74.6993 351.428 74.7777C351.826 74.865 352.197 74.7736 352.538 74.5036L352.677 74.3942C353.028 74.1169 353.198 73.7894 353.186 73.4119C353.183 73.0271 353.022 72.6476 352.705 72.2734L351.32 70.6433L348.991 72.4822Z" fill="url(#paint36_radial_213_674)" fill-opacity="0.4"/>
<path d="M348.94 83.9012L359.02 76.709L360.427 78.5418L350.346 85.734L348.94 83.9012Z" fill="url(#paint37_radial_213_674)" fill-opacity="0.4"/>
<path d="M352.293 88.2517L362.729 81.5467L365.223 85.1544L357.51 92.9952L357.689 93.254L366.783 87.4111L368.074 89.2796L357.638 95.9846L355.145 92.3769L362.858 84.5361L362.679 84.2773L353.585 90.1202L352.293 88.2517Z" fill="url(#paint38_radial_213_674)" fill-opacity="0.4"/>
<path d="M361.215 102.292C360.788 101.572 360.565 100.826 360.547 100.053C360.545 99.2849 360.761 98.5485 361.196 97.844C361.647 97.1438 362.339 96.5362 363.272 96.0213L365.884 94.5794C367.283 93.8071 368.582 93.5946 369.779 93.9421C370.987 94.284 371.976 95.1044 372.748 96.4035C373.513 97.6926 373.746 98.8843 373.446 99.9786C373.163 101.077 372.415 101.961 371.202 102.631L371.14 102.665L369.983 100.716L370.107 100.648C370.49 100.436 370.79 100.164 371.006 99.8328C371.228 99.5112 371.335 99.1469 371.327 98.7399C371.33 98.3271 371.192 97.8859 370.913 97.4162C370.498 96.7167 369.948 96.2901 369.265 96.1364C368.582 95.9827 367.857 96.1175 367.09 96.5409L364.416 98.0171C363.659 98.4347 363.167 98.9722 362.937 99.6293C362.719 100.281 362.823 100.966 363.25 101.686C363.678 102.405 364.186 102.821 364.776 102.934C365.366 103.046 365.961 102.936 366.562 102.604L366.718 102.519L365.24 100.03L366.981 99.0691L369.616 103.506L364.05 106.578L362.964 104.75L364.006 104.175L363.846 103.905C363.628 103.932 363.373 103.92 363.081 103.869C362.795 103.828 362.493 103.69 362.174 103.454C361.855 103.219 361.536 102.831 361.215 102.292Z" fill="url(#paint39_radial_213_674)" fill-opacity="0.4"/>
<path d="M367.352 113.461C366.664 112.094 366.503 110.825 366.87 109.655C367.248 108.48 368.162 107.553 369.613 106.875L372.321 105.608C373.771 104.929 375.087 104.813 376.267 105.259C377.458 105.701 378.398 106.605 379.086 107.972C379.774 109.34 379.93 110.611 379.552 111.786C379.185 112.956 378.276 113.881 376.825 114.559L374.117 115.826C372.667 116.504 371.346 116.623 370.155 116.182C368.974 115.736 368.04 114.829 367.352 113.461ZM369.254 112.572C369.64 113.338 370.17 113.826 370.846 114.035C371.522 114.243 372.247 114.166 373.021 113.805L375.857 112.478C376.631 112.116 377.142 111.614 377.39 110.973C377.639 110.332 377.57 109.629 377.184 108.862C376.804 108.106 376.273 107.618 375.592 107.399C374.916 107.191 374.191 107.267 373.417 107.629L370.581 108.956C369.807 109.318 369.296 109.819 369.048 110.46C368.805 111.112 368.873 111.815 369.254 112.572Z" fill="url(#paint40_radial_213_674)" fill-opacity="0.4"/>
<path d="M374.461 129.519C373.921 128.116 373.895 126.859 374.385 125.75C374.886 124.637 375.892 123.81 377.404 123.268L380.225 122.258C381.736 121.716 383.053 121.711 384.176 122.243C385.309 122.77 386.146 123.736 386.687 125.139C387.224 126.531 387.24 127.748 386.737 128.788C386.248 129.835 385.316 130.605 383.939 131.099L383.838 131.135L383.026 129.03L383.194 128.97C383.889 128.721 384.387 128.328 384.689 127.789C384.995 127.262 385.001 126.615 384.705 125.849C384.414 125.093 383.945 124.586 383.297 124.326C382.649 124.067 381.911 124.086 381.082 124.383L378.194 125.418C377.377 125.71 376.805 126.161 376.479 126.769C376.164 127.373 376.152 128.053 376.443 128.809C376.738 129.575 377.181 130.062 377.77 130.268C378.375 130.482 379.018 130.466 379.701 130.221L380.004 130.113L380.815 132.218L380.58 132.302C379.203 132.795 377.969 132.801 376.879 132.32C375.804 131.845 374.998 130.911 374.461 129.519Z" fill="url(#paint41_radial_213_674)" fill-opacity="0.4"/>
<path d="M377.215 136.254L389.23 132.79L390.79 137.821C391.016 138.549 391.081 139.221 390.986 139.838C390.89 140.454 390.648 140.98 390.26 141.417C389.872 141.853 389.352 142.166 388.7 142.354L388.494 142.413C387.773 142.621 387.138 142.624 386.589 142.421C386.04 142.219 385.587 141.905 385.231 141.479L384.922 141.568C385.036 142.016 384.982 142.404 384.759 142.732C384.548 143.058 384.203 143.289 383.722 143.428L379.791 144.561L379.114 142.377L382.719 141.338C382.993 141.258 383.194 141.122 383.321 140.929C383.452 140.748 383.468 140.497 383.368 140.177L382.424 137.132L377.892 138.438L377.215 136.254ZM384.484 136.538L385.295 139.153C385.455 139.671 385.723 140.033 386.098 140.237C386.488 140.449 386.923 140.486 387.404 140.347L387.576 140.298C388.056 140.159 388.395 139.905 388.592 139.536C388.801 139.163 388.823 138.712 388.659 138.183L387.848 135.568L384.484 136.538Z" fill="url(#paint42_radial_213_674)" fill-opacity="0.4"/>
<path d="M381.31 150.499L385.518 149.565L392.576 143.781L393.166 146.256L388.523 149.909L388.595 150.212L394.428 151.541L395.018 154.016L386.048 151.787L381.841 152.721L381.31 150.499Z" fill="url(#paint43_radial_213_674)" fill-opacity="0.4"/>
<path d="M383.168 158.719L395.542 156.756L396.38 161.664C396.508 162.414 396.461 163.098 396.24 163.717C396.032 164.345 395.673 164.863 395.161 165.271C394.652 165.69 394.008 165.962 393.231 166.085L392.983 166.124C392.217 166.246 391.516 166.182 390.881 165.933C390.259 165.693 389.739 165.309 389.322 164.78C388.919 164.26 388.655 163.637 388.531 162.909L388.077 160.251L383.551 160.969L383.168 158.719ZM390.198 159.914L390.614 162.351C390.705 162.885 390.932 163.293 391.295 163.574C391.658 163.855 392.104 163.953 392.634 163.869L392.811 163.841C393.342 163.757 393.732 163.526 393.982 163.147C394.232 162.769 394.312 162.313 394.221 161.779L393.805 159.342L390.198 159.914Z" fill="url(#paint44_radial_213_674)" fill-opacity="0.4"/>
<path d="M385.252 172.579L395.589 171.562L395.218 168.057L397.357 167.846L398.339 177.125L396.201 177.336L395.829 173.83L385.492 174.848L385.252 172.579Z" fill="url(#paint45_radial_213_674)" fill-opacity="0.4"/>
<path d="M385.961 185.342C385.903 183.823 386.286 182.6 387.111 181.671C387.948 180.743 389.172 180.25 390.783 180.192L393.791 180.085C395.402 180.028 396.655 180.433 397.549 181.3C398.454 182.166 398.936 183.359 398.994 184.878C399.053 186.397 398.663 187.621 397.826 188.549C397.001 189.477 395.783 189.97 394.172 190.028L391.164 190.135C389.553 190.192 388.294 189.788 387.389 188.921C386.495 188.054 386.019 186.861 385.961 185.342ZM388.073 185.267C388.106 186.118 388.388 186.771 388.919 187.224C389.451 187.678 390.146 187.889 391.005 187.859L394.156 187.747C395.016 187.716 395.693 187.456 396.188 186.966C396.683 186.475 396.914 185.805 396.882 184.953C396.85 184.113 396.568 183.461 396.036 182.996C395.505 182.542 394.809 182.331 393.95 182.361L390.799 182.473C389.94 182.504 389.262 182.764 388.767 183.254C388.272 183.756 388.041 184.427 388.073 185.267Z" fill="url(#paint46_radial_213_674)" fill-opacity="0.4"/>
<path d="M386.408 208.527L388.485 208.6L388.425 210.188L396.804 210.483L396.864 208.895L398.941 208.968L398.706 215.182C398.678 215.918 398.522 216.552 398.239 217.084C397.968 217.628 397.587 218.041 397.099 218.323C396.621 218.617 396.055 218.753 395.398 218.73L395.219 218.723C394.646 218.703 394.179 218.583 393.816 218.363C393.466 218.143 393.195 217.886 393.003 217.591C392.823 217.308 392.695 217.039 392.621 216.783L392.299 216.771C392.218 217.022 392.07 217.293 391.856 217.585C391.654 217.878 391.364 218.121 390.986 218.315C390.607 218.521 390.12 218.613 389.523 218.592L389.344 218.586C388.652 218.561 388.061 218.385 387.571 218.057C387.094 217.729 386.734 217.284 386.492 216.723C386.25 216.172 386.143 215.535 386.171 214.81L386.408 208.527ZM388.41 212.469L388.329 214.609C388.311 215.104 388.421 215.506 388.66 215.814C388.899 216.133 389.251 216.301 389.717 216.317L389.896 216.324C390.361 216.34 390.725 216.203 390.987 215.913C391.249 215.622 391.39 215.224 391.409 214.718L391.49 212.577L388.41 212.469ZM393.638 212.653L393.559 214.759C393.541 215.231 393.651 215.621 393.891 215.929C394.13 216.248 394.47 216.416 394.911 216.431L395.09 216.437C395.544 216.453 395.896 216.316 396.146 216.025C396.408 215.735 396.548 215.348 396.566 214.865L396.646 212.759L393.638 212.653Z" fill="url(#paint47_radial_213_674)" fill-opacity="0.4"/>
<path d="M385.764 221.184L398.259 222.219L398.057 224.491L385.562 223.455L385.764 221.184Z" fill="url(#paint48_radial_213_674)" fill-opacity="0.4"/>
<path d="M385.295 226.585L397.721 228.212L397.116 232.508L385.952 233.469L385.908 233.777L396.737 235.196L396.424 237.421L383.997 235.793L384.603 231.497L395.767 230.536L395.81 230.228L384.981 228.81L385.295 226.585Z" fill="url(#paint49_radial_213_674)" fill-opacity="0.4"/>
<path d="M382.353 242.804C382.526 241.992 382.871 241.291 383.387 240.699C383.913 240.122 384.58 239.708 385.39 239.457C386.209 239.219 387.144 239.205 388.197 239.414L391.145 239.998C392.725 240.312 393.844 240.98 394.504 242.004C395.175 243.031 395.354 244.277 395.041 245.744C394.731 247.199 394.088 248.241 393.112 248.87C392.146 249.513 390.978 249.699 389.61 249.428L389.539 249.414L390.008 247.214L390.149 247.242C390.582 247.328 390.993 247.316 391.382 247.205C391.769 247.105 392.1 246.9 392.373 246.59C392.658 246.282 392.857 245.863 392.971 245.333C393.139 244.544 393.02 243.873 392.613 243.322C392.206 242.771 391.57 242.41 390.704 242.239L387.686 241.64C386.832 241.471 386.094 241.559 385.471 241.906C384.86 242.255 384.468 242.836 384.295 243.648C384.121 244.46 384.217 245.096 384.582 245.557C384.948 246.017 385.469 246.314 386.148 246.449L386.323 246.484L386.922 243.675L388.888 244.065L387.82 249.073L381.537 247.827L381.978 245.763L383.153 245.996L383.218 245.692C383.036 245.573 382.853 245.402 382.67 245.177C382.483 244.964 382.352 244.668 382.274 244.288C382.197 243.908 382.223 243.414 382.353 242.804Z" fill="url(#paint50_radial_213_674)" fill-opacity="0.4"/>
<path d="M379.291 255.095C379.713 253.63 380.463 252.576 381.541 251.933C382.631 251.293 383.952 251.181 385.506 251.597L388.406 252.374C389.959 252.79 391.025 253.542 391.604 254.63C392.195 255.72 392.279 256.998 391.857 258.462C391.435 259.927 390.679 260.979 389.589 261.619C388.511 262.263 387.196 262.376 385.642 261.96L382.742 261.183C381.189 260.766 380.117 260.013 379.526 258.922C378.947 257.835 378.869 256.559 379.291 255.095ZM381.328 255.64C381.091 256.461 381.154 257.166 381.518 257.753C381.882 258.341 382.478 258.745 383.306 258.967L386.344 259.782C387.173 260.004 387.9 259.953 388.526 259.631C389.152 259.309 389.583 258.737 389.82 257.916C390.054 257.106 389.99 256.402 389.63 255.804C389.266 255.216 388.67 254.811 387.841 254.589L384.803 253.775C383.975 253.553 383.248 253.603 382.622 253.926C381.992 254.259 381.561 254.831 381.328 255.64Z" fill="url(#paint51_radial_213_674)" fill-opacity="0.4"/>
<path d="M373.605 271.671C374.162 270.274 375.005 269.316 376.133 268.796C377.273 268.281 378.595 268.302 380.1 268.86L382.91 269.901C384.415 270.459 385.406 271.295 385.882 272.41C386.371 273.528 386.336 274.786 385.779 276.183C385.226 277.57 384.404 278.493 383.312 278.952C382.228 279.426 381 279.408 379.628 278.9L379.528 278.863L380.364 276.767L380.531 276.829C381.222 277.085 381.866 277.108 382.462 276.897C383.053 276.697 383.501 276.215 383.806 275.452C384.106 274.7 384.102 274.02 383.794 273.412C383.486 272.805 382.919 272.348 382.094 272.042L379.218 270.976C378.404 270.674 377.666 270.648 377.005 270.896C376.354 271.148 375.878 271.65 375.578 272.403C375.274 273.166 375.272 273.813 375.572 274.343C375.879 274.889 376.373 275.288 377.053 275.54L377.354 275.651L376.518 277.747L376.284 277.661C374.913 277.152 373.983 276.37 373.496 275.313C373.016 274.272 373.052 273.058 373.605 271.671Z" fill="url(#paint52_radial_213_674)" fill-opacity="0.4"/>
<path d="M371.049 278.478L382.436 283.543L380.155 288.311C379.824 289.001 379.412 289.547 378.917 289.948C378.423 290.35 377.88 290.59 377.29 290.67C376.699 290.75 376.095 290.652 375.477 290.377L375.281 290.29C374.598 289.986 374.12 289.584 373.847 289.082C373.574 288.58 373.45 288.056 373.475 287.509L373.183 287.378C372.961 287.787 372.654 288.044 372.262 288.148C371.88 288.258 371.462 288.211 371.007 288.008L367.281 286.351L368.272 284.281L371.688 285.801C371.949 285.916 372.193 285.943 372.42 285.879C372.643 285.826 372.827 285.648 372.972 285.344L374.353 282.459L370.058 280.548L371.049 278.478ZM376.305 283.327L375.119 285.805C374.884 286.296 374.837 286.738 374.978 287.131C375.125 287.539 375.426 287.844 375.882 288.046L376.044 288.119C376.5 288.321 376.928 288.347 377.329 288.196C377.741 288.049 378.068 287.725 378.308 287.223L379.494 284.745L376.305 283.327Z" fill="url(#paint53_radial_213_674)" fill-opacity="0.4"/>
<path d="M364.346 291.773L368.142 293.756L377.404 293.92L376.149 296.152L370.16 295.931L370.007 296.204L373.468 300.92L372.214 303.153L367.016 295.761L363.22 293.777L364.346 291.773Z" fill="url(#paint54_radial_213_674)" fill-opacity="0.4"/>
<path d="M360.099 299.122L370.726 305.542L367.986 309.757C367.568 310.401 367.063 310.884 366.473 311.207C365.887 311.546 365.262 311.705 364.598 311.685C363.928 311.674 363.26 311.467 362.592 311.064L362.379 310.936C361.721 310.538 361.24 310.043 360.934 309.451C360.632 308.874 360.506 308.255 360.556 307.592C360.61 306.945 360.84 306.31 361.246 305.685L362.73 303.402L358.843 301.054L360.099 299.122ZM364.552 304.502L363.191 306.595C362.893 307.054 362.784 307.504 362.863 307.946C362.942 308.388 363.21 308.747 363.665 309.022L363.817 309.113C364.272 309.389 364.724 309.464 365.171 309.34C365.618 309.216 365.99 308.925 366.288 308.466L367.649 306.373L364.552 304.502Z" fill="url(#paint55_radial_213_674)" fill-opacity="0.4"/>
<path d="M352.152 310.846L360.603 316.676L362.73 313.81L364.478 315.016L358.848 322.601L357.1 321.395L359.227 318.53L350.776 312.7L352.152 310.846Z" fill="url(#paint56_radial_213_674)" fill-opacity="0.4"/>
<path d="M343.927 320.869C344.926 319.693 346.053 319.02 347.308 318.85C348.573 318.687 349.829 319.098 351.077 320.083L353.406 321.921C354.654 322.905 355.315 324.008 355.391 325.228C355.476 326.455 355.019 327.657 354.02 328.834C353.022 330.01 351.89 330.679 350.625 330.842C349.37 331.012 348.118 330.604 346.87 329.62L344.541 327.782C343.293 326.797 342.627 325.691 342.543 324.464C342.467 323.244 342.929 322.045 343.927 320.869ZM345.563 322.16C345.003 322.82 344.767 323.489 344.854 324.168C344.942 324.847 345.318 325.449 345.983 325.974L348.424 327.899C349.089 328.424 349.776 328.661 350.483 328.609C351.191 328.558 351.824 328.202 352.384 327.543C352.936 326.892 353.173 326.223 353.093 325.535C353.006 324.856 352.629 324.254 351.964 323.729L349.524 321.803C348.858 321.278 348.172 321.042 347.464 321.093C346.749 321.154 346.115 321.51 345.563 322.16Z" fill="url(#paint57_radial_213_674)" fill-opacity="0.4"/>
<path d="M337.937 334.911C338.532 334.313 339.52 334.293 340.14 334.867C340.761 335.441 340.782 336.393 340.186 336.991C339.591 337.59 338.603 337.61 337.983 337.036C337.362 336.462 337.341 335.509 337.937 334.911ZM338.415 335.353C338.08 335.69 338.092 336.252 338.441 336.575C338.79 336.897 339.373 336.886 339.708 336.549C340.043 336.213 340.031 335.651 339.682 335.328C339.332 335.005 338.75 335.017 338.415 335.353Z" fill="url(#paint58_radial_213_674)" fill-opacity="0.4"/>
<path d="M327.712 338.098L329.095 339.594L327.864 340.651L333.443 346.685L334.674 345.628L336.057 347.123L331.242 351.261C330.672 351.751 330.089 352.082 329.495 352.253C328.901 352.44 328.328 352.462 327.779 352.317C327.228 352.189 326.734 351.888 326.297 351.415L326.178 351.287C325.796 350.874 325.563 350.465 325.477 350.061C325.399 349.665 325.404 349.299 325.491 348.961C325.578 348.639 325.692 348.364 325.832 348.136L325.618 347.904C325.374 348.021 325.069 348.106 324.702 348.159C324.343 348.22 323.96 348.187 323.553 348.058C323.137 347.937 322.731 347.662 322.333 347.232L322.214 347.103C321.753 346.605 321.476 346.072 321.383 345.504C321.298 344.944 321.382 344.386 321.635 343.829C321.879 343.28 322.282 342.764 322.844 342.281L327.712 338.098ZM326.147 342.22L324.488 343.645C324.105 343.974 323.881 344.329 323.816 344.709C323.742 345.096 323.86 345.457 324.17 345.793L324.289 345.921C324.599 346.257 324.954 346.415 325.352 346.396C325.751 346.378 326.147 346.2 326.539 345.862L328.197 344.437L326.147 342.22ZM329.628 345.985L327.996 347.387C327.631 347.701 327.415 348.048 327.35 348.428C327.277 348.815 327.387 349.168 327.681 349.486L327.8 349.615C328.102 349.941 328.448 350.091 328.839 350.064C329.238 350.045 329.624 349.875 329.999 349.553L331.63 348.151L329.628 345.985Z" fill="url(#paint59_radial_213_674)" fill-opacity="0.4"/>
<path d="M317.792 346.411L325.665 355.822L323.825 357.253L315.951 347.842L317.792 346.411Z" fill="url(#paint60_radial_213_674)" fill-opacity="0.4"/>
<path d="M313.423 349.823L320.807 359.596L317.172 362.149L308.725 355.046L308.464 355.229L314.898 363.745L313.016 365.067L305.632 355.294L309.267 352.742L317.714 359.845L317.975 359.662L311.541 351.145L313.423 349.823Z" fill="url(#paint61_radial_213_674)" fill-opacity="0.4"/>
<path d="M299.245 359.003C299.973 358.561 300.737 358.316 301.537 358.266C302.333 358.232 303.105 358.409 303.854 358.799C304.598 359.204 305.257 359.846 305.829 360.723L307.432 363.179C308.291 364.494 308.565 365.736 308.255 366.904C307.951 368.081 307.142 369.069 305.828 369.866C304.524 370.657 303.299 370.931 302.152 370.688C301.002 370.461 300.055 369.777 299.311 368.637L299.272 368.579L301.243 367.383L301.32 367.5C301.555 367.86 301.849 368.138 302.202 368.332C302.544 368.532 302.926 368.62 303.348 368.596C303.776 368.581 304.227 368.43 304.702 368.141C305.41 367.712 305.829 367.165 305.96 366.501C306.091 365.836 305.921 365.143 305.45 364.422L303.809 361.908C303.344 361.196 302.767 360.744 302.076 360.551C301.392 360.367 300.686 360.496 299.958 360.938C299.23 361.38 298.82 361.887 298.729 362.46C298.637 363.032 298.775 363.601 299.144 364.167L299.24 364.313L301.757 362.786L302.825 364.423L298.337 367.146L294.921 361.912L296.771 360.79L297.41 361.77L297.683 361.604C297.646 361.395 297.648 361.149 297.688 360.866C297.719 360.589 297.85 360.292 298.081 359.975C298.311 359.658 298.699 359.334 299.245 359.003Z" fill="url(#paint62_radial_213_674)" fill-opacity="0.4"/>
<path d="M287.926 365.38C289.315 364.66 290.623 364.452 291.851 364.757C293.084 365.072 294.083 365.914 294.846 367.283L296.272 369.839C297.036 371.208 297.211 372.47 296.798 373.626C296.39 374.792 295.492 375.734 294.104 376.454C292.715 377.174 291.404 377.377 290.171 377.062C288.943 376.757 287.947 375.92 287.184 374.551L285.758 371.996C284.994 370.626 284.816 369.359 285.224 368.193C285.637 367.038 286.538 366.1 287.926 365.38ZM288.927 367.175C288.149 367.579 287.666 368.11 287.478 368.77C287.29 369.43 287.399 370.125 287.807 370.855L289.3 373.532C289.708 374.262 290.249 374.734 290.923 374.946C291.598 375.159 292.324 375.063 293.102 374.659C293.87 374.261 294.354 373.73 294.552 373.064C294.74 372.405 294.63 371.71 294.223 370.98L292.73 368.302C292.322 367.572 291.781 367.101 291.107 366.888C290.422 366.681 289.695 366.777 288.927 367.175Z" fill="url(#paint63_radial_213_674)" fill-opacity="0.4"/>
<path d="M271.582 372.898C273.013 372.319 274.314 372.242 275.484 372.667C276.658 373.104 277.558 374.038 278.182 375.472L279.347 378.147C279.971 379.581 280.031 380.849 279.527 381.952C279.028 383.066 278.062 383.913 276.631 384.492C275.21 385.067 273.95 385.134 272.851 384.692C271.746 384.265 270.909 383.399 270.34 382.093L270.298 381.998L272.446 381.128L272.515 381.288C272.802 381.946 273.23 382.409 273.801 382.678C274.36 382.951 275.031 382.929 275.812 382.613C276.583 382.301 277.09 381.827 277.331 381.193C277.573 380.558 277.523 379.847 277.181 379.062L275.988 376.323C275.65 375.547 275.159 375.016 274.515 374.727C273.876 374.448 273.171 374.465 272.4 374.777C271.618 375.094 271.133 375.54 270.943 376.116C270.747 376.708 270.79 377.327 271.072 377.975L271.197 378.262L269.05 379.131L268.953 378.908C268.384 377.602 268.327 376.414 268.78 375.344C269.227 374.288 270.161 373.473 271.582 372.898Z" fill="url(#paint64_radial_213_674)" fill-opacity="0.4"/>
<path d="M264.717 375.831L268.808 387.261L263.66 388.974C262.914 389.222 262.22 389.312 261.578 389.246C260.935 389.18 260.379 388.969 259.911 388.613C259.442 388.257 259.097 387.769 258.875 387.149L258.805 386.953C258.559 386.267 258.53 385.656 258.717 385.118C258.903 384.581 259.21 384.132 259.637 383.771L259.532 383.477C259.072 383.605 258.668 383.569 258.318 383.369C257.972 383.179 257.718 382.856 257.554 382.399L256.216 378.66L258.451 377.916L259.678 381.345C259.772 381.606 259.921 381.794 260.126 381.909C260.32 382.027 260.581 382.031 260.908 381.922L264.025 380.886L262.482 376.575L264.717 375.831ZM264.726 382.845L262.05 383.735C261.519 383.912 261.156 384.185 260.96 384.555C260.756 384.939 260.736 385.36 260.9 385.817L260.958 385.98C261.122 386.438 261.399 386.753 261.79 386.928C262.185 387.113 262.653 387.116 263.195 386.936L265.871 386.045L264.726 382.845Z" fill="url(#paint65_radial_213_674)" fill-opacity="0.4"/>
<path d="M250.126 380.371L251.269 384.385L257.557 390.942L255.018 391.614L251.038 387.294L250.727 387.376L249.593 393.05L247.053 393.722L248.988 384.988L247.845 380.974L250.126 380.371Z" fill="url(#paint66_radial_213_674)" fill-opacity="0.4"/>
<path d="M241.685 382.502L244.235 394.34L239.183 395.352C238.412 395.507 237.701 395.49 237.05 395.303C236.391 395.129 235.839 394.805 235.395 394.329C234.939 393.856 234.631 393.247 234.471 392.503L234.42 392.266C234.262 391.533 234.299 390.855 234.531 390.233C234.753 389.624 235.13 389.107 235.661 388.683C236.182 388.273 236.817 387.993 237.566 387.843L240.302 387.295L239.369 382.966L241.685 382.502ZM240.739 389.325L238.231 389.827C237.681 389.937 237.268 390.173 236.993 390.534C236.717 390.895 236.633 391.329 236.743 391.836L236.779 392.005C236.888 392.513 237.144 392.879 237.546 393.104C237.949 393.329 238.425 393.387 238.974 393.277L241.483 392.775L240.739 389.325Z" fill="url(#paint67_radial_213_674)" fill-opacity="0.4"/>
<path d="M227.408 385.088L228.893 395.003L232.51 394.5L232.818 396.551L223.243 397.884L222.935 395.833L226.553 395.329L225.067 385.414L227.408 385.088Z" fill="url(#paint68_radial_213_674)" fill-opacity="0.4"/>
<path d="M214.211 386.303C215.783 386.184 217.067 386.502 218.063 387.258C219.06 388.025 219.622 389.184 219.749 390.734L219.985 393.627C220.112 395.176 219.745 396.4 218.883 397.297C218.023 398.205 216.807 398.719 215.236 398.839C213.664 398.958 212.379 398.634 211.382 397.867C210.386 397.111 209.824 395.958 209.698 394.408L209.461 391.515C209.335 389.966 209.702 388.736 210.562 387.828C211.423 386.931 212.639 386.423 214.211 386.303ZM214.377 388.335C213.496 388.402 212.832 388.701 212.384 389.232C211.936 389.762 211.746 390.441 211.813 391.267L212.061 394.298C212.129 395.124 212.427 395.766 212.955 396.223C213.484 396.679 214.188 396.874 215.07 396.807C215.939 396.741 216.603 396.442 217.063 395.91C217.511 395.38 217.701 394.701 217.633 393.875L217.386 390.844C217.318 390.018 217.02 389.376 216.492 388.919C215.951 388.464 215.246 388.269 214.377 388.335Z" fill="url(#paint69_radial_213_674)" fill-opacity="0.4"/>
<path d="M199.553 391.855C200.413 391.855 201.112 392.529 201.112 393.358C201.112 394.187 200.413 394.86 199.553 394.86C198.693 394.86 197.995 394.187 197.995 393.358C197.995 392.529 198.693 391.855 199.553 391.855ZM199.553 392.494C199.07 392.494 198.657 392.891 198.657 393.358C198.657 393.824 199.07 394.221 199.553 394.221C200.037 394.221 200.449 393.824 200.449 393.358C200.449 392.891 200.037 392.494 199.553 392.494Z" fill="url(#paint70_radial_213_674)" fill-opacity="0.4"/>
<path d="M190.09 386.946L189.928 388.944L188.284 388.819L187.629 396.878L189.272 397.003L189.11 399L182.68 398.514C181.918 398.457 181.268 398.28 180.729 397.986C180.177 397.701 179.764 397.318 179.492 396.835C179.207 396.363 179.09 395.812 179.142 395.18L179.156 395.008C179.2 394.457 179.344 394.012 179.588 393.672C179.83 393.344 180.108 393.093 180.421 392.921C180.722 392.759 181.007 392.647 181.275 392.587L181.3 392.277C181.044 392.188 180.769 392.034 180.475 391.816C180.181 391.609 179.941 391.319 179.755 390.947C179.558 390.574 179.483 390.101 179.529 389.527L179.543 389.355C179.597 388.689 179.805 388.127 180.165 387.669C180.525 387.223 181.001 386.895 181.593 386.685C182.173 386.475 182.838 386.398 183.589 386.455L190.09 386.946ZM185.921 388.71L183.706 388.543C183.194 388.504 182.774 388.594 182.445 388.811C182.104 389.028 181.915 389.36 181.878 389.808L181.864 389.98C181.828 390.428 181.955 390.784 182.245 391.049C182.535 391.313 182.942 391.465 183.466 391.505L185.68 391.672L185.921 388.71ZM185.512 393.738L183.333 393.574C182.845 393.537 182.437 393.627 182.107 393.845C181.766 394.062 181.578 394.383 181.544 394.807L181.53 394.98C181.494 395.416 181.622 395.76 181.913 396.013C182.203 396.278 182.598 396.429 183.098 396.467L185.277 396.631L185.512 393.738Z" fill="url(#paint71_radial_213_674)" fill-opacity="0.4"/>
<path d="M177.001 385.798L175.406 397.791L173.061 397.501L174.655 385.508L177.001 385.798Z" fill="url(#paint72_radial_213_674)" fill-opacity="0.4"/>
<path d="M171.422 385.12L169.218 397.023L164.791 396.261L164.261 385.466L163.943 385.412L162.022 395.784L159.729 395.389L161.934 383.487L166.361 384.249L166.891 395.043L167.208 395.098L169.13 384.726L171.422 385.12Z" fill="url(#paint73_radial_213_674)" fill-opacity="0.4"/>
<path d="M154.737 381.61C155.571 381.811 156.284 382.172 156.875 382.694C157.452 383.224 157.853 383.885 158.079 384.675C158.291 385.474 158.267 386.376 158.007 387.381L157.278 390.197C156.888 391.705 156.148 392.755 155.059 393.348C153.967 393.952 152.668 394.072 151.162 393.71C149.667 393.35 148.614 392.687 148.002 391.721C147.376 390.764 147.232 389.631 147.57 388.324L147.588 388.257L149.847 388.801L149.813 388.935C149.706 389.348 149.701 389.745 149.8 390.124C149.887 390.501 150.086 390.828 150.396 391.104C150.703 391.392 151.129 391.601 151.674 391.732C152.485 391.927 153.184 391.841 153.772 391.472C154.36 391.103 154.761 390.505 154.975 389.678L155.721 386.796C155.932 385.98 155.871 385.265 155.538 384.651C155.201 384.048 154.616 383.646 153.782 383.445C152.947 383.244 152.284 383.31 151.792 383.643C151.299 383.975 150.969 384.466 150.802 385.114L150.758 385.281L153.644 385.975L153.158 387.852L148.013 386.615L149.566 380.615L151.686 381.125L151.396 382.248L151.708 382.323C151.839 382.153 152.024 381.984 152.264 381.816C152.493 381.646 152.806 381.531 153.203 381.472C153.6 381.413 154.111 381.459 154.737 381.61Z" fill="url(#paint74_radial_213_674)" fill-opacity="0.4"/>
<path d="M142.128 378.148C143.628 378.616 144.689 379.382 145.311 380.447C145.929 381.524 145.99 382.801 145.493 384.28L144.567 387.041C144.071 388.52 143.247 389.516 142.096 390.029C140.942 390.552 139.614 390.58 138.114 390.112C136.614 389.644 135.555 388.872 134.937 387.796C134.315 386.731 134.253 385.459 134.749 383.98L135.675 381.219C136.171 379.74 136.997 378.738 138.151 378.215C139.302 377.702 140.628 377.68 142.128 378.148ZM141.477 380.087C140.636 379.825 139.904 379.857 139.28 380.183C138.656 380.508 138.212 381.066 137.947 381.855L136.977 384.747C136.712 385.536 136.734 386.238 137.042 386.855C137.349 387.471 137.924 387.911 138.765 388.173C139.594 388.432 140.327 388.4 140.962 388.077C141.586 387.752 142.03 387.194 142.295 386.405L143.265 383.513C143.53 382.724 143.508 382.022 143.201 381.405C142.881 380.785 142.307 380.346 141.477 380.087Z" fill="url(#paint75_radial_213_674)" fill-opacity="0.4"/>
<path d="M125.187 371.98C126.611 372.575 127.569 373.426 128.06 374.535C128.547 375.654 128.47 376.927 127.829 378.354L126.632 381.016C125.992 382.443 125.084 383.362 123.909 383.775C122.73 384.199 121.427 384.113 120.003 383.518C118.589 382.928 117.667 382.097 117.237 381.027C116.791 379.962 116.86 378.78 117.444 377.48L117.487 377.385L119.624 378.278L119.553 378.436C119.258 379.091 119.208 379.71 119.402 380.293C119.584 380.871 120.065 381.323 120.843 381.648C121.61 381.968 122.315 381.993 122.957 381.722C123.6 381.45 124.097 380.924 124.448 380.142L125.673 377.416C126.019 376.644 126.078 375.935 125.848 375.287C125.614 374.649 125.113 374.17 124.346 373.85C123.568 373.525 122.898 373.496 122.335 373.763C121.757 374.036 121.323 374.495 121.034 375.139L120.905 375.425L118.768 374.532L118.868 374.31C119.452 373.011 120.301 372.148 121.417 371.723C122.516 371.304 123.773 371.389 125.187 371.98Z" fill="url(#paint76_radial_213_674)" fill-opacity="0.4"/>
<path d="M118.239 369.234L112.515 379.992L107.669 377.595C106.968 377.248 106.419 376.828 106.024 376.335C105.629 375.842 105.402 375.309 105.344 374.737C105.286 374.164 105.413 373.586 105.723 373.002L105.821 372.818C106.165 372.172 106.602 371.729 107.134 371.487C107.665 371.245 108.214 371.147 108.779 371.194L108.927 370.918C108.512 370.687 108.259 370.381 108.167 369.999C108.07 369.627 108.135 369.226 108.364 368.795L110.237 365.276L112.341 366.317L110.624 369.544C110.493 369.79 110.456 370.024 110.512 370.246C110.558 370.463 110.735 370.647 111.043 370.8L113.976 372.25L116.135 368.193L118.239 369.234ZM112.995 374.095L110.476 372.849C109.977 372.602 109.521 372.538 109.108 372.658C108.68 372.782 108.351 373.059 108.122 373.49L108.04 373.643C107.811 374.074 107.767 374.485 107.907 374.878C108.041 375.281 108.363 375.609 108.874 375.861L111.392 377.107L112.995 374.095Z" fill="url(#paint77_radial_213_674)" fill-opacity="0.4"/>
<path d="M104.741 362.223L102.527 365.797L101.972 374.711L99.7105 373.409L100.19 367.65L99.913 367.49L94.8808 370.628L92.6197 369.326L100.497 364.628L102.711 361.054L104.741 362.223Z" fill="url(#paint78_radial_213_674)" fill-opacity="0.4"/>
<path d="M97.3023 357.825L90.2062 367.794L85.952 364.979C85.302 364.549 84.8221 364.043 84.5122 363.461C84.1857 362.882 84.0468 362.273 84.0954 361.635C84.1342 360.99 84.3767 360.355 84.8227 359.728L84.9646 359.529C85.4039 358.911 85.9368 358.468 86.5634 358.198C87.1734 357.931 87.8207 357.836 88.5054 357.912C89.1735 357.991 89.8227 358.239 90.453 358.656L92.7573 360.181L95.3524 356.535L97.3023 357.825ZM91.5408 361.89L89.4285 360.492C88.9657 360.186 88.5036 360.062 88.0423 360.119C87.581 360.177 87.1983 360.42 86.8942 360.847L86.7928 360.99C86.4887 361.417 86.3916 361.848 86.5014 362.284C86.6113 362.72 86.8977 363.091 87.3605 363.397L89.4728 364.795L91.5408 361.89Z" fill="url(#paint79_radial_213_674)" fill-opacity="0.4"/>
<path d="M85.484 349.681L79.0901 357.578L81.9711 359.746L80.6482 361.38L73.0222 355.641L74.3451 354.007L77.226 356.175L83.6199 348.278L85.484 349.681Z" fill="url(#paint80_radial_213_674)" fill-opacity="0.4"/>
<path d="M75.4399 341.34C76.6172 342.351 77.2677 343.464 77.3915 344.681C77.5073 345.906 77.029 347.099 75.9566 348.26L73.9548 350.427C72.8824 351.588 71.7124 352.179 70.4448 352.201C69.1692 352.231 67.9428 351.741 66.7655 350.73C65.5881 349.719 64.9416 348.601 64.8258 347.376C64.702 346.159 65.1764 344.971 66.2488 343.81L68.2505 341.643C69.3229 340.482 70.4969 339.886 71.7725 339.856C73.0401 339.834 74.2626 340.329 75.4399 341.34ZM74.0339 342.862C73.3739 342.295 72.6902 342.04 71.983 342.095C71.2757 342.151 70.6361 342.488 70.0642 343.108L67.9671 345.378C67.3951 345.997 67.1212 346.648 67.1453 347.332C67.1694 348.016 67.5115 348.641 68.1715 349.208C68.8226 349.767 69.5062 350.022 70.2224 349.974C70.9296 349.919 71.5692 349.581 72.1412 348.962L74.2383 346.692C74.8102 346.073 75.0841 345.421 75.06 344.737C75.027 344.046 74.685 343.421 74.0339 342.862Z" fill="url(#paint81_radial_213_674)" fill-opacity="0.4"/>
<path d="M61.1376 334.984C61.7329 335.582 61.7123 336.534 61.0917 337.108C60.471 337.682 59.4831 337.662 58.8879 337.064C58.2926 336.466 58.3132 335.513 58.9339 334.939C59.5545 334.365 60.5424 334.385 61.1376 334.984ZM60.6592 335.426C60.3244 335.089 59.7418 335.078 59.3927 335.401C59.0436 335.723 59.0315 336.285 59.3663 336.622C59.7011 336.958 60.2837 336.97 60.6328 336.647C60.9819 336.324 60.9941 335.763 60.6592 335.426Z" fill="url(#paint82_radial_213_674)" fill-opacity="0.4"/>
<path d="M58.2618 325.001L56.6541 326.271L55.6097 325.042L49.1237 330.164L50.1682 331.393L48.5605 332.663L44.4734 327.853C43.989 327.283 43.6706 326.708 43.5181 326.129C43.3488 325.548 43.3506 324.996 43.5234 324.473C43.6794 323.947 44.0114 323.484 44.5196 323.083L44.6582 322.973C45.1017 322.623 45.5347 322.415 45.9574 322.349C46.3708 322.291 46.7506 322.311 47.0969 322.409C47.4264 322.506 47.7067 322.627 47.9379 322.772L48.1874 322.575C48.0763 322.335 48.0009 322.038 47.9612 321.682C47.9122 321.334 47.9628 320.966 48.113 320.58C48.2556 320.184 48.5579 319.804 49.0199 319.439L49.1585 319.33C49.6944 318.907 50.2585 318.662 50.8509 318.596C51.4341 318.537 52.0089 318.641 52.5755 318.909C53.1345 319.167 53.6524 319.576 54.1292 320.138L58.2618 325.001ZM54.0556 323.322L52.6478 321.665C52.3224 321.282 51.9642 321.051 51.5734 320.973C51.175 320.885 50.7957 320.984 50.4354 321.269L50.2968 321.378C49.9364 321.663 49.7576 321.997 49.7604 322.382C49.7632 322.767 49.9311 323.155 50.2641 323.547L51.6719 325.204L54.0556 323.322ZM50.0088 326.518L48.6237 324.888C48.3134 324.522 47.9628 324.301 47.572 324.222C47.1736 324.135 46.8035 324.226 46.4617 324.496L46.3231 324.606C45.972 324.883 45.8024 325.211 45.8144 325.588C45.8172 325.973 45.9775 326.352 46.2954 326.727L47.6805 328.357L50.0088 326.518Z" fill="url(#paint83_radial_213_674)" fill-opacity="0.4"/>
<path d="M50.0605 315.099L39.9798 322.291L38.573 320.458L48.6538 313.266L50.0605 315.099Z" fill="url(#paint84_radial_213_674)" fill-opacity="0.4"/>
<path d="M46.7066 310.748L36.2708 317.453L33.7771 313.846L41.4902 306.005L41.3114 305.746L32.2173 311.589L30.9257 309.72L41.3616 303.015L43.8553 306.623L36.1421 314.464L36.321 314.723L45.4151 308.88L46.7066 310.748Z" fill="url(#paint85_radial_213_674)" fill-opacity="0.4"/>
<path d="M37.7846 296.708C38.2119 297.428 38.4348 298.174 38.4532 298.947C38.4554 299.715 38.239 300.452 37.8041 301.156C37.3528 301.856 36.6608 302.464 35.7279 302.979L33.116 304.421C31.7167 305.193 30.4184 305.405 29.2211 305.058C28.0135 304.716 27.0239 303.896 26.2524 302.596C25.4869 301.307 25.254 300.116 25.5538 299.021C25.8373 297.923 26.5854 297.039 27.7981 296.369L27.8603 296.335L29.0175 298.284L28.8931 298.352C28.5096 298.564 28.2098 298.836 27.9938 299.167C27.7719 299.489 27.6648 299.853 27.6726 300.26C27.67 300.673 27.8081 301.114 28.087 301.584C28.5024 302.283 29.0517 302.71 29.7347 302.864C30.4178 303.017 31.1429 302.882 31.9099 302.459L34.584 300.983C35.3407 300.565 35.8335 300.028 36.0626 299.371C36.2813 298.719 36.177 298.034 35.7497 297.314C35.3224 296.595 34.8139 296.179 34.2242 296.066C33.6345 295.954 33.0391 296.064 32.4379 296.396L32.2824 296.481L33.7601 298.97L32.0188 299.931L29.3839 295.494L34.9499 292.422L36.0359 294.25L34.9942 294.825L35.1544 295.095C35.3722 295.068 35.627 295.08 35.9189 295.131C36.2048 295.172 36.5072 295.31 36.8259 295.546C37.1446 295.781 37.4642 296.169 37.7846 296.708Z" fill="url(#paint86_radial_213_674)" fill-opacity="0.4"/>
<path d="M31.6482 285.539C32.3363 286.906 32.4969 288.175 32.1299 289.345C31.7521 290.52 30.8379 291.447 29.3872 292.125L26.6793 293.392C25.2286 294.071 23.9131 294.187 22.7328 293.741C21.5417 293.299 20.6021 292.395 19.9139 291.028C19.2257 289.66 19.0705 288.389 19.4483 287.214C19.8153 286.044 20.7242 285.119 22.1748 284.441L24.8827 283.174C26.3334 282.496 27.6543 282.377 28.8454 282.818C30.0257 283.264 30.96 284.171 31.6482 285.539ZM29.7462 286.428C29.3604 285.662 28.8296 285.174 28.1537 284.965C27.4779 284.757 26.7532 284.833 25.9795 285.195L23.1426 286.522C22.3689 286.884 21.8579 287.386 21.6096 288.027C21.3613 288.667 21.4301 289.371 21.8159 290.138C22.1965 290.894 22.7273 291.382 23.4083 291.601C24.0841 291.809 24.8089 291.733 25.5826 291.371L28.4194 290.044C29.1931 289.682 29.7041 289.181 29.9524 288.54C30.1955 287.888 30.1268 287.185 29.7462 286.428Z" fill="url(#paint87_radial_213_674)" fill-opacity="0.4"/>
<path d="M24.5386 269.481C25.0794 270.884 25.1049 272.141 24.615 273.25C24.1139 274.363 23.1077 275.19 21.5963 275.732L18.775 276.742C17.2636 277.284 15.9467 277.289 14.8245 276.757C13.691 276.23 12.8538 275.264 12.313 273.861C11.7763 272.469 11.7598 271.252 12.2635 270.212C12.7518 269.165 13.6844 268.395 15.0615 267.901L15.1623 267.865L15.9735 269.97L15.8056 270.03C15.1115 270.279 14.6133 270.672 14.3111 271.211C14.0047 271.738 13.9992 272.385 14.2946 273.151C14.5858 273.907 15.0554 274.414 15.7032 274.674C16.351 274.933 17.0892 274.914 17.9176 274.617L20.8061 273.582C21.6234 273.29 22.1951 272.839 22.5213 272.231C22.8363 271.627 22.8482 270.947 22.557 270.191C22.2616 269.425 21.8193 268.938 21.23 268.732C20.6253 268.518 19.9816 268.534 19.2986 268.779L18.9963 268.887L18.1851 266.782L18.4202 266.698C19.7972 266.205 21.0309 266.199 22.1212 266.68C23.1961 267.155 24.0019 268.089 24.5386 269.481Z" fill="url(#paint88_radial_213_674)" fill-opacity="0.4"/>
<path d="M21.785 262.746L9.76987 266.21L8.20962 261.179C7.98379 260.451 7.91864 259.779 8.01417 259.162C8.1097 258.546 8.35158 258.02 8.73981 257.583C9.12803 257.147 9.64827 256.834 10.3005 256.646L10.5065 256.587C11.2274 256.379 11.8623 256.376 12.4113 256.579C12.9602 256.781 13.4129 257.095 13.7694 257.521L14.0784 257.432C13.9644 256.984 14.0185 256.596 14.2408 256.268C14.4516 255.942 14.7973 255.711 15.2779 255.572L19.2086 254.439L19.8861 256.623L16.2815 257.662C16.0069 257.742 15.806 257.878 15.6788 258.071C15.5482 258.252 15.5325 258.503 15.6318 258.823L16.5761 261.868L21.1076 260.562L21.785 262.746ZM14.5164 262.462L13.7055 259.847C13.5446 259.329 13.2767 258.967 12.9017 258.763C12.5118 258.551 12.0765 258.514 11.5959 258.653L11.4243 258.702C10.9437 258.841 10.6048 259.095 10.4077 259.464C10.1991 259.837 10.177 260.288 10.3412 260.817L11.1521 263.432L14.5164 262.462Z" fill="url(#paint89_radial_213_674)" fill-opacity="0.4"/>
<path d="M17.6896 248.501L13.482 249.435L6.42437 255.219L5.83379 252.744L10.477 249.091L10.4046 248.788L4.5723 247.459L3.98173 244.984L12.9517 247.213L17.1593 246.279L17.6896 248.501Z" fill="url(#paint90_radial_213_674)" fill-opacity="0.4"/>
<path d="M15.8325 240.281L3.45812 242.244L2.62036 237.336C2.49237 236.586 2.539 235.902 2.76024 235.283C2.96775 234.655 3.3272 234.137 3.83859 233.729C4.34804 233.31 4.99167 233.038 5.76949 232.915L6.01698 232.876C6.78301 232.754 7.48385 232.818 8.1195 233.067C8.74143 233.307 9.26094 233.691 9.67804 234.22C10.0814 234.74 10.3452 235.363 10.4693 236.09L10.9231 238.749L15.4485 238.031L15.8325 240.281ZM8.80172 239.086L8.38576 236.649C8.29461 236.115 8.06772 235.707 7.70506 235.426C7.34241 235.145 6.89592 235.047 6.36559 235.131L6.18881 235.159C5.65848 235.243 5.26823 235.474 5.01805 235.852C4.76788 236.231 4.68836 236.687 4.7795 237.221L5.19547 239.658L8.80172 239.086Z" fill="url(#paint91_radial_213_674)" fill-opacity="0.4"/>
<path d="M13.7481 226.421L3.41086 227.438L3.78203 230.943L1.64329 231.154L0.660788 221.875L2.79953 221.664L3.17069 225.17L13.5079 224.152L13.7481 226.421Z" fill="url(#paint92_radial_213_674)" fill-opacity="0.4"/>
<path d="M13.0392 213.658C13.0974 215.177 12.714 216.4 11.8891 217.329C11.0522 218.257 9.82807 218.75 8.21678 218.808L5.20904 218.915C3.59775 218.972 2.34523 218.567 1.45149 217.7C0.545808 216.834 0.0638709 215.641 0.00567543 214.122C-0.05252 212.603 0.336833 211.379 1.17374 210.451C1.9987 209.523 3.21683 209.03 4.82812 208.972L7.83586 208.865C9.44715 208.808 10.7056 209.212 11.6113 210.079C12.5051 210.946 12.981 212.139 13.0392 213.658ZM10.9266 213.733C10.894 212.882 10.6121 212.229 10.0808 211.776C9.54945 211.322 8.85413 211.111 7.99477 211.141L4.8438 211.253C3.98445 211.284 3.30719 211.544 2.81204 212.034C2.31689 212.524 2.08563 213.195 2.11826 214.047C2.15044 214.887 2.4324 215.539 2.96415 216.004C3.49545 216.458 4.19078 216.669 5.05013 216.639L8.2011 216.527C9.06045 216.496 9.73771 216.236 10.2329 215.746C10.7276 215.244 10.9588 214.573 10.9266 213.733Z" fill="url(#paint93_radial_213_674)" fill-opacity="0.4"/>
<defs>
<radialGradient id="paint0_radial_213_674" cx="0" cy="0" r="1" gradientUnits="userSpaceOnUse" gradientTransform="translate(199.818 212.698) rotate(179.264) scale(209.196 0.386655)">
<stop offset="0.90777" stop-color="white"/>
<stop offset="0.944925" stop-color="#BDB6A1"/>
<stop offset="1" stop-color="white"/>
</radialGradient>
<radialGradient id="paint1_radial_213_674" cx="0" cy="0" r="1" gradientUnits="userSpaceOnUse" gradientTransform="translate(199.818 212.698) rotate(179.264) scale(209.196 0.386655)">
<stop offset="0.90777" stop-color="white"/>
<stop offset="0.944925" stop-color="#BDB6A1"/>
<stop offset="1" stop-color="white"/>
</radialGradient>
<radialGradient id="paint2_radial_213_674" cx="0" cy="0" r="1" gradientUnits="userSpaceOnUse" gradientTransform="translate(199.818 212.698) rotate(179.264) scale(209.196 0.386655)">
<stop offset="0.90777" stop-color="white"/>
<stop offset="0.944925" stop-color="#BDB6A1"/>
<stop offset="1" stop-color="white"/>
</radialGradient>
<radialGradient id="paint3_radial_213_674" cx="0" cy="0" r="1" gradientUnits="userSpaceOnUse" gradientTransform="translate(199.818 212.698) rotate(179.264) scale(209.196 0.386655)">
<stop offset="0.90777" stop-color="white"/>
<stop offset="0.944925" stop-color="#BDB6A1"/>
<stop offset="1" stop-color="white"/>
</radialGradient>
<radialGradient id="paint4_radial_213_674" cx="0" cy="0" r="1" gradientUnits="userSpaceOnUse" gradientTransform="translate(199.818 212.698) rotate(179.264) scale(209.196 0.386655)">
<stop offset="0.90777" stop-color="white"/>
<stop offset="0.944925" stop-color="#BDB6A1"/>
<stop offset="1" stop-color="white"/>
</radialGradient>
<radialGradient id="paint5_radial_213_674" cx="0" cy="0" r="1" gradientUnits="userSpaceOnUse" gradientTransform="translate(199.818 212.698) rotate(179.264) scale(209.196 0.386655)">
<stop offset="0.90777" stop-color="white"/>
<stop offset="0.944925" stop-color="#BDB6A1"/>
<stop offset="1" stop-color="white"/>
</radialGradient>
<radialGradient id="paint6_radial_213_674" cx="0" cy="0" r="1" gradientUnits="userSpaceOnUse" gradientTransform="translate(199.818 212.698) rotate(179.264) scale(209.196 0.386655)">
<stop offset="0.90777" stop-color="white"/>
<stop offset="0.944925" stop-color="#BDB6A1"/>
<stop offset="1" stop-color="white"/>
</radialGradient>
<radialGradient id="paint7_radial_213_674" cx="0" cy="0" r="1" gradientUnits="userSpaceOnUse" gradientTransform="translate(199.818 212.698) rotate(179.264) scale(209.196 0.386655)">
<stop offset="0.90777" stop-color="white"/>
<stop offset="0.944925" stop-color="#BDB6A1"/>
<stop offset="1" stop-color="white"/>
</radialGradient>
<radialGradient id="paint8_radial_213_674" cx="0" cy="0" r="1" gradientUnits="userSpaceOnUse" gradientTransform="translate(199.818 212.698) rotate(179.264) scale(209.196 0.386655)">
<stop offset="0.90777" stop-color="white"/>
<stop offset="0.944925" stop-color="#BDB6A1"/>
<stop offset="1" stop-color="white"/>
</radialGradient>
<radialGradient id="paint9_radial_213_674" cx="0" cy="0" r="1" gradientUnits="userSpaceOnUse" gradientTransform="translate(199.818 212.698) rotate(179.264) scale(209.196 0.386655)">
<stop offset="0.90777" stop-color="white"/>
<stop offset="0.944925" stop-color="#BDB6A1"/>
<stop offset="1" stop-color="white"/>
</radialGradient>
<radialGradient id="paint10_radial_213_674" cx="0" cy="0" r="1" gradientUnits="userSpaceOnUse" gradientTransform="translate(199.818 212.698) rotate(179.264) scale(209.196 0.386655)">
<stop offset="0.90777" stop-color="white"/>
<stop offset="0.944925" stop-color="#BDB6A1"/>
<stop offset="1" stop-color="white"/>
</radialGradient>
<radialGradient id="paint11_radial_213_674" cx="0" cy="0" r="1" gradientUnits="userSpaceOnUse" gradientTransform="translate(199.818 212.698) rotate(179.264) scale(209.196 0.386655)">
<stop offset="0.90777" stop-color="white"/>
<stop offset="0.944925" stop-color="#BDB6A1"/>
<stop offset="1" stop-color="white"/>
</radialGradient>
<radialGradient id="paint12_radial_213_674" cx="0" cy="0" r="1" gradientUnits="userSpaceOnUse" gradientTransform="translate(199.818 212.698) rotate(179.264) scale(209.196 0.386655)">
<stop offset="0.90777" stop-color="white"/>
<stop offset="0.944925" stop-color="#BDB6A1"/>
<stop offset="1" stop-color="white"/>
</radialGradient>
<radialGradient id="paint13_radial_213_674" cx="0" cy="0" r="1" gradientUnits="userSpaceOnUse" gradientTransform="translate(199.818 212.698) rotate(179.264) scale(209.196 0.386655)">
<stop offset="0.90777" stop-color="white"/>
<stop offset="0.944925" stop-color="#BDB6A1"/>
<stop offset="1" stop-color="white"/>
</radialGradient>
<radialGradient id="paint14_radial_213_674" cx="0" cy="0" r="1" gradientUnits="userSpaceOnUse" gradientTransform="translate(199.818 212.698) rotate(179.264) scale(209.196 0.386655)">
<stop offset="0.90777" stop-color="white"/>
<stop offset="0.944925" stop-color="#BDB6A1"/>
<stop offset="1" stop-color="white"/>
</radialGradient>
<radialGradient id="paint15_radial_213_674" cx="0" cy="0" r="1" gradientUnits="userSpaceOnUse" gradientTransform="translate(199.818 212.698) rotate(179.264) scale(209.196 0.386655)">
<stop offset="0.90777" stop-color="white"/>
<stop offset="0.944925" stop-color="#BDB6A1"/>
<stop offset="1" stop-color="white"/>
</radialGradient>
<radialGradient id="paint16_radial_213_674" cx="0" cy="0" r="1" gradientUnits="userSpaceOnUse" gradientTransform="translate(199.818 212.698) rotate(179.264) scale(209.196 0.386655)">
<stop offset="0.90777" stop-color="white"/>
<stop offset="0.944925" stop-color="#BDB6A1"/>
<stop offset="1" stop-color="white"/>
</radialGradient>
<radialGradient id="paint17_radial_213_674" cx="0" cy="0" r="1" gradientUnits="userSpaceOnUse" gradientTransform="translate(199.818 212.698) rotate(179.264) scale(209.196 0.386655)">
<stop offset="0.90777" stop-color="white"/>
<stop offset="0.944925" stop-color="#BDB6A1"/>
<stop offset="1" stop-color="white"/>
</radialGradient>
<radialGradient id="paint18_radial_213_674" cx="0" cy="0" r="1" gradientUnits="userSpaceOnUse" gradientTransform="translate(199.818 212.698) rotate(179.264) scale(209.196 0.386655)">
<stop offset="0.90777" stop-color="white"/>
<stop offset="0.944925" stop-color="#BDB6A1"/>
<stop offset="1" stop-color="white"/>
</radialGradient>
<radialGradient id="paint19_radial_213_674" cx="0" cy="0" r="1" gradientUnits="userSpaceOnUse" gradientTransform="translate(199.818 212.698) rotate(179.264) scale(209.196 0.386655)">
<stop offset="0.90777" stop-color="white"/>
<stop offset="0.944925" stop-color="#BDB6A1"/>
<stop offset="1" stop-color="white"/>
</radialGradient>
<radialGradient id="paint20_radial_213_674" cx="0" cy="0" r="1" gradientUnits="userSpaceOnUse" gradientTransform="translate(199.818 212.698) rotate(179.264) scale(209.196 0.386655)">
<stop offset="0.90777" stop-color="white"/>
<stop offset="0.944925" stop-color="#BDB6A1"/>
<stop offset="1" stop-color="white"/>
</radialGradient>
<radialGradient id="paint21_radial_213_674" cx="0" cy="0" r="1" gradientUnits="userSpaceOnUse" gradientTransform="translate(199.818 212.698) rotate(179.264) scale(209.196 0.386655)">
<stop offset="0.90777" stop-color="white"/>
<stop offset="0.944925" stop-color="#BDB6A1"/>
<stop offset="1" stop-color="white"/>
</radialGradient>
<radialGradient id="paint22_radial_213_674" cx="0" cy="0" r="1" gradientUnits="userSpaceOnUse" gradientTransform="translate(199.818 212.698) rotate(179.264) scale(209.196 0.386655)">
<stop offset="0.90777" stop-color="white"/>
<stop offset="0.944925" stop-color="#BDB6A1"/>
<stop offset="1" stop-color="white"/>
</radialGradient>
<radialGradient id="paint23_radial_213_674" cx="0" cy="0" r="1" gradientUnits="userSpaceOnUse" gradientTransform="translate(199.818 212.698) rotate(179.264) scale(209.196 0.386655)">
<stop offset="0.90777" stop-color="white"/>
<stop offset="0.944925" stop-color="#BDB6A1"/>
<stop offset="1" stop-color="white"/>
</radialGradient>
<radialGradient id="paint24_radial_213_674" cx="0" cy="0" r="1" gradientUnits="userSpaceOnUse" gradientTransform="translate(199.818 212.698) rotate(179.264) scale(209.196 0.386655)">
<stop offset="0.90777" stop-color="white"/>
<stop offset="0.944925" stop-color="#BDB6A1"/>
<stop offset="1" stop-color="white"/>
</radialGradient>
<radialGradient id="paint25_radial_213_674" cx="0" cy="0" r="1" gradientUnits="userSpaceOnUse" gradientTransform="translate(199.818 212.698) rotate(179.264) scale(209.196 0.386655)">
<stop offset="0.90777" stop-color="white"/>
<stop offset="0.944925" stop-color="#BDB6A1"/>
<stop offset="1" stop-color="white"/>
</radialGradient>
<radialGradient id="paint26_radial_213_674" cx="0" cy="0" r="1" gradientUnits="userSpaceOnUse" gradientTransform="translate(199.818 212.698) rotate(179.264) scale(209.196 0.386655)">
<stop offset="0.90777" stop-color="white"/>
<stop offset="0.944925" stop-color="#BDB6A1"/>
<stop offset="1" stop-color="white"/>
</radialGradient>
<radialGradient id="paint27_radial_213_674" cx="0" cy="0" r="1" gradientUnits="userSpaceOnUse" gradientTransform="translate(199.818 212.698) rotate(179.264) scale(209.196 0.386655)">
<stop offset="0.90777" stop-color="white"/>
<stop offset="0.944925" stop-color="#BDB6A1"/>
<stop offset="1" stop-color="white"/>
</radialGradient>
<radialGradient id="paint28_radial_213_674" cx="0" cy="0" r="1" gradientUnits="userSpaceOnUse" gradientTransform="translate(199.818 212.698) rotate(179.264) scale(209.196 0.386655)">
<stop offset="0.90777" stop-color="white"/>
<stop offset="0.944925" stop-color="#BDB6A1"/>
<stop offset="1" stop-color="white"/>
</radialGradient>
<radialGradient id="paint29_radial_213_674" cx="0" cy="0" r="1" gradientUnits="userSpaceOnUse" gradientTransform="translate(199.818 212.698) rotate(179.264) scale(209.196 0.386655)">
<stop offset="0.90777" stop-color="white"/>
<stop offset="0.944925" stop-color="#BDB6A1"/>
<stop offset="1" stop-color="white"/>
</radialGradient>
<radialGradient id="paint30_radial_213_674" cx="0" cy="0" r="1" gradientUnits="userSpaceOnUse" gradientTransform="translate(199.818 212.698) rotate(179.264) scale(209.196 0.386655)">
<stop offset="0.90777" stop-color="white"/>
<stop offset="0.944925" stop-color="#BDB6A1"/>
<stop offset="1" stop-color="white"/>
</radialGradient>
<radialGradient id="paint31_radial_213_674" cx="0" cy="0" r="1" gradientUnits="userSpaceOnUse" gradientTransform="translate(199.818 212.698) rotate(179.264) scale(209.196 0.386655)">
<stop offset="0.90777" stop-color="white"/>
<stop offset="0.944925" stop-color="#BDB6A1"/>
<stop offset="1" stop-color="white"/>
</radialGradient>
<radialGradient id="paint32_radial_213_674" cx="0" cy="0" r="1" gradientUnits="userSpaceOnUse" gradientTransform="translate(199.818 212.698) rotate(179.264) scale(209.196 0.386655)">
<stop offset="0.90777" stop-color="white"/>
<stop offset="0.944925" stop-color="#BDB6A1"/>
<stop offset="1" stop-color="white"/>
</radialGradient>
<radialGradient id="paint33_radial_213_674" cx="0" cy="0" r="1" gradientUnits="userSpaceOnUse" gradientTransform="translate(199.818 212.698) rotate(179.264) scale(209.196 0.386655)">
<stop offset="0.90777" stop-color="white"/>
<stop offset="0.944925" stop-color="#BDB6A1"/>
<stop offset="1" stop-color="white"/>
</radialGradient>
<radialGradient id="paint34_radial_213_674" cx="0" cy="0" r="1" gradientUnits="userSpaceOnUse" gradientTransform="translate(199.818 212.698) rotate(179.264) scale(209.196 0.386655)">
<stop offset="0.90777" stop-color="white"/>
<stop offset="0.944925" stop-color="#BDB6A1"/>
<stop offset="1" stop-color="white"/>
</radialGradient>
<radialGradient id="paint35_radial_213_674" cx="0" cy="0" r="1" gradientUnits="userSpaceOnUse" gradientTransform="translate(199.818 212.698) rotate(179.264) scale(209.196 0.386655)">
<stop offset="0.90777" stop-color="white"/>
<stop offset="0.944925" stop-color="#BDB6A1"/>
<stop offset="1" stop-color="white"/>
</radialGradient>
<radialGradient id="paint36_radial_213_674" cx="0" cy="0" r="1" gradientUnits="userSpaceOnUse" gradientTransform="translate(199.818 212.698) rotate(179.264) scale(209.196 0.386655)">
<stop offset="0.90777" stop-color="white"/>
<stop offset="0.944925" stop-color="#BDB6A1"/>
<stop offset="1" stop-color="white"/>
</radialGradient>
<radialGradient id="paint37_radial_213_674" cx="0" cy="0" r="1" gradientUnits="userSpaceOnUse" gradientTransform="translate(199.818 212.698) rotate(179.264) scale(209.196 0.386655)">
<stop offset="0.90777" stop-color="white"/>
<stop offset="0.944925" stop-color="#BDB6A1"/>
<stop offset="1" stop-color="white"/>
</radialGradient>
<radialGradient id="paint38_radial_213_674" cx="0" cy="0" r="1" gradientUnits="userSpaceOnUse" gradientTransform="translate(199.818 212.698) rotate(179.264) scale(209.196 0.386655)">
<stop offset="0.90777" stop-color="white"/>
<stop offset="0.944925" stop-color="#BDB6A1"/>
<stop offset="1" stop-color="white"/>
</radialGradient>
<radialGradient id="paint39_radial_213_674" cx="0" cy="0" r="1" gradientUnits="userSpaceOnUse" gradientTransform="translate(199.818 212.698) rotate(179.264) scale(209.196 0.386655)">
<stop offset="0.90777" stop-color="white"/>
<stop offset="0.944925" stop-color="#BDB6A1"/>
<stop offset="1" stop-color="white"/>
</radialGradient>
<radialGradient id="paint40_radial_213_674" cx="0" cy="0" r="1" gradientUnits="userSpaceOnUse" gradientTransform="translate(199.818 212.698) rotate(179.264) scale(209.196 0.386655)">
<stop offset="0.90777" stop-color="white"/>
<stop offset="0.944925" stop-color="#BDB6A1"/>
<stop offset="1" stop-color="white"/>
</radialGradient>
<radialGradient id="paint41_radial_213_674" cx="0" cy="0" r="1" gradientUnits="userSpaceOnUse" gradientTransform="translate(199.818 212.698) rotate(179.264) scale(209.196 0.386655)">
<stop offset="0.90777" stop-color="white"/>
<stop offset="0.944925" stop-color="#BDB6A1"/>
<stop offset="1" stop-color="white"/>
</radialGradient>
<radialGradient id="paint42_radial_213_674" cx="0" cy="0" r="1" gradientUnits="userSpaceOnUse" gradientTransform="translate(199.818 212.698) rotate(179.264) scale(209.196 0.386655)">
<stop offset="0.90777" stop-color="white"/>
<stop offset="0.944925" stop-color="#BDB6A1"/>
<stop offset="1" stop-color="white"/>
</radialGradient>
<radialGradient id="paint43_radial_213_674" cx="0" cy="0" r="1" gradientUnits="userSpaceOnUse" gradientTransform="translate(199.818 212.698) rotate(179.264) scale(209.196 0.386655)">
<stop offset="0.90777" stop-color="white"/>
<stop offset="0.944925" stop-color="#BDB6A1"/>
<stop offset="1" stop-color="white"/>
</radialGradient>
<radialGradient id="paint44_radial_213_674" cx="0" cy="0" r="1" gradientUnits="userSpaceOnUse" gradientTransform="translate(199.818 212.698) rotate(179.264) scale(209.196 0.386655)">
<stop offset="0.90777" stop-color="white"/>
<stop offset="0.944925" stop-color="#BDB6A1"/>
<stop offset="1" stop-color="white"/>
</radialGradient>
<radialGradient id="paint45_radial_213_674" cx="0" cy="0" r="1" gradientUnits="userSpaceOnUse" gradientTransform="translate(199.818 212.698) rotate(179.264) scale(209.196 0.386655)">
<stop offset="0.90777" stop-color="white"/>
<stop offset="0.944925" stop-color="#BDB6A1"/>
<stop offset="1" stop-color="white"/>
</radialGradient>
<radialGradient id="paint46_radial_213_674" cx="0" cy="0" r="1" gradientUnits="userSpaceOnUse" gradientTransform="translate(199.818 212.698) rotate(179.264) scale(209.196 0.386655)">
<stop offset="0.90777" stop-color="white"/>
<stop offset="0.944925" stop-color="#BDB6A1"/>
<stop offset="1" stop-color="white"/>
</radialGradient>
<radialGradient id="paint47_radial_213_674" cx="0" cy="0" r="1" gradientUnits="userSpaceOnUse" gradientTransform="translate(199.818 212.698) rotate(179.264) scale(209.196 0.386655)">
<stop offset="0.90777" stop-color="white"/>
<stop offset="0.944925" stop-color="#BDB6A1"/>
<stop offset="1" stop-color="white"/>
</radialGradient>
<radialGradient id="paint48_radial_213_674" cx="0" cy="0" r="1" gradientUnits="userSpaceOnUse" gradientTransform="translate(199.818 212.698) rotate(179.264) scale(209.196 0.386655)">
<stop offset="0.90777" stop-color="white"/>
<stop offset="0.944925" stop-color="#BDB6A1"/>
<stop offset="1" stop-color="white"/>
</radialGradient>
<radialGradient id="paint49_radial_213_674" cx="0" cy="0" r="1" gradientUnits="userSpaceOnUse" gradientTransform="translate(199.818 212.698) rotate(179.264) scale(209.196 0.386655)">
<stop offset="0.90777" stop-color="white"/>
<stop offset="0.944925" stop-color="#BDB6A1"/>
<stop offset="1" stop-color="white"/>
</radialGradient>
<radialGradient id="paint50_radial_213_674" cx="0" cy="0" r="1" gradientUnits="userSpaceOnUse" gradientTransform="translate(199.818 212.698) rotate(179.264) scale(209.196 0.386655)">
<stop offset="0.90777" stop-color="white"/>
<stop offset="0.944925" stop-color="#BDB6A1"/>
<stop offset="1" stop-color="white"/>
</radialGradient>
<radialGradient id="paint51_radial_213_674" cx="0" cy="0" r="1" gradientUnits="userSpaceOnUse" gradientTransform="translate(199.818 212.698) rotate(179.264) scale(209.196 0.386655)">
<stop offset="0.90777" stop-color="white"/>
<stop offset="0.944925" stop-color="#BDB6A1"/>
<stop offset="1" stop-color="white"/>
</radialGradient>
<radialGradient id="paint52_radial_213_674" cx="0" cy="0" r="1" gradientUnits="userSpaceOnUse" gradientTransform="translate(199.818 212.698) rotate(179.264) scale(209.196 0.386655)">
<stop offset="0.90777" stop-color="white"/>
<stop offset="0.944925" stop-color="#BDB6A1"/>
<stop offset="1" stop-color="white"/>
</radialGradient>
<radialGradient id="paint53_radial_213_674" cx="0" cy="0" r="1" gradientUnits="userSpaceOnUse" gradientTransform="translate(199.818 212.698) rotate(179.264) scale(209.196 0.386655)">
<stop offset="0.90777" stop-color="white"/>
<stop offset="0.944925" stop-color="#BDB6A1"/>
<stop offset="1" stop-color="white"/>
</radialGradient>
<radialGradient id="paint54_radial_213_674" cx="0" cy="0" r="1" gradientUnits="userSpaceOnUse" gradientTransform="translate(199.818 212.698) rotate(179.264) scale(209.196 0.386655)">
<stop offset="0.90777" stop-color="white"/>
<stop offset="0.944925" stop-color="#BDB6A1"/>
<stop offset="1" stop-color="white"/>
</radialGradient>
<radialGradient id="paint55_radial_213_674" cx="0" cy="0" r="1" gradientUnits="userSpaceOnUse" gradientTransform="translate(199.818 212.698) rotate(179.264) scale(209.196 0.386655)">
<stop offset="0.90777" stop-color="white"/>
<stop offset="0.944925" stop-color="#BDB6A1"/>
<stop offset="1" stop-color="white"/>
</radialGradient>
<radialGradient id="paint56_radial_213_674" cx="0" cy="0" r="1" gradientUnits="userSpaceOnUse" gradientTransform="translate(199.818 212.698) rotate(179.264) scale(209.196 0.386655)">
<stop offset="0.90777" stop-color="white"/>
<stop offset="0.944925" stop-color="#BDB6A1"/>
<stop offset="1" stop-color="white"/>
</radialGradient>
<radialGradient id="paint57_radial_213_674" cx="0" cy="0" r="1" gradientUnits="userSpaceOnUse" gradientTransform="translate(199.818 212.698) rotate(179.264) scale(209.196 0.386655)">
<stop offset="0.90777" stop-color="white"/>
<stop offset="0.944925" stop-color="#BDB6A1"/>
<stop offset="1" stop-color="white"/>
</radialGradient>
<radialGradient id="paint58_radial_213_674" cx="0" cy="0" r="1" gradientUnits="userSpaceOnUse" gradientTransform="translate(199.818 212.698) rotate(179.264) scale(209.196 0.386655)">
<stop offset="0.90777" stop-color="white"/>
<stop offset="0.944925" stop-color="#BDB6A1"/>
<stop offset="1" stop-color="white"/>
</radialGradient>
<radialGradient id="paint59_radial_213_674" cx="0" cy="0" r="1" gradientUnits="userSpaceOnUse" gradientTransform="translate(199.818 212.698) rotate(179.264) scale(209.196 0.386655)">
<stop offset="0.90777" stop-color="white"/>
<stop offset="0.944925" stop-color="#BDB6A1"/>
<stop offset="1" stop-color="white"/>
</radialGradient>
<radialGradient id="paint60_radial_213_674" cx="0" cy="0" r="1" gradientUnits="userSpaceOnUse" gradientTransform="translate(199.818 212.698) rotate(179.264) scale(209.196 0.386655)">
<stop offset="0.90777" stop-color="white"/>
<stop offset="0.944925" stop-color="#BDB6A1"/>
<stop offset="1" stop-color="white"/>
</radialGradient>
<radialGradient id="paint61_radial_213_674" cx="0" cy="0" r="1" gradientUnits="userSpaceOnUse" gradientTransform="translate(199.818 212.698) rotate(179.264) scale(209.196 0.386655)">
<stop offset="0.90777" stop-color="white"/>
<stop offset="0.944925" stop-color="#BDB6A1"/>
<stop offset="1" stop-color="white"/>
</radialGradient>
<radialGradient id="paint62_radial_213_674" cx="0" cy="0" r="1" gradientUnits="userSpaceOnUse" gradientTransform="translate(199.818 212.698) rotate(179.264) scale(209.196 0.386655)">
<stop offset="0.90777" stop-color="white"/>
<stop offset="0.944925" stop-color="#BDB6A1"/>
<stop offset="1" stop-color="white"/>
</radialGradient>
<radialGradient id="paint63_radial_213_674" cx="0" cy="0" r="1" gradientUnits="userSpaceOnUse" gradientTransform="translate(199.818 212.698) rotate(179.264) scale(209.196 0.386655)">
<stop offset="0.90777" stop-color="white"/>
<stop offset="0.944925" stop-color="#BDB6A1"/>
<stop offset="1" stop-color="white"/>
</radialGradient>
<radialGradient id="paint64_radial_213_674" cx="0" cy="0" r="1" gradientUnits="userSpaceOnUse" gradientTransform="translate(199.818 212.698) rotate(179.264) scale(209.196 0.386655)">
<stop offset="0.90777" stop-color="white"/>
<stop offset="0.944925" stop-color="#BDB6A1"/>
<stop offset="1" stop-color="white"/>
</radialGradient>
<radialGradient id="paint65_radial_213_674" cx="0" cy="0" r="1" gradientUnits="userSpaceOnUse" gradientTransform="translate(199.818 212.698) rotate(179.264) scale(209.196 0.386655)">
<stop offset="0.90777" stop-color="white"/>
<stop offset="0.944925" stop-color="#BDB6A1"/>
<stop offset="1" stop-color="white"/>
</radialGradient>
<radialGradient id="paint66_radial_213_674" cx="0" cy="0" r="1" gradientUnits="userSpaceOnUse" gradientTransform="translate(199.818 212.698) rotate(179.264) scale(209.196 0.386655)">
<stop offset="0.90777" stop-color="white"/>
<stop offset="0.944925" stop-color="#BDB6A1"/>
<stop offset="1" stop-color="white"/>
</radialGradient>
<radialGradient id="paint67_radial_213_674" cx="0" cy="0" r="1" gradientUnits="userSpaceOnUse" gradientTransform="translate(199.818 212.698) rotate(179.264) scale(209.196 0.386655)">
<stop offset="0.90777" stop-color="white"/>
<stop offset="0.944925" stop-color="#BDB6A1"/>
<stop offset="1" stop-color="white"/>
</radialGradient>
<radialGradient id="paint68_radial_213_674" cx="0" cy="0" r="1" gradientUnits="userSpaceOnUse" gradientTransform="translate(199.818 212.698) rotate(179.264) scale(209.196 0.386655)">
<stop offset="0.90777" stop-color="white"/>
<stop offset="0.944925" stop-color="#BDB6A1"/>
<stop offset="1" stop-color="white"/>
</radialGradient>
<radialGradient id="paint69_radial_213_674" cx="0" cy="0" r="1" gradientUnits="userSpaceOnUse" gradientTransform="translate(199.818 212.698) rotate(179.264) scale(209.196 0.386655)">
<stop offset="0.90777" stop-color="white"/>
<stop offset="0.944925" stop-color="#BDB6A1"/>
<stop offset="1" stop-color="white"/>
</radialGradient>
<radialGradient id="paint70_radial_213_674" cx="0" cy="0" r="1" gradientUnits="userSpaceOnUse" gradientTransform="translate(199.818 212.698) rotate(179.264) scale(209.196 0.386655)">
<stop offset="0.90777" stop-color="white"/>
<stop offset="0.944925" stop-color="#BDB6A1"/>
<stop offset="1" stop-color="white"/>
</radialGradient>
<radialGradient id="paint71_radial_213_674" cx="0" cy="0" r="1" gradientUnits="userSpaceOnUse" gradientTransform="translate(199.818 212.698) rotate(179.264) scale(209.196 0.386655)">
<stop offset="0.90777" stop-color="white"/>
<stop offset="0.944925" stop-color="#BDB6A1"/>
<stop offset="1" stop-color="white"/>
</radialGradient>
<radialGradient id="paint72_radial_213_674" cx="0" cy="0" r="1" gradientUnits="userSpaceOnUse" gradientTransform="translate(199.818 212.698) rotate(179.264) scale(209.196 0.386655)">
<stop offset="0.90777" stop-color="white"/>
<stop offset="0.944925" stop-color="#BDB6A1"/>
<stop offset="1" stop-color="white"/>
</radialGradient>
<radialGradient id="paint73_radial_213_674" cx="0" cy="0" r="1" gradientUnits="userSpaceOnUse" gradientTransform="translate(199.818 212.698) rotate(179.264) scale(209.196 0.386655)">
<stop offset="0.90777" stop-color="white"/>
<stop offset="0.944925" stop-color="#BDB6A1"/>
<stop offset="1" stop-color="white"/>
</radialGradient>
<radialGradient id="paint74_radial_213_674" cx="0" cy="0" r="1" gradientUnits="userSpaceOnUse" gradientTransform="translate(199.818 212.698) rotate(179.264) scale(209.196 0.386655)">
<stop offset="0.90777" stop-color="white"/>
<stop offset="0.944925" stop-color="#BDB6A1"/>
<stop offset="1" stop-color="white"/>
</radialGradient>
<radialGradient id="paint75_radial_213_674" cx="0" cy="0" r="1" gradientUnits="userSpaceOnUse" gradientTransform="translate(199.818 212.698) rotate(179.264) scale(209.196 0.386655)">
<stop offset="0.90777" stop-color="white"/>
<stop offset="0.944925" stop-color="#BDB6A1"/>
<stop offset="1" stop-color="white"/>
</radialGradient>
<radialGradient id="paint76_radial_213_674" cx="0" cy="0" r="1" gradientUnits="userSpaceOnUse" gradientTransform="translate(199.818 212.698) rotate(179.264) scale(209.196 0.386655)">
<stop offset="0.90777" stop-color="white"/>
<stop offset="0.944925" stop-color="#BDB6A1"/>
<stop offset="1" stop-color="white"/>
</radialGradient>
<radialGradient id="paint77_radial_213_674" cx="0" cy="0" r="1" gradientUnits="userSpaceOnUse" gradientTransform="translate(199.818 212.698) rotate(179.264) scale(209.196 0.386655)">
<stop offset="0.90777" stop-color="white"/>
<stop offset="0.944925" stop-color="#BDB6A1"/>
<stop offset="1" stop-color="white"/>
</radialGradient>
<radialGradient id="paint78_radial_213_674" cx="0" cy="0" r="1" gradientUnits="userSpaceOnUse" gradientTransform="translate(199.818 212.698) rotate(179.264) scale(209.196 0.386655)">
<stop offset="0.90777" stop-color="white"/>
<stop offset="0.944925" stop-color="#BDB6A1"/>
<stop offset="1" stop-color="white"/>
</radialGradient>
<radialGradient id="paint79_radial_213_674" cx="0" cy="0" r="1" gradientUnits="userSpaceOnUse" gradientTransform="translate(199.818 212.698) rotate(179.264) scale(209.196 0.386655)">
<stop offset="0.90777" stop-color="white"/>
<stop offset="0.944925" stop-color="#BDB6A1"/>
<stop offset="1" stop-color="white"/>
</radialGradient>
<radialGradient id="paint80_radial_213_674" cx="0" cy="0" r="1" gradientUnits="userSpaceOnUse" gradientTransform="translate(199.818 212.698) rotate(179.264) scale(209.196 0.386655)">
<stop offset="0.90777" stop-color="white"/>
<stop offset="0.944925" stop-color="#BDB6A1"/>
<stop offset="1" stop-color="white"/>
</radialGradient>
<radialGradient id="paint81_radial_213_674" cx="0" cy="0" r="1" gradientUnits="userSpaceOnUse" gradientTransform="translate(199.818 212.698) rotate(179.264) scale(209.196 0.386655)">
<stop offset="0.90777" stop-color="white"/>
<stop offset="0.944925" stop-color="#BDB6A1"/>
<stop offset="1" stop-color="white"/>
</radialGradient>
<radialGradient id="paint82_radial_213_674" cx="0" cy="0" r="1" gradientUnits="userSpaceOnUse" gradientTransform="translate(199.818 212.698) rotate(179.264) scale(209.196 0.386655)">
<stop offset="0.90777" stop-color="white"/>
<stop offset="0.944925" stop-color="#BDB6A1"/>
<stop offset="1" stop-color="white"/>
</radialGradient>
<radialGradient id="paint83_radial_213_674" cx="0" cy="0" r="1" gradientUnits="userSpaceOnUse" gradientTransform="translate(199.818 212.698) rotate(179.264) scale(209.196 0.386655)">
<stop offset="0.90777" stop-color="white"/>
<stop offset="0.944925" stop-color="#BDB6A1"/>
<stop offset="1" stop-color="white"/>
</radialGradient>
<radialGradient id="paint84_radial_213_674" cx="0" cy="0" r="1" gradientUnits="userSpaceOnUse" gradientTransform="translate(199.818 212.698) rotate(179.264) scale(209.196 0.386655)">
<stop offset="0.90777" stop-color="white"/>
<stop offset="0.944925" stop-color="#BDB6A1"/>
<stop offset="1" stop-color="white"/>
</radialGradient>
<radialGradient id="paint85_radial_213_674" cx="0" cy="0" r="1" gradientUnits="userSpaceOnUse" gradientTransform="translate(199.818 212.698) rotate(179.264) scale(209.196 0.386655)">
<stop offset="0.90777" stop-color="white"/>
<stop offset="0.944925" stop-color="#BDB6A1"/>
<stop offset="1" stop-color="white"/>
</radialGradient>
<radialGradient id="paint86_radial_213_674" cx="0" cy="0" r="1" gradientUnits="userSpaceOnUse" gradientTransform="translate(199.818 212.698) rotate(179.264) scale(209.196 0.386655)">
<stop offset="0.90777" stop-color="white"/>
<stop offset="0.944925" stop-color="#BDB6A1"/>
<stop offset="1" stop-color="white"/>
</radialGradient>
<radialGradient id="paint87_radial_213_674" cx="0" cy="0" r="1" gradientUnits="userSpaceOnUse" gradientTransform="translate(199.818 212.698) rotate(179.264) scale(209.196 0.386655)">
<stop offset="0.90777" stop-color="white"/>
<stop offset="0.944925" stop-color="#BDB6A1"/>
<stop offset="1" stop-color="white"/>
</radialGradient>
<radialGradient id="paint88_radial_213_674" cx="0" cy="0" r="1" gradientUnits="userSpaceOnUse" gradientTransform="translate(199.818 212.698) rotate(179.264) scale(209.196 0.386655)">
<stop offset="0.90777" stop-color="white"/>
<stop offset="0.944925" stop-color="#BDB6A1"/>
<stop offset="1" stop-color="white"/>
</radialGradient>
<radialGradient id="paint89_radial_213_674" cx="0" cy="0" r="1" gradientUnits="userSpaceOnUse" gradientTransform="translate(199.818 212.698) rotate(179.264) scale(209.196 0.386655)">
<stop offset="0.90777" stop-color="white"/>
<stop offset="0.944925" stop-color="#BDB6A1"/>
<stop offset="1" stop-color="white"/>
</radialGradient>
<radialGradient id="paint90_radial_213_674" cx="0" cy="0" r="1" gradientUnits="userSpaceOnUse" gradientTransform="translate(199.818 212.698) rotate(179.264) scale(209.196 0.386655)">
<stop offset="0.90777" stop-color="white"/>
<stop offset="0.944925" stop-color="#BDB6A1"/>
<stop offset="1" stop-color="white"/>
</radialGradient>
<radialGradient id="paint91_radial_213_674" cx="0" cy="0" r="1" gradientUnits="userSpaceOnUse" gradientTransform="translate(199.818 212.698) rotate(179.264) scale(209.196 0.386655)">
<stop offset="0.90777" stop-color="white"/>
<stop offset="0.944925" stop-color="#BDB6A1"/>
<stop offset="1" stop-color="white"/>
</radialGradient>
<radialGradient id="paint92_radial_213_674" cx="0" cy="0" r="1" gradientUnits="userSpaceOnUse" gradientTransform="translate(199.818 212.698) rotate(179.264) scale(209.196 0.386655)">
<stop offset="0.90777" stop-color="white"/>
<stop offset="0.944925" stop-color="#BDB6A1"/>
<stop offset="1" stop-color="white"/>
</radialGradient>
<radialGradient id="paint93_radial_213_674" cx="0" cy="0" r="1" gradientUnits="userSpaceOnUse" gradientTransform="translate(199.818 212.698) rotate(179.264) scale(209.196 0.386655)">
<stop offset="0.90777" stop-color="white"/>
<stop offset="0.944925" stop-color="#BDB6A1"/>
<stop offset="1" stop-color="white"/>
</radialGradient>
</defs>
</svg>
