<svg width="553" height="172" viewBox="0 0 553 172" fill="none" xmlns="http://www.w3.org/2000/svg">
<g filter="url(#filter0_b_217_545)">
<mask id="path-1-inside-1_217_545" fill="white">
<path fill-rule="evenodd" clip-rule="evenodd" d="M20 0C8.95431 0 0 8.9543 0 20V152C0 163.046 8.95431 172 20 172H533C544.046 172 553 163.046 553 152V20C553 8.9543 544.046 0 533 0H20ZM28 29C28 25.134 32.3234 22 37.6565 22H165.95C171.283 22 175.607 25.134 175.607 29V44C175.607 47.866 171.283 51 165.95 51H37.6565C32.3234 51 28 47.866 28 44V29ZM203.197 29C203.197 25.134 207.52 22 212.853 22H341.147C346.48 22 350.803 25.134 350.803 29V44C350.803 47.866 346.48 51 341.147 51H212.853C207.52 51 203.197 47.866 203.197 44V29ZM388.05 22C382.717 22 378.393 25.134 378.393 29V44C378.393 47.866 382.717 51 388.05 51H516.344C521.677 51 526 47.866 526 44V29C526 25.134 521.677 22 516.344 22H388.05Z"/>
</mask>
<path fill-rule="evenodd" clip-rule="evenodd" d="M20 0C8.95431 0 0 8.9543 0 20V152C0 163.046 8.95431 172 20 172H533C544.046 172 553 163.046 553 152V20C553 8.9543 544.046 0 533 0H20ZM28 29C28 25.134 32.3234 22 37.6565 22H165.95C171.283 22 175.607 25.134 175.607 29V44C175.607 47.866 171.283 51 165.95 51H37.6565C32.3234 51 28 47.866 28 44V29ZM203.197 29C203.197 25.134 207.52 22 212.853 22H341.147C346.48 22 350.803 25.134 350.803 29V44C350.803 47.866 346.48 51 341.147 51H212.853C207.52 51 203.197 47.866 203.197 44V29ZM388.05 22C382.717 22 378.393 25.134 378.393 29V44C378.393 47.866 382.717 51 388.05 51H516.344C521.677 51 526 47.866 526 44V29C526 25.134 521.677 22 516.344 22H388.05Z" fill="#B17EFC" fill-opacity="0.04"/>
<path d="M2 20C2 10.0589 10.0589 2 20 2V-2C7.84974 -2 -2 7.84974 -2 20H2ZM2 152V20H-2V152H2ZM20 170C10.0589 170 2 161.941 2 152H-2C-2 164.15 7.84974 174 20 174V170ZM533 170H20V174H533V170ZM551 152C551 161.941 542.941 170 533 170V174C545.15 174 555 164.15 555 152H551ZM551 20V152H555V20H551ZM533 2C542.941 2 551 10.0589 551 20H555C555 7.84974 545.15 -2 533 -2V2ZM20 2H533V-2H20V2ZM37.6565 20C34.6146 20 31.779 20.8909 29.6545 22.431C27.5323 23.9694 26 26.2666 26 29H30C30 27.8674 30.6294 26.6646 32.0022 25.6695C33.3726 24.6761 35.3653 24 37.6565 24V20ZM165.95 20H37.6565V24H165.95V20ZM177.607 29C177.607 26.2666 176.074 23.9694 173.952 22.431C171.828 20.8909 168.992 20 165.95 20V24C168.241 24 170.234 24.6761 171.604 25.6695C172.977 26.6646 173.607 27.8674 173.607 29H177.607ZM177.607 44V29H173.607V44H177.607ZM165.95 53C168.992 53 171.828 52.1091 173.952 50.569C176.074 49.0306 177.607 46.7334 177.607 44H173.607C173.607 45.1326 172.977 46.3354 171.604 47.3304C170.234 48.3239 168.241 49 165.95 49V53ZM37.6565 53H165.95V49H37.6565V53ZM26 44C26 46.7334 27.5323 49.0306 29.6545 50.569C31.779 52.1091 34.6146 53 37.6565 53V49C35.3653 49 33.3726 48.3239 32.0022 47.3304C30.6294 46.3354 30 45.1326 30 44H26ZM26 29V44H30V29H26ZM212.853 20C209.811 20 206.976 20.8909 204.851 22.431C202.729 23.9694 201.197 26.2666 201.197 29H205.197C205.197 27.8674 205.826 26.6646 207.199 25.6695C208.569 24.6761 210.562 24 212.853 24V20ZM341.147 20H212.853V24H341.147V20ZM352.803 29C352.803 26.2666 351.271 23.9694 349.149 22.431C347.024 20.8909 344.189 20 341.147 20V24C343.438 24 345.431 24.6761 346.801 25.6696C348.174 26.6646 348.803 27.8674 348.803 29H352.803ZM352.803 44V29H348.803V44H352.803ZM341.147 53C344.189 53 347.024 52.1091 349.149 50.569C351.271 49.0306 352.803 46.7334 352.803 44H348.803C348.803 45.1326 348.174 46.3354 346.801 47.3304C345.431 48.3239 343.438 49 341.147 49V53ZM212.853 53H341.147V49H212.853V53ZM201.197 44C201.197 46.7334 202.729 49.0306 204.851 50.569C206.976 52.1091 209.811 53 212.853 53V49C210.562 49 208.569 48.3239 207.199 47.3304C205.826 46.3354 205.197 45.1326 205.197 44H201.197ZM201.197 29V44H205.197V29H201.197ZM380.393 29C380.393 27.8674 381.023 26.6646 382.396 25.6696C383.766 24.6761 385.759 24 388.05 24V20C385.008 20 382.172 20.8909 380.048 22.431C377.926 23.9694 376.393 26.2666 376.393 29H380.393ZM380.393 44V29H376.393V44H380.393ZM388.05 49C385.759 49 383.766 48.3239 382.396 47.3304C381.023 46.3354 380.393 45.1326 380.393 44H376.393C376.393 46.7334 377.926 49.0306 380.048 50.569C382.172 52.1091 385.008 53 388.05 53V49ZM516.344 49H388.05V53H516.344V49ZM524 44C524 45.1326 523.371 46.3354 521.998 47.3305C520.627 48.3239 518.635 49 516.344 49V53C519.385 53 522.221 52.1091 524.346 50.569C526.468 49.0306 528 46.7334 528 44H524ZM524 29V44H528V29H524ZM516.344 24C518.635 24 520.627 24.6761 521.998 25.6695C523.371 26.6646 524 27.8674 524 29H528C528 26.2666 526.468 23.9694 524.346 22.431C522.221 20.8909 519.385 20 516.344 20V24ZM388.05 24H516.344V20H388.05V24Z" fill="url(#paint0_linear_217_545)" fill-opacity="0.1" mask="url(#path-1-inside-1_217_545)"/>
</g>
<defs>
<filter id="filter0_b_217_545" x="-9" y="-9" width="571" height="190" filterUnits="userSpaceOnUse" color-interpolation-filters="sRGB">
<feFlood flood-opacity="0" result="BackgroundImageFix"/>
<feGaussianBlur in="BackgroundImageFix" stdDeviation="4.5"/>
<feComposite in2="SourceAlpha" operator="in" result="effect1_backgroundBlur_217_545"/>
<feBlend mode="normal" in="SourceGraphic" in2="effect1_backgroundBlur_217_545" result="shape"/>
</filter>
<linearGradient id="paint0_linear_217_545" x1="287.937" y1="217.431" x2="212.915" y2="23.4589" gradientUnits="userSpaceOnUse">
<stop stop-color="#8A60E1"/>
<stop offset="1" stop-color="#B682FF"/>
</linearGradient>
</defs>
</svg>
