<svg width="350" height="350" fill="none" xmlns="http://www.w3.org/2000/svg"><g filter="url(#Vector__a)"><mask id="Vector__I" maskUnits="userSpaceOnUse" x="10" y="10" width="320" height="330" fill="#000"><path fill="#fff" d="M10 10h320v330H10z"/><path d="m326.103 148.542 1.373 14.937-4.979.458-.87-9.46-9.211.846.692 7.519-4.979.458-.692-7.519-10.705.985.87 9.46-4.979.457-1.373-14.937 34.853-3.204Zm-312.73 52.555L12 186.16l4.979-.458.87 9.46 9.21-.846-.69-7.519 4.979-.458.69 7.519 10.706-.984-.87-9.461 4.979-.457 1.373 14.937-34.853 3.204Zm307.17-76.319 1.37 5.327-29.055 7.471 2.254 8.765-4.843 1.245-3.623-14.092 33.897-8.716ZM18.933 224.861l-1.37-5.327 29.055-7.471-2.254-8.765 4.843-1.245 3.623 14.092-33.897 8.716ZM310.066 96.954l3.452 7.548c1.179 2.577 1.432 4.734.76 6.47-.641 1.723-2.205 3.153-4.691 4.29l-1.273.582c-1.637.749-3.095 1.086-4.375 1.012-1.267-.044-2.377-.507-3.331-1.391l-.091.042c.289 2.874-1.356 5.129-4.933 6.765l-2.728 1.248c-2.455 1.123-4.633 1.331-6.532.623-1.856-.69-3.352-2.279-4.489-4.764l-3.598-7.866 31.829-14.559Zm-9.777 12.884c.457 1.001 1.055 1.626 1.792 1.875.751.279 1.733.142 2.945-.413l1.774-.811c1.151-.527 1.888-1.12 2.209-1.78.335-.63.302-1.384-.1-2.263l-1.103-2.41-8.411 3.847.894 1.955Zm-13.907 7.461c.402.879.928 1.427 1.576 1.643.679.203 1.595.041 2.747-.486l2.773-1.269c1.455-.665 2.338-1.381 2.648-2.146.354-.748.268-1.698-.259-2.85l-1.019-2.228-9.776 4.471 1.31 2.865ZM29.41 252.685l-3.452-7.548c-1.178-2.577-1.432-4.734-.76-6.47.642-1.723 2.205-3.153 4.69-4.29l1.274-.582c1.637-.749 3.095-1.086 4.376-1.012 1.266.044 2.376.507 3.33 1.391l.09-.042c-.287-2.874 1.357-5.129 4.934-6.765l2.728-1.248c2.455-1.123 4.633-1.331 6.533-.623 1.855.69 3.351 2.279 4.488 4.764l3.598 7.867-31.828 14.558Zm9.777-12.884c-.457-1.001-1.055-1.626-1.792-1.875-.75-.279-1.733-.142-2.945.413l-1.773.811c-1.152.527-1.889 1.12-2.21 1.78-.335.63-.302 1.384.1 2.263l1.103 2.41 8.412-3.847-.895-1.955Zm13.907-7.461c-.402-.879-.927-1.427-1.576-1.643-.68-.203-1.595-.041-2.747.486l-2.773 1.269c-1.455.665-2.338 1.381-2.648 2.146-.354.748-.267 1.698.26 2.85l1.019 2.228 9.775-4.471-1.31-2.865ZM289.507 66.777l4.667 6.312-18.063 17.706.059.08L298.394 78.8l4.667 6.312-28.145 20.806-3.091-4.181 21.31-15.753-.06-.08-23.687 12.536-2.735-3.7 18.932-18.969-.059-.08-21.31 15.753-2.853-3.86 28.144-20.806ZM49.969 282.862l-4.667-6.312 18.063-17.706-.06-.08-22.223 12.076-4.667-6.312 28.145-20.806 3.091 4.181-21.31 15.753.06.081L70.088 251.2l2.735 3.699-18.932 18.97.06.08 21.31-15.753 2.853 3.86-28.145 20.806Zm220.68-234.004 5.611 4.9-18.73 30.112-4.143-3.618 3.819-5.893-.066.076-4.707-4.112-5.26 4.502-3.841-3.355 27.317-22.612ZM259.775 70.43l9.535-14.642-.075-.066-13.188 11.451 3.728 3.257ZM68.827 300.781l-5.61-4.901 18.73-30.111 4.142 3.618-3.819 5.893.066-.076 4.708 4.112 5.259-4.502 3.841 3.355-27.317 22.612Zm10.874-21.571-9.535 14.641.076.066 13.187-11.451-3.728-3.256ZM233.215 65.243c-2.286-1.372-3.644-3.061-4.072-5.068-.411-2.035.112-4.267 1.57-6.697l9.47-15.776c1.458-2.43 3.174-3.927 5.146-4.492 1.989-.594 4.127-.205 6.414 1.167 2.286 1.373 3.635 3.076 4.046 5.112.428 2.006-.086 4.224-1.545 6.654l-1.544 2.572-4.458-2.677 1.724-2.872c1.184-1.972.961-3.447-.668-4.424-1.629-.978-3.035-.481-4.219 1.49l-9.856 16.42c-1.166 1.943-.935 3.404.694 4.382 1.629.978 3.027.495 4.193-1.449l3.526-5.873-2.358-1.415 2.573-4.287 6.816 4.092-5.892 9.817c-1.459 2.429-3.182 3.94-5.172 4.535-1.972.565-4.102.162-6.388-1.21ZM106.261 284.396c2.287 1.372 3.644 3.061 4.072 5.068.412 2.035-.112 4.268-1.57 6.697l-9.47 15.776c-1.458 2.429-3.173 3.927-5.146 4.492-1.99.594-4.127.205-6.414-1.167-2.286-1.373-3.635-3.077-4.046-5.112-.428-2.006.087-4.224 1.545-6.654l1.544-2.572 4.458 2.676-1.724 2.873c-1.184 1.972-.96 3.447.668 4.425 1.63.977 3.035.48 4.22-1.492l9.855-16.419c1.167-1.943.935-3.404-.694-4.382-1.629-.978-3.027-.495-4.193 1.449l-3.526 5.873 2.358 1.415-2.573 4.287-6.816-4.091 5.892-9.818c1.459-2.429 3.183-3.941 5.172-4.535 1.972-.565 4.102-.162 6.388 1.211Zm98.115-231.558c-2.591-.76-4.358-2.078-5.301-3.953-.944-1.875-1.022-4.155-.233-6.842l5.18-17.656c.788-2.687 2.086-4.564 3.893-5.632 1.807-1.067 4.006-1.221 6.597-.461s4.358 2.078 5.302 3.953c.943 1.875 1.021 4.155.233 6.842l-5.181 17.656c-.788 2.686-2.086 4.564-3.893 5.631-1.807 1.068-4.006 1.222-6.597.462Zm1.408-4.798c1.823.535 3.058-.301 3.706-2.508l5.378-18.327c.647-2.207.059-3.578-1.764-4.113-1.823-.535-3.058.3-3.706 2.508l-5.377 18.327c-.648 2.207-.06 3.578 1.763 4.113ZM135.1 296.801c2.591.761 4.358 2.078 5.302 3.953.943 1.875 1.021 4.156.233 6.842l-5.181 17.656c-.788 2.687-2.086 4.564-3.893 5.632-1.807 1.067-4.006 1.221-6.597.461s-4.358-2.078-5.301-3.953c-.944-1.874-1.022-4.155-.233-6.842l5.18-17.656c.789-2.686 2.086-4.564 3.893-5.631 1.807-1.068 4.006-1.222 6.597-.462Zm-1.408 4.798c-1.823-.535-3.058.301-3.706 2.508l-5.377 18.327c-.648 2.207-.06 3.578 1.763 4.113 1.823.535 3.058-.301 3.706-2.508l5.378-18.327c.647-2.207.059-3.578-1.764-4.113Zm50.092-283.986-5.713-.645.56-4.968 16.893 1.907-.561 4.968-5.713-.645-3.366 29.811-5.465-.617 3.365-29.81Zm-28.092 314.413 5.714.645-.561 4.968-16.893-1.907.561-4.968 5.714.645 3.365-29.811 5.465.617-3.365 29.811Zm-6.673-298.194-9.278-19.03 5.798-.783 5.434 12.234.099-.014 1.999-13.236 5.302-.715-3.903 20.809 1.991 14.766-5.45.735-1.992-14.766Zm41.438 281.975 9.278 19.03-5.798.783-5.434-12.234-.099.014-1.999 13.236-5.302.715 3.904-20.809-1.992-14.766 5.45-.735 1.992 14.766ZM118.923 20.793l7.111-2.222 15.877 31.708-5.25 1.64-3.027-6.335.03.095-5.965 1.864 1.088 6.836-4.868 1.521-4.996-35.107Zm12.704 20.546-7.497-15.782-.095.03 2.868 17.228 4.724-1.476Zm88.926 287.507-7.111 2.222-15.877-31.708 5.25-1.64 3.027 6.335-.03-.095 5.966-1.864-1.088-6.836 4.868-1.521 4.995 35.107ZM207.849 308.3l7.497 15.782.095-.029-2.867-17.229-4.725 1.476ZM81.567 38.246l4.636-2.569 15.183 22.34.087-.048L90.707 33.18l5.248-2.908 15.315 22.267.087-.048-10.897-24.716 4.154-2.302 13.862 32.333-5.991 3.32-13.627-19.429-.088.049 9.254 21.853-6.385 3.539-20.072-28.892Zm176.342 273.147-4.636 2.569-15.183-22.34-.087.048 10.766 24.789-5.248 2.908-15.314-22.267-.088.048 10.897 24.716-4.154 2.302L221 291.833l5.992-3.321 13.626 19.43.088-.049-9.254-21.853 6.385-3.539 20.072 28.892ZM51.02 66.51l5.652-5.871c1.965-2.042 3.878-3.068 5.74-3.08 1.839-.035 3.742.895 5.712 2.79l1.549 1.491c2.617 2.52 3.442 4.98 2.475 7.38l.072.069c1.212-.684 2.448-.79 3.707-.319 1.281.447 2.666 1.387 4.155 2.82l4.431 4.265c.72.694 1.332 1.236 1.835 1.627a6.067 6.067 0 0 0 1.643.888l-3.883 4.035a8.019 8.019 0 0 1-1.43-.821c-.407-.299-1.078-.9-2.015-1.8l-4.611-4.439c-1.153-1.11-2.142-1.692-2.968-1.747-.803-.079-1.644.338-2.523 1.25l-1.317 1.37L80.05 86.82l-3.814 3.963L51.02 66.51Zm16.008 5c.763-.793 1.125-1.578 1.087-2.355-.015-.802-.503-1.665-1.464-2.59l-1.945-1.871c-.913-.879-1.735-1.347-2.467-1.403-.709-.081-1.398.227-2.069.923l-1.733 1.802 7.204 6.934 1.387-1.44Zm221.428 211.618L282.804 289c-1.965 2.042-3.878 3.068-5.74 3.08-1.839.035-3.742-.895-5.712-2.79l-1.549-1.491c-2.617-2.52-3.442-4.98-2.474-7.379l-.072-.07c-1.213.684-2.449.79-3.707.319-1.282-.447-2.667-1.387-4.156-2.821l-4.431-4.264c-.721-.694-1.332-1.236-1.835-1.627a6.065 6.065 0 0 0-1.643-.888l3.883-4.035a8.047 8.047 0 0 1 1.43.821c.407.299 1.078.899 2.015 1.801l4.611 4.438c1.153 1.109 2.142 1.692 2.969 1.747.803.079 1.643-.338 2.522-1.251l1.317-1.369-10.807-10.402 3.814-3.962 25.217 24.271Zm-16.008-4.998c-.763.792-1.125 1.577-1.087 2.354.015.802.503 1.664 1.464 2.589l1.945 1.873c.913.878 1.735 1.345 2.467 1.402.709.081 1.398-.227 2.069-.923l1.733-1.801-7.204-6.935-1.387 1.441ZM40.806 79.276l3.25-4.437L72.29 95.52l-3.25 4.437-28.235-20.682ZM298.67 270.363l-3.25 4.437-28.235-20.682 3.25-4.437 28.235 20.682ZM28.815 98.87l3.503-6.575 33.57 11.426-2.587 4.854-6.604-2.385.089.047-2.939 5.516 5.575 4.104-2.397 4.501-28.21-21.488Zm23.473 5.707-16.42-5.972-.047.089 14.14 10.252 2.327-4.369Zm258.373 146.192-3.503 6.575-33.569-11.426 2.586-4.854 6.604 2.385-.089-.047 2.939-5.516-5.575-4.103 2.398-4.502 28.209 21.488Zm-23.473-5.707 16.421 5.972.047-.089-14.14-10.252-2.328 4.369ZM18.57 124.247l4.826-13.726 4.717 1.659-3.002 8.537 9.198 3.234 2.355-6.698 4.717 1.659-2.355 6.698 14.387 5.058-1.825 5.189-33.018-11.61Zm302.336 101.145-4.826 13.726-4.717-1.659 3.002-8.537-9.198-3.234-2.355 6.698-4.717-1.659 2.355-6.698-14.387-5.058 1.825-5.189 33.018 11.61ZM12.538 159.339l.65-7.421 35.363-2.627-.48 5.479-7.01.391.1.008-.545 6.226 6.736 1.594-.444 5.081-34.37-8.731Zm23.834-3.936-17.448.932-.008.099 17.024 3.9.432-4.931ZM326.938 190.3l-.649 7.421-35.364 2.627.479-5.479 7.011-.39-.099-.009.545-6.226-6.737-1.594.445-5.08 34.369 8.73Zm-23.834 3.936 17.448-.932.009-.099-17.025-3.9-.432 4.931Z"/></mask><path d="m326.103 148.542 1.373 14.937-4.979.458-.87-9.46-9.211.846.692 7.519-4.979.458-.692-7.519-10.705.985.87 9.46-4.979.457-1.373-14.937 34.853-3.204Z" fill="url(#Vector__b)" shape-rendering="crispEdges"/><path d="M13.373 201.097 12 186.16l4.979-.458.87 9.46 9.21-.846-.69-7.519 4.979-.458.69 7.519 10.706-.984-.87-9.461 4.979-.457 1.373 14.937-34.853 3.204Z" fill="url(#Vector__c)" shape-rendering="crispEdges"/><path d="m320.543 124.778 1.37 5.327-29.055 7.471 2.254 8.765-4.843 1.245-3.623-14.092 33.897-8.716Z" fill="url(#Vector__d)" shape-rendering="crispEdges"/><path d="m18.933 224.861-1.37-5.327 29.055-7.471-2.254-8.765 4.843-1.245 3.623 14.092-33.897 8.716Z" fill="url(#Vector__e)" shape-rendering="crispEdges"/><path d="m310.066 96.954 3.452 7.548c1.179 2.577 1.432 4.734.76 6.47-.641 1.723-2.205 3.153-4.691 4.29l-1.273.582c-1.637.749-3.095 1.086-4.375 1.012-1.267-.044-2.377-.507-3.331-1.391l-.091.042c.289 2.874-1.356 5.129-4.933 6.765l-2.728 1.248c-2.455 1.123-4.633 1.331-6.532.623-1.856-.69-3.352-2.279-4.489-4.764l-3.598-7.866 31.829-14.559Zm-9.777 12.884c.457 1.001 1.055 1.626 1.792 1.875.751.279 1.733.142 2.945-.413l1.774-.811c1.151-.527 1.888-1.12 2.209-1.78.335-.63.302-1.384-.1-2.263l-1.103-2.41-8.411 3.847.894 1.955Zm-13.907 7.461c.402.879.928 1.427 1.576 1.643.679.203 1.595.041 2.747-.486l2.773-1.269c1.455-.665 2.338-1.381 2.648-2.146.354-.748.268-1.698-.259-2.85l-1.019-2.228-9.776 4.471 1.31 2.865Z" fill="url(#Vector__f)" shape-rendering="crispEdges"/><path d="m29.41 252.685-3.452-7.548c-1.178-2.577-1.432-4.734-.76-6.47.642-1.723 2.205-3.153 4.69-4.29l1.274-.582c1.637-.749 3.095-1.086 4.376-1.012 1.266.044 2.376.507 3.33 1.391l.09-.042c-.287-2.874 1.357-5.129 4.934-6.765l2.728-1.248c2.455-1.123 4.633-1.331 6.533-.623 1.855.69 3.351 2.279 4.488 4.764l3.598 7.867-31.828 14.558Zm9.777-12.884c-.457-1.001-1.055-1.626-1.792-1.875-.75-.279-1.733-.142-2.945.413l-1.773.811c-1.152.527-1.889 1.12-2.21 1.78-.335.63-.302 1.384.1 2.263l1.103 2.41 8.412-3.847-.895-1.955Zm13.907-7.461c-.402-.879-.927-1.427-1.576-1.643-.68-.203-1.595-.041-2.747.486l-2.773 1.269c-1.455.665-2.338 1.381-2.648 2.146-.354.748-.267 1.698.26 2.85l1.019 2.228 9.775-4.471-1.31-2.865Z" fill="url(#Vector__g)" shape-rendering="crispEdges"/><path d="m289.507 66.777 4.667 6.312-18.063 17.706.059.08L298.394 78.8l4.667 6.312-28.145 20.806-3.091-4.181 21.31-15.753-.06-.08-23.687 12.536-2.735-3.7 18.932-18.969-.059-.08-21.31 15.753-2.853-3.86 28.144-20.806Z" fill="url(#Vector__h)" shape-rendering="crispEdges"/><path d="m49.969 282.862-4.667-6.312 18.063-17.706-.06-.08-22.223 12.076-4.667-6.312 28.145-20.806 3.091 4.181-21.31 15.753.06.081L70.088 251.2l2.735 3.699-18.932 18.97.06.08 21.31-15.753 2.853 3.86-28.145 20.806Z" fill="url(#Vector__i)" shape-rendering="crispEdges"/><path d="m270.649 48.858 5.611 4.9-18.73 30.112-4.143-3.618 3.819-5.893-.066.076-4.707-4.112-5.26 4.502-3.841-3.355 27.317-22.612ZM259.775 70.43l9.535-14.642-.075-.066-13.188 11.451 3.728 3.257Z" fill="url(#Vector__j)" shape-rendering="crispEdges"/><path d="m68.827 300.781-5.61-4.901 18.73-30.111 4.142 3.618-3.819 5.893.066-.076 4.708 4.112 5.259-4.502 3.841 3.355-27.317 22.612Zm10.874-21.571-9.535 14.641.076.066 13.187-11.451-3.728-3.256Z" fill="url(#Vector__k)" shape-rendering="crispEdges"/><path d="M233.215 65.243c-2.286-1.372-3.644-3.061-4.072-5.068-.411-2.035.112-4.267 1.57-6.697l9.47-15.776c1.458-2.43 3.174-3.927 5.146-4.492 1.989-.594 4.127-.205 6.414 1.167 2.286 1.373 3.635 3.076 4.046 5.112.428 2.006-.086 4.224-1.545 6.654l-1.544 2.572-4.458-2.677 1.724-2.872c1.184-1.972.961-3.447-.668-4.424-1.629-.978-3.035-.481-4.219 1.49l-9.856 16.42c-1.166 1.943-.935 3.404.694 4.382 1.629.978 3.027.495 4.193-1.449l3.526-5.873-2.358-1.415 2.573-4.287 6.816 4.092-5.892 9.817c-1.459 2.429-3.182 3.94-5.172 4.535-1.972.565-4.102.162-6.388-1.21Z" fill="url(#Vector__l)" shape-rendering="crispEdges"/><path d="M106.261 284.396c2.287 1.372 3.644 3.061 4.072 5.068.412 2.035-.112 4.268-1.57 6.697l-9.47 15.776c-1.458 2.429-3.173 3.927-5.146 4.492-1.99.594-4.127.205-6.414-1.167-2.286-1.373-3.635-3.077-4.046-5.112-.428-2.006.087-4.224 1.545-6.654l1.544-2.572 4.458 2.676-1.724 2.873c-1.184 1.972-.96 3.447.668 4.425 1.63.977 3.035.48 4.22-1.492l9.855-16.419c1.167-1.943.935-3.404-.694-4.382-1.629-.978-3.027-.495-4.193 1.449l-3.526 5.873 2.358 1.415-2.573 4.287-6.816-4.091 5.892-9.818c1.459-2.429 3.183-3.941 5.172-4.535 1.972-.565 4.102-.162 6.388 1.211Z" fill="url(#Vector__m)" shape-rendering="crispEdges"/><path d="M204.376 52.838c-2.591-.76-4.358-2.078-5.301-3.953-.944-1.875-1.022-4.155-.233-6.842l5.18-17.656c.788-2.687 2.086-4.564 3.893-5.632 1.807-1.067 4.006-1.221 6.597-.461s4.358 2.078 5.302 3.953c.943 1.875 1.021 4.155.233 6.842l-5.181 17.656c-.788 2.686-2.086 4.564-3.893 5.631-1.807 1.068-4.006 1.222-6.597.462Zm1.408-4.798c1.823.535 3.058-.301 3.706-2.508l5.378-18.327c.647-2.207.059-3.578-1.764-4.113-1.823-.535-3.058.3-3.706 2.508l-5.377 18.327c-.648 2.207-.06 3.578 1.763 4.113Z" fill="url(#Vector__n)" shape-rendering="crispEdges"/><path d="M135.1 296.801c2.591.761 4.358 2.078 5.302 3.953.943 1.875 1.021 4.156.233 6.842l-5.181 17.656c-.788 2.687-2.086 4.564-3.893 5.632-1.807 1.067-4.006 1.221-6.597.461s-4.358-2.078-5.301-3.953c-.944-1.874-1.022-4.155-.233-6.842l5.18-17.656c.789-2.686 2.086-4.564 3.893-5.631 1.807-1.068 4.006-1.222 6.597-.462Zm-1.408 4.798c-1.823-.535-3.058.301-3.706 2.508l-5.377 18.327c-.648 2.207-.06 3.578 1.763 4.113 1.823.535 3.058-.301 3.706-2.508l5.378-18.327c.647-2.207.059-3.578-1.764-4.113Z" fill="url(#Vector__o)" shape-rendering="crispEdges"/><path d="m183.784 17.613-5.713-.645.56-4.968 16.893 1.907-.561 4.968-5.713-.645-3.366 29.811-5.465-.617 3.365-29.81Z" fill="url(#Vector__p)" shape-rendering="crispEdges"/><path d="m155.692 332.026 5.714.645-.561 4.968-16.893-1.907.561-4.968 5.714.645 3.365-29.811 5.465.617-3.365 29.811Z" fill="url(#Vector__q)" shape-rendering="crispEdges"/><path d="m149.019 33.832-9.278-19.03 5.798-.783 5.434 12.234.099-.014 1.999-13.236 5.302-.715-3.903 20.809 1.991 14.766-5.45.735-1.992-14.766Z" fill="url(#Vector__r)" shape-rendering="crispEdges"/><path d="m190.457 315.807 9.278 19.03-5.798.783-5.434-12.234-.099.014-1.999 13.236-5.302.715 3.904-20.809-1.992-14.766 5.45-.735 1.992 14.766Z" fill="url(#Vector__s)" shape-rendering="crispEdges"/><path d="m118.923 20.793 7.111-2.222 15.877 31.708-5.25 1.64-3.027-6.335.03.095-5.965 1.864 1.088 6.836-4.868 1.521-4.996-35.107Zm12.704 20.546-7.497-15.782-.095.03 2.868 17.228 4.724-1.476Z" fill="url(#Vector__t)" shape-rendering="crispEdges"/><path d="m220.553 328.846-7.111 2.222-15.877-31.708 5.25-1.64 3.027 6.335-.03-.095 5.966-1.864-1.088-6.836 4.868-1.521 4.995 35.107ZM207.849 308.3l7.497 15.782.095-.029-2.867-17.229-4.725 1.476Z" fill="url(#Vector__u)" shape-rendering="crispEdges"/><path d="m81.567 38.246 4.636-2.569 15.183 22.34.087-.048L90.707 33.18l5.248-2.908 15.315 22.267.087-.048-10.897-24.716 4.154-2.302 13.862 32.333-5.991 3.32-13.627-19.429-.088.049 9.254 21.853-6.385 3.539-20.072-28.892Z" fill="url(#Vector__v)" shape-rendering="crispEdges"/><path d="m257.909 311.393-4.636 2.569-15.183-22.34-.087.048 10.766 24.789-5.248 2.908-15.314-22.267-.088.048 10.897 24.716-4.154 2.302L221 291.833l5.992-3.321 13.626 19.43.088-.049-9.254-21.853 6.385-3.539 20.072 28.892Z" fill="url(#Vector__w)" shape-rendering="crispEdges"/><path d="m51.02 66.51 5.652-5.871c1.965-2.042 3.878-3.068 5.74-3.08 1.839-.035 3.742.895 5.712 2.79l1.549 1.491c2.617 2.52 3.442 4.98 2.475 7.38l.072.069c1.212-.684 2.448-.79 3.707-.319 1.281.447 2.666 1.387 4.155 2.82l4.431 4.265c.72.694 1.332 1.236 1.835 1.627a6.067 6.067 0 0 0 1.643.888l-3.883 4.035a8.019 8.019 0 0 1-1.43-.821c-.407-.299-1.078-.9-2.015-1.8l-4.611-4.439c-1.153-1.11-2.142-1.692-2.968-1.747-.803-.079-1.644.338-2.523 1.25l-1.317 1.37L80.05 86.82l-3.814 3.963L51.02 66.51Zm16.008 5c.763-.793 1.125-1.578 1.087-2.355-.015-.802-.503-1.665-1.464-2.59l-1.945-1.871c-.913-.879-1.735-1.347-2.467-1.403-.709-.081-1.398.227-2.069.923l-1.733 1.802 7.204 6.934 1.387-1.44Z" fill="url(#Vector__x)" shape-rendering="crispEdges"/><path d="M288.456 283.128 282.804 289c-1.965 2.042-3.878 3.068-5.74 3.08-1.839.035-3.742-.895-5.712-2.79l-1.549-1.491c-2.617-2.52-3.442-4.98-2.474-7.379l-.072-.07c-1.213.684-2.449.79-3.707.319-1.282-.447-2.667-1.387-4.156-2.821l-4.431-4.264c-.721-.694-1.332-1.236-1.835-1.627a6.065 6.065 0 0 0-1.643-.888l3.883-4.035a8.047 8.047 0 0 1 1.43.821c.407.299 1.078.899 2.015 1.801l4.611 4.438c1.153 1.109 2.142 1.692 2.969 1.747.803.079 1.643-.338 2.522-1.251l1.317-1.369-10.807-10.402 3.814-3.962 25.217 24.271Zm-16.008-4.998c-.763.792-1.125 1.577-1.087 2.354.015.802.503 1.664 1.464 2.589l1.945 1.873c.913.878 1.735 1.345 2.467 1.402.709.081 1.398-.227 2.069-.923l1.733-1.801-7.204-6.935-1.387 1.441Z" fill="url(#Vector__y)" shape-rendering="crispEdges"/><path d="m40.806 79.276 3.25-4.437L72.29 95.52l-3.25 4.437-28.235-20.682Z" fill="url(#Vector__z)" shape-rendering="crispEdges"/><path d="m298.67 270.363-3.25 4.437-28.235-20.682 3.25-4.437 28.235 20.682Z" fill="url(#Vector__A)" shape-rendering="crispEdges"/><path d="m28.815 98.87 3.503-6.575 33.57 11.426-2.587 4.854-6.604-2.385.089.047-2.939 5.516 5.575 4.104-2.397 4.501-28.21-21.488Zm23.473 5.707-16.42-5.972-.047.089 14.14 10.252 2.327-4.369Z" fill="url(#Vector__B)" shape-rendering="crispEdges"/><path d="m310.661 250.769-3.503 6.575-33.569-11.426 2.586-4.854 6.604 2.385-.089-.047 2.939-5.516-5.575-4.103 2.398-4.502 28.209 21.488Zm-23.473-5.707 16.421 5.972.047-.089-14.14-10.252-2.328 4.369Z" fill="url(#Vector__C)" shape-rendering="crispEdges"/><path d="m18.57 124.247 4.826-13.726 4.717 1.659-3.002 8.537 9.198 3.234 2.355-6.698 4.717 1.659-2.355 6.698 14.387 5.058-1.825 5.189-33.018-11.61Z" fill="url(#Vector__D)" shape-rendering="crispEdges"/><path d="m320.906 225.392-4.826 13.726-4.717-1.659 3.002-8.537-9.198-3.234-2.355 6.698-4.717-1.659 2.355-6.698-14.387-5.058 1.825-5.189 33.018 11.61Z" fill="url(#Vector__E)" shape-rendering="crispEdges"/><path d="m12.538 159.339.65-7.421 35.363-2.627-.48 5.479-7.01.391.1.008-.545 6.226 6.736 1.594-.444 5.081-34.37-8.731Zm23.834-3.936-17.448.932-.008.099 17.024 3.9.432-4.931Z" fill="url(#Vector__F)" shape-rendering="crispEdges"/><path d="m326.938 190.3-.649 7.421-35.364 2.627.479-5.479 7.011-.39-.099-.009.545-6.226-6.737-1.594.445-5.08 34.369 8.73Zm-23.834 3.936 17.448-.932.009-.099-17.025-3.9-.432 4.931Z" fill="url(#Vector__G)" shape-rendering="crispEdges"/><path d="m326.103 148.542 1.373 14.937-4.979.458-.87-9.46-9.211.846.692 7.519-4.979.458-.692-7.519-10.705.985.87 9.46-4.979.457-1.373-14.937 34.853-3.204Z" stroke="url(#Vector__H)" stroke-opacity=".4" stroke-width="3.239" shape-rendering="crispEdges" mask="url(#Vector__I)"/><path d="M13.373 201.097 12 186.16l4.979-.458.87 9.46 9.21-.846-.69-7.519 4.979-.458.69 7.519 10.706-.984-.87-9.461 4.979-.457 1.373 14.937-34.853 3.204Z" stroke="url(#Vector__J)" stroke-opacity=".4" stroke-width="3.239" shape-rendering="crispEdges" mask="url(#Vector__I)"/><path d="m320.543 124.778 1.37 5.327-29.055 7.471 2.254 8.765-4.843 1.245-3.623-14.092 33.897-8.716Z" stroke="url(#Vector__K)" stroke-opacity=".4" stroke-width="3.239" shape-rendering="crispEdges" mask="url(#Vector__I)"/><path d="m18.933 224.861-1.37-5.327 29.055-7.471-2.254-8.765 4.843-1.245 3.623 14.092-33.897 8.716Z" stroke="url(#Vector__L)" stroke-opacity=".4" stroke-width="3.239" shape-rendering="crispEdges" mask="url(#Vector__I)"/><path d="m310.066 96.954 3.452 7.548c1.179 2.577 1.432 4.734.76 6.47-.641 1.723-2.205 3.153-4.691 4.29l-1.273.582c-1.637.749-3.095 1.086-4.375 1.012-1.267-.044-2.377-.507-3.331-1.391l-.091.042c.289 2.874-1.356 5.129-4.933 6.765l-2.728 1.248c-2.455 1.123-4.633 1.331-6.532.623-1.856-.69-3.352-2.279-4.489-4.764l-3.598-7.866 31.829-14.559Zm-9.777 12.884c.457 1.001 1.055 1.626 1.792 1.875.751.279 1.733.142 2.945-.413l1.774-.811c1.151-.527 1.888-1.12 2.209-1.78.335-.63.302-1.384-.1-2.263l-1.103-2.41-8.411 3.847.894 1.955Zm-13.907 7.461c.402.879.928 1.427 1.576 1.643.679.203 1.595.041 2.747-.486l2.773-1.269c1.455-.665 2.338-1.381 2.648-2.146.354-.748.268-1.698-.259-2.85l-1.019-2.228-9.776 4.471 1.31 2.865Z" stroke="url(#Vector__M)" stroke-opacity=".4" stroke-width="3.239" shape-rendering="crispEdges" mask="url(#Vector__I)"/><path d="m29.41 252.685-3.452-7.548c-1.178-2.577-1.432-4.734-.76-6.47.642-1.723 2.205-3.153 4.69-4.29l1.274-.582c1.637-.749 3.095-1.086 4.376-1.012 1.266.044 2.376.507 3.33 1.391l.09-.042c-.287-2.874 1.357-5.129 4.934-6.765l2.728-1.248c2.455-1.123 4.633-1.331 6.533-.623 1.855.69 3.351 2.279 4.488 4.764l3.598 7.867-31.828 14.558Zm9.777-12.884c-.457-1.001-1.055-1.626-1.792-1.875-.75-.279-1.733-.142-2.945.413l-1.773.811c-1.152.527-1.889 1.12-2.21 1.78-.335.63-.302 1.384.1 2.263l1.103 2.41 8.412-3.847-.895-1.955Zm13.907-7.461c-.402-.879-.927-1.427-1.576-1.643-.68-.203-1.595-.041-2.747.486l-2.773 1.269c-1.455.665-2.338 1.381-2.648 2.146-.354.748-.267 1.698.26 2.85l1.019 2.228 9.775-4.471-1.31-2.865Z" stroke="url(#Vector__N)" stroke-opacity=".4" stroke-width="3.239" shape-rendering="crispEdges" mask="url(#Vector__I)"/><path d="m289.507 66.777 4.667 6.312-18.063 17.706.059.08L298.394 78.8l4.667 6.312-28.145 20.806-3.091-4.181 21.31-15.753-.06-.08-23.687 12.536-2.735-3.7 18.932-18.969-.059-.08-21.31 15.753-2.853-3.86 28.144-20.806Z" stroke="url(#Vector__O)" stroke-opacity=".4" stroke-width="3.239" shape-rendering="crispEdges" mask="url(#Vector__I)"/><path d="m49.969 282.862-4.667-6.312 18.063-17.706-.06-.08-22.223 12.076-4.667-6.312 28.145-20.806 3.091 4.181-21.31 15.753.06.081L70.088 251.2l2.735 3.699-18.932 18.97.06.08 21.31-15.753 2.853 3.86-28.145 20.806Z" stroke="url(#Vector__P)" stroke-opacity=".4" stroke-width="3.239" shape-rendering="crispEdges" mask="url(#Vector__I)"/><path d="m270.649 48.858 5.611 4.9-18.73 30.112-4.143-3.618 3.819-5.893-.066.076-4.707-4.112-5.26 4.502-3.841-3.355 27.317-22.612ZM259.775 70.43l9.535-14.642-.075-.066-13.188 11.451 3.728 3.257Z" stroke="url(#Vector__Q)" stroke-opacity=".4" stroke-width="3.239" shape-rendering="crispEdges" mask="url(#Vector__I)"/><path d="m68.827 300.781-5.61-4.901 18.73-30.111 4.142 3.618-3.819 5.893.066-.076 4.708 4.112 5.259-4.502 3.841 3.355-27.317 22.612Zm10.874-21.571-9.535 14.641.076.066 13.187-11.451-3.728-3.256Z" stroke="url(#Vector__R)" stroke-opacity=".4" stroke-width="3.239" shape-rendering="crispEdges" mask="url(#Vector__I)"/><path d="M233.215 65.243c-2.286-1.372-3.644-3.061-4.072-5.068-.411-2.035.112-4.267 1.57-6.697l9.47-15.776c1.458-2.43 3.174-3.927 5.146-4.492 1.989-.594 4.127-.205 6.414 1.167 2.286 1.373 3.635 3.076 4.046 5.112.428 2.006-.086 4.224-1.545 6.654l-1.544 2.572-4.458-2.677 1.724-2.872c1.184-1.972.961-3.447-.668-4.424-1.629-.978-3.035-.481-4.219 1.49l-9.856 16.42c-1.166 1.943-.935 3.404.694 4.382 1.629.978 3.027.495 4.193-1.449l3.526-5.873-2.358-1.415 2.573-4.287 6.816 4.092-5.892 9.817c-1.459 2.429-3.182 3.94-5.172 4.535-1.972.565-4.102.162-6.388-1.21Z" stroke="url(#Vector__S)" stroke-opacity=".4" stroke-width="3.239" shape-rendering="crispEdges" mask="url(#Vector__I)"/><path d="M106.261 284.396c2.287 1.372 3.644 3.061 4.072 5.068.412 2.035-.112 4.268-1.57 6.697l-9.47 15.776c-1.458 2.429-3.173 3.927-5.146 4.492-1.99.594-4.127.205-6.414-1.167-2.286-1.373-3.635-3.077-4.046-5.112-.428-2.006.087-4.224 1.545-6.654l1.544-2.572 4.458 2.676-1.724 2.873c-1.184 1.972-.96 3.447.668 4.425 1.63.977 3.035.48 4.22-1.492l9.855-16.419c1.167-1.943.935-3.404-.694-4.382-1.629-.978-3.027-.495-4.193 1.449l-3.526 5.873 2.358 1.415-2.573 4.287-6.816-4.091 5.892-9.818c1.459-2.429 3.183-3.941 5.172-4.535 1.972-.565 4.102-.162 6.388 1.211Z" stroke="url(#Vector__T)" stroke-opacity=".4" stroke-width="3.239" shape-rendering="crispEdges" mask="url(#Vector__I)"/><path d="M204.376 52.838c-2.591-.76-4.358-2.078-5.301-3.953-.944-1.875-1.022-4.155-.233-6.842l5.18-17.656c.788-2.687 2.086-4.564 3.893-5.632 1.807-1.067 4.006-1.221 6.597-.461s4.358 2.078 5.302 3.953c.943 1.875 1.021 4.155.233 6.842l-5.181 17.656c-.788 2.686-2.086 4.564-3.893 5.631-1.807 1.068-4.006 1.222-6.597.462Zm1.408-4.798c1.823.535 3.058-.301 3.706-2.508l5.378-18.327c.647-2.207.059-3.578-1.764-4.113-1.823-.535-3.058.3-3.706 2.508l-5.377 18.327c-.648 2.207-.06 3.578 1.763 4.113Z" stroke="url(#Vector__U)" stroke-opacity=".4" stroke-width="3.239" shape-rendering="crispEdges" mask="url(#Vector__I)"/><path d="M135.1 296.801c2.591.761 4.358 2.078 5.302 3.953.943 1.875 1.021 4.156.233 6.842l-5.181 17.656c-.788 2.687-2.086 4.564-3.893 5.632-1.807 1.067-4.006 1.221-6.597.461s-4.358-2.078-5.301-3.953c-.944-1.874-1.022-4.155-.233-6.842l5.18-17.656c.789-2.686 2.086-4.564 3.893-5.631 1.807-1.068 4.006-1.222 6.597-.462Zm-1.408 4.798c-1.823-.535-3.058.301-3.706 2.508l-5.377 18.327c-.648 2.207-.06 3.578 1.763 4.113 1.823.535 3.058-.301 3.706-2.508l5.378-18.327c.647-2.207.059-3.578-1.764-4.113Z" stroke="url(#Vector__V)" stroke-opacity=".4" stroke-width="3.239" shape-rendering="crispEdges" mask="url(#Vector__I)"/><path d="m183.784 17.613-5.713-.645.56-4.968 16.893 1.907-.561 4.968-5.713-.645-3.366 29.811-5.465-.617 3.365-29.81Z" stroke="url(#Vector__W)" stroke-opacity=".4" stroke-width="3.239" shape-rendering="crispEdges" mask="url(#Vector__I)"/><path d="m155.692 332.026 5.714.645-.561 4.968-16.893-1.907.561-4.968 5.714.645 3.365-29.811 5.465.617-3.365 29.811Z" stroke="url(#Vector__X)" stroke-opacity=".4" stroke-width="3.239" shape-rendering="crispEdges" mask="url(#Vector__I)"/><path d="m149.019 33.832-9.278-19.03 5.798-.783 5.434 12.234.099-.014 1.999-13.236 5.302-.715-3.903 20.809 1.991 14.766-5.45.735-1.992-14.766Z" stroke="url(#Vector__Y)" stroke-opacity=".4" stroke-width="3.239" shape-rendering="crispEdges" mask="url(#Vector__I)"/><path d="m190.457 315.807 9.278 19.03-5.798.783-5.434-12.234-.099.014-1.999 13.236-5.302.715 3.904-20.809-1.992-14.766 5.45-.735 1.992 14.766Z" stroke="url(#Vector__Z)" stroke-opacity=".4" stroke-width="3.239" shape-rendering="crispEdges" mask="url(#Vector__I)"/><path d="m118.923 20.793 7.111-2.222 15.877 31.708-5.25 1.64-3.027-6.335.03.095-5.965 1.864 1.088 6.836-4.868 1.521-4.996-35.107Zm12.704 20.546-7.497-15.782-.095.03 2.868 17.228 4.724-1.476Z" stroke="url(#Vector__aa)" stroke-opacity=".4" stroke-width="3.239" shape-rendering="crispEdges" mask="url(#Vector__I)"/><path d="m220.553 328.846-7.111 2.222-15.877-31.708 5.25-1.64 3.027 6.335-.03-.095 5.966-1.864-1.088-6.836 4.868-1.521 4.995 35.107ZM207.849 308.3l7.497 15.782.095-.029-2.867-17.229-4.725 1.476Z" stroke="url(#Vector__ab)" stroke-opacity=".4" stroke-width="3.239" shape-rendering="crispEdges" mask="url(#Vector__I)"/><path d="m81.567 38.246 4.636-2.569 15.183 22.34.087-.048L90.707 33.18l5.248-2.908 15.315 22.267.087-.048-10.897-24.716 4.154-2.302 13.862 32.333-5.991 3.32-13.627-19.429-.088.049 9.254 21.853-6.385 3.539-20.072-28.892Z" stroke="url(#Vector__ac)" stroke-opacity=".4" stroke-width="3.239" shape-rendering="crispEdges" mask="url(#Vector__I)"/><path d="m257.909 311.393-4.636 2.569-15.183-22.34-.087.048 10.766 24.789-5.248 2.908-15.314-22.267-.088.048 10.897 24.716-4.154 2.302L221 291.833l5.992-3.321 13.626 19.43.088-.049-9.254-21.853 6.385-3.539 20.072 28.892Z" stroke="url(#Vector__ad)" stroke-opacity=".4" stroke-width="3.239" shape-rendering="crispEdges" mask="url(#Vector__I)"/><path d="m51.02 66.51 5.652-5.871c1.965-2.042 3.878-3.068 5.74-3.08 1.839-.035 3.742.895 5.712 2.79l1.549 1.491c2.617 2.52 3.442 4.98 2.475 7.38l.072.069c1.212-.684 2.448-.79 3.707-.319 1.281.447 2.666 1.387 4.155 2.82l4.431 4.265c.72.694 1.332 1.236 1.835 1.627a6.067 6.067 0 0 0 1.643.888l-3.883 4.035a8.019 8.019 0 0 1-1.43-.821c-.407-.299-1.078-.9-2.015-1.8l-4.611-4.439c-1.153-1.11-2.142-1.692-2.968-1.747-.803-.079-1.644.338-2.523 1.25l-1.317 1.37L80.05 86.82l-3.814 3.963L51.02 66.51Zm16.008 5c.763-.793 1.125-1.578 1.087-2.355-.015-.802-.503-1.665-1.464-2.59l-1.945-1.871c-.913-.879-1.735-1.347-2.467-1.403-.709-.081-1.398.227-2.069.923l-1.733 1.802 7.204 6.934 1.387-1.44Z" stroke="url(#Vector__ae)" stroke-opacity=".4" stroke-width="3.239" shape-rendering="crispEdges" mask="url(#Vector__I)"/><path d="M288.456 283.128 282.804 289c-1.965 2.042-3.878 3.068-5.74 3.08-1.839.035-3.742-.895-5.712-2.79l-1.549-1.491c-2.617-2.52-3.442-4.98-2.474-7.379l-.072-.07c-1.213.684-2.449.79-3.707.319-1.282-.447-2.667-1.387-4.156-2.821l-4.431-4.264c-.721-.694-1.332-1.236-1.835-1.627a6.065 6.065 0 0 0-1.643-.888l3.883-4.035a8.047 8.047 0 0 1 1.43.821c.407.299 1.078.899 2.015 1.801l4.611 4.438c1.153 1.109 2.142 1.692 2.969 1.747.803.079 1.643-.338 2.522-1.251l1.317-1.369-10.807-10.402 3.814-3.962 25.217 24.271Zm-16.008-4.998c-.763.792-1.125 1.577-1.087 2.354.015.802.503 1.664 1.464 2.589l1.945 1.873c.913.878 1.735 1.345 2.467 1.402.709.081 1.398-.227 2.069-.923l1.733-1.801-7.204-6.935-1.387 1.441Z" stroke="url(#Vector__af)" stroke-opacity=".4" stroke-width="3.239" shape-rendering="crispEdges" mask="url(#Vector__I)"/><path d="m40.806 79.276 3.25-4.437L72.29 95.52l-3.25 4.437-28.235-20.682Z" stroke="url(#Vector__ag)" stroke-opacity=".4" stroke-width="3.239" shape-rendering="crispEdges" mask="url(#Vector__I)"/><path d="m298.67 270.363-3.25 4.437-28.235-20.682 3.25-4.437 28.235 20.682Z" stroke="url(#Vector__ah)" stroke-opacity=".4" stroke-width="3.239" shape-rendering="crispEdges" mask="url(#Vector__I)"/><path d="m28.815 98.87 3.503-6.575 33.57 11.426-2.587 4.854-6.604-2.385.089.047-2.939 5.516 5.575 4.104-2.397 4.501-28.21-21.488Zm23.473 5.707-16.42-5.972-.047.089 14.14 10.252 2.327-4.369Z" stroke="url(#Vector__ai)" stroke-opacity=".4" stroke-width="3.239" shape-rendering="crispEdges" mask="url(#Vector__I)"/><path d="m310.661 250.769-3.503 6.575-33.569-11.426 2.586-4.854 6.604 2.385-.089-.047 2.939-5.516-5.575-4.103 2.398-4.502 28.209 21.488Zm-23.473-5.707 16.421 5.972.047-.089-14.14-10.252-2.328 4.369Z" stroke="url(#Vector__aj)" stroke-opacity=".4" stroke-width="3.239" shape-rendering="crispEdges" mask="url(#Vector__I)"/><path d="m18.57 124.247 4.826-13.726 4.717 1.659-3.002 8.537 9.198 3.234 2.355-6.698 4.717 1.659-2.355 6.698 14.387 5.058-1.825 5.189-33.018-11.61Z" stroke="url(#Vector__ak)" stroke-opacity=".4" stroke-width="3.239" shape-rendering="crispEdges" mask="url(#Vector__I)"/><path d="m320.906 225.392-4.826 13.726-4.717-1.659 3.002-8.537-9.198-3.234-2.355 6.698-4.717-1.659 2.355-6.698-14.387-5.058 1.825-5.189 33.018 11.61Z" stroke="url(#Vector__al)" stroke-opacity=".4" stroke-width="3.239" shape-rendering="crispEdges" mask="url(#Vector__I)"/><path d="m12.538 159.339.65-7.421 35.363-2.627-.48 5.479-7.01.391.1.008-.545 6.226 6.736 1.594-.444 5.081-34.37-8.731Zm23.834-3.936-17.448.932-.008.099 17.024 3.9.432-4.931Z" stroke="url(#Vector__am)" stroke-opacity=".4" stroke-width="3.239" shape-rendering="crispEdges" mask="url(#Vector__I)"/><path d="m326.938 190.3-.649 7.421-35.364 2.627.479-5.479 7.011-.39-.099-.009.545-6.226-6.737-1.594.445-5.08 34.369 8.73Zm-23.834 3.936 17.448-.932.009-.099-17.025-3.9-.432 4.931Z" stroke="url(#Vector__an)" stroke-opacity=".4" stroke-width="3.239" shape-rendering="crispEdges" mask="url(#Vector__I)"/></g><defs><radialGradient id="Vector__b" cx="0" cy="0" r="1" gradientUnits="userSpaceOnUse" gradientTransform="matrix(-158 0 0 -163 169.868 174.901)"><stop offset=".791" stop-color="#B18B2F"/><stop offset=".895" stop-color="#FFCB68"/><stop offset="1" stop-color="#B18B2F"/></radialGradient><radialGradient id="Vector__c" cx="0" cy="0" r="1" gradientUnits="userSpaceOnUse" gradientTransform="matrix(-158 0 0 -163 169.868 174.901)"><stop offset=".791" stop-color="#B18B2F"/><stop offset=".895" stop-color="#FFCB68"/><stop offset="1" stop-color="#B18B2F"/></radialGradient><radialGradient id="Vector__d" cx="0" cy="0" r="1" gradientUnits="userSpaceOnUse" gradientTransform="matrix(-158 0 0 -163 169.868 174.901)"><stop offset=".791" stop-color="#B18B2F"/><stop offset=".895" stop-color="#FFCB68"/><stop offset="1" stop-color="#B18B2F"/></radialGradient><radialGradient id="Vector__e" cx="0" cy="0" r="1" gradientUnits="userSpaceOnUse" gradientTransform="matrix(-158 0 0 -163 169.868 174.901)"><stop offset=".791" stop-color="#B18B2F"/><stop offset=".895" stop-color="#FFCB68"/><stop offset="1" stop-color="#B18B2F"/></radialGradient><radialGradient id="Vector__f" cx="0" cy="0" r="1" gradientUnits="userSpaceOnUse" gradientTransform="matrix(-158 0 0 -163 169.868 174.901)"><stop offset=".791" stop-color="#B18B2F"/><stop offset=".895" stop-color="#FFCB68"/><stop offset="1" stop-color="#B18B2F"/></radialGradient><radialGradient id="Vector__g" cx="0" cy="0" r="1" gradientUnits="userSpaceOnUse" gradientTransform="matrix(-158 0 0 -163 169.868 174.901)"><stop offset=".791" stop-color="#B18B2F"/><stop offset=".895" stop-color="#FFCB68"/><stop offset="1" stop-color="#B18B2F"/></radialGradient><radialGradient id="Vector__h" cx="0" cy="0" r="1" gradientUnits="userSpaceOnUse" gradientTransform="matrix(-158 0 0 -163 169.868 174.901)"><stop offset=".791" stop-color="#B18B2F"/><stop offset=".895" stop-color="#FFCB68"/><stop offset="1" stop-color="#B18B2F"/></radialGradient><radialGradient id="Vector__i" cx="0" cy="0" r="1" gradientUnits="userSpaceOnUse" gradientTransform="matrix(-158 0 0 -163 169.868 174.901)"><stop offset=".791" stop-color="#B18B2F"/><stop offset=".895" stop-color="#FFCB68"/><stop offset="1" stop-color="#B18B2F"/></radialGradient><radialGradient id="Vector__j" cx="0" cy="0" r="1" gradientUnits="userSpaceOnUse" gradientTransform="matrix(-158 0 0 -163 169.868 174.901)"><stop offset=".791" stop-color="#B18B2F"/><stop offset=".895" stop-color="#FFCB68"/><stop offset="1" stop-color="#B18B2F"/></radialGradient><radialGradient id="Vector__k" cx="0" cy="0" r="1" gradientUnits="userSpaceOnUse" gradientTransform="matrix(-158 0 0 -163 169.868 174.901)"><stop offset=".791" stop-color="#B18B2F"/><stop offset=".895" stop-color="#FFCB68"/><stop offset="1" stop-color="#B18B2F"/></radialGradient><radialGradient id="Vector__l" cx="0" cy="0" r="1" gradientUnits="userSpaceOnUse" gradientTransform="matrix(-158 0 0 -163 169.868 174.901)"><stop offset=".791" stop-color="#B18B2F"/><stop offset=".895" stop-color="#FFCB68"/><stop offset="1" stop-color="#B18B2F"/></radialGradient><radialGradient id="Vector__m" cx="0" cy="0" r="1" gradientUnits="userSpaceOnUse" gradientTransform="matrix(-158 0 0 -163 169.868 174.901)"><stop offset=".791" stop-color="#B18B2F"/><stop offset=".895" stop-color="#FFCB68"/><stop offset="1" stop-color="#B18B2F"/></radialGradient><radialGradient id="Vector__n" cx="0" cy="0" r="1" gradientUnits="userSpaceOnUse" gradientTransform="matrix(-158 0 0 -163 169.868 174.901)"><stop offset=".791" stop-color="#B18B2F"/><stop offset=".895" stop-color="#FFCB68"/><stop offset="1" stop-color="#B18B2F"/></radialGradient><radialGradient id="Vector__o" cx="0" cy="0" r="1" gradientUnits="userSpaceOnUse" gradientTransform="matrix(-158 0 0 -163 169.868 174.901)"><stop offset=".791" stop-color="#B18B2F"/><stop offset=".895" stop-color="#FFCB68"/><stop offset="1" stop-color="#B18B2F"/></radialGradient><radialGradient id="Vector__p" cx="0" cy="0" r="1" gradientUnits="userSpaceOnUse" gradientTransform="matrix(-158 0 0 -163 169.868 174.901)"><stop offset=".791" stop-color="#B18B2F"/><stop offset=".895" stop-color="#FFCB68"/><stop offset="1" stop-color="#B18B2F"/></radialGradient><radialGradient id="Vector__q" cx="0" cy="0" r="1" gradientUnits="userSpaceOnUse" gradientTransform="matrix(-158 0 0 -163 169.868 174.901)"><stop offset=".791" stop-color="#B18B2F"/><stop offset=".895" stop-color="#FFCB68"/><stop offset="1" stop-color="#B18B2F"/></radialGradient><radialGradient id="Vector__r" cx="0" cy="0" r="1" gradientUnits="userSpaceOnUse" gradientTransform="matrix(-158 0 0 -163 169.868 174.901)"><stop offset=".791" stop-color="#B18B2F"/><stop offset=".895" stop-color="#FFCB68"/><stop offset="1" stop-color="#B18B2F"/></radialGradient><radialGradient id="Vector__s" cx="0" cy="0" r="1" gradientUnits="userSpaceOnUse" gradientTransform="matrix(-158 0 0 -163 169.868 174.901)"><stop offset=".791" stop-color="#B18B2F"/><stop offset=".895" stop-color="#FFCB68"/><stop offset="1" stop-color="#B18B2F"/></radialGradient><radialGradient id="Vector__t" cx="0" cy="0" r="1" gradientUnits="userSpaceOnUse" gradientTransform="matrix(-158 0 0 -163 169.868 174.901)"><stop offset=".791" stop-color="#B18B2F"/><stop offset=".895" stop-color="#FFCB68"/><stop offset="1" stop-color="#B18B2F"/></radialGradient><radialGradient id="Vector__u" cx="0" cy="0" r="1" gradientUnits="userSpaceOnUse" gradientTransform="matrix(-158 0 0 -163 169.868 174.901)"><stop offset=".791" stop-color="#B18B2F"/><stop offset=".895" stop-color="#FFCB68"/><stop offset="1" stop-color="#B18B2F"/></radialGradient><radialGradient id="Vector__v" cx="0" cy="0" r="1" gradientUnits="userSpaceOnUse" gradientTransform="matrix(-158 0 0 -163 169.868 174.901)"><stop offset=".791" stop-color="#B18B2F"/><stop offset=".895" stop-color="#FFCB68"/><stop offset="1" stop-color="#B18B2F"/></radialGradient><radialGradient id="Vector__w" cx="0" cy="0" r="1" gradientUnits="userSpaceOnUse" gradientTransform="matrix(-158 0 0 -163 169.868 174.901)"><stop offset=".791" stop-color="#B18B2F"/><stop offset=".895" stop-color="#FFCB68"/><stop offset="1" stop-color="#B18B2F"/></radialGradient><radialGradient id="Vector__x" cx="0" cy="0" r="1" gradientUnits="userSpaceOnUse" gradientTransform="matrix(-158 0 0 -163 169.868 174.901)"><stop offset=".791" stop-color="#B18B2F"/><stop offset=".895" stop-color="#FFCB68"/><stop offset="1" stop-color="#B18B2F"/></radialGradient><radialGradient id="Vector__y" cx="0" cy="0" r="1" gradientUnits="userSpaceOnUse" gradientTransform="matrix(-158 0 0 -163 169.868 174.901)"><stop offset=".791" stop-color="#B18B2F"/><stop offset=".895" stop-color="#FFCB68"/><stop offset="1" stop-color="#B18B2F"/></radialGradient><radialGradient id="Vector__z" cx="0" cy="0" r="1" gradientUnits="userSpaceOnUse" gradientTransform="matrix(-158 0 0 -163 169.868 174.901)"><stop offset=".791" stop-color="#B18B2F"/><stop offset=".895" stop-color="#FFCB68"/><stop offset="1" stop-color="#B18B2F"/></radialGradient><radialGradient id="Vector__A" cx="0" cy="0" r="1" gradientUnits="userSpaceOnUse" gradientTransform="matrix(-158 0 0 -163 169.868 174.901)"><stop offset=".791" stop-color="#B18B2F"/><stop offset=".895" stop-color="#FFCB68"/><stop offset="1" stop-color="#B18B2F"/></radialGradient><radialGradient id="Vector__B" cx="0" cy="0" r="1" gradientUnits="userSpaceOnUse" gradientTransform="matrix(-158 0 0 -163 169.868 174.901)"><stop offset=".791" stop-color="#B18B2F"/><stop offset=".895" stop-color="#FFCB68"/><stop offset="1" stop-color="#B18B2F"/></radialGradient><radialGradient id="Vector__C" cx="0" cy="0" r="1" gradientUnits="userSpaceOnUse" gradientTransform="matrix(-158 0 0 -163 169.868 174.901)"><stop offset=".791" stop-color="#B18B2F"/><stop offset=".895" stop-color="#FFCB68"/><stop offset="1" stop-color="#B18B2F"/></radialGradient><radialGradient id="Vector__D" cx="0" cy="0" r="1" gradientUnits="userSpaceOnUse" gradientTransform="matrix(-158 0 0 -163 169.868 174.901)"><stop offset=".791" stop-color="#B18B2F"/><stop offset=".895" stop-color="#FFCB68"/><stop offset="1" stop-color="#B18B2F"/></radialGradient><radialGradient id="Vector__E" cx="0" cy="0" r="1" gradientUnits="userSpaceOnUse" gradientTransform="matrix(-158 0 0 -163 169.868 174.901)"><stop offset=".791" stop-color="#B18B2F"/><stop offset=".895" stop-color="#FFCB68"/><stop offset="1" stop-color="#B18B2F"/></radialGradient><radialGradient id="Vector__F" cx="0" cy="0" r="1" gradientUnits="userSpaceOnUse" gradientTransform="matrix(-158 0 0 -163 169.868 174.901)"><stop offset=".791" stop-color="#B18B2F"/><stop offset=".895" stop-color="#FFCB68"/><stop offset="1" stop-color="#B18B2F"/></radialGradient><radialGradient id="Vector__G" cx="0" cy="0" r="1" gradientUnits="userSpaceOnUse" gradientTransform="matrix(-158 0 0 -163 169.868 174.901)"><stop offset=".791" stop-color="#B18B2F"/><stop offset=".895" stop-color="#FFCB68"/><stop offset="1" stop-color="#B18B2F"/></radialGradient><linearGradient id="Vector__H" x1="328.605" y1="194.194" x2="284.773" y2="190.358" gradientUnits="userSpaceOnUse"><stop stop-color="#39301A"/><stop offset="1" stop-color="#9F8649"/></linearGradient><linearGradient id="Vector__J" x1="328.605" y1="194.194" x2="284.773" y2="190.358" gradientUnits="userSpaceOnUse"><stop stop-color="#39301A"/><stop offset="1" stop-color="#9F8649"/></linearGradient><linearGradient id="Vector__K" x1="328.605" y1="194.194" x2="284.773" y2="190.358" gradientUnits="userSpaceOnUse"><stop stop-color="#39301A"/><stop offset="1" stop-color="#9F8649"/></linearGradient><linearGradient id="Vector__L" x1="328.605" y1="194.194" x2="284.773" y2="190.358" gradientUnits="userSpaceOnUse"><stop stop-color="#39301A"/><stop offset="1" stop-color="#9F8649"/></linearGradient><linearGradient id="Vector__M" x1="328.605" y1="194.194" x2="284.773" y2="190.358" gradientUnits="userSpaceOnUse"><stop stop-color="#39301A"/><stop offset="1" stop-color="#9F8649"/></linearGradient><linearGradient id="Vector__N" x1="328.605" y1="194.194" x2="284.773" y2="190.358" gradientUnits="userSpaceOnUse"><stop stop-color="#39301A"/><stop offset="1" stop-color="#9F8649"/></linearGradient><linearGradient id="Vector__O" x1="328.605" y1="194.194" x2="284.773" y2="190.358" gradientUnits="userSpaceOnUse"><stop stop-color="#39301A"/><stop offset="1" stop-color="#9F8649"/></linearGradient><linearGradient id="Vector__P" x1="328.605" y1="194.194" x2="284.773" y2="190.358" gradientUnits="userSpaceOnUse"><stop stop-color="#39301A"/><stop offset="1" stop-color="#9F8649"/></linearGradient><linearGradient id="Vector__Q" x1="328.605" y1="194.194" x2="284.773" y2="190.358" gradientUnits="userSpaceOnUse"><stop stop-color="#39301A"/><stop offset="1" stop-color="#9F8649"/></linearGradient><linearGradient id="Vector__R" x1="328.605" y1="194.194" x2="284.773" y2="190.358" gradientUnits="userSpaceOnUse"><stop stop-color="#39301A"/><stop offset="1" stop-color="#9F8649"/></linearGradient><linearGradient id="Vector__S" x1="328.605" y1="194.194" x2="284.773" y2="190.358" gradientUnits="userSpaceOnUse"><stop stop-color="#39301A"/><stop offset="1" stop-color="#9F8649"/></linearGradient><linearGradient id="Vector__T" x1="328.605" y1="194.194" x2="284.773" y2="190.358" gradientUnits="userSpaceOnUse"><stop stop-color="#39301A"/><stop offset="1" stop-color="#9F8649"/></linearGradient><linearGradient id="Vector__U" x1="328.605" y1="194.194" x2="284.773" y2="190.358" gradientUnits="userSpaceOnUse"><stop stop-color="#39301A"/><stop offset="1" stop-color="#9F8649"/></linearGradient><linearGradient id="Vector__V" x1="328.605" y1="194.194" x2="284.773" y2="190.358" gradientUnits="userSpaceOnUse"><stop stop-color="#39301A"/><stop offset="1" stop-color="#9F8649"/></linearGradient><linearGradient id="Vector__W" x1="328.605" y1="194.194" x2="284.773" y2="190.358" gradientUnits="userSpaceOnUse"><stop stop-color="#39301A"/><stop offset="1" stop-color="#9F8649"/></linearGradient><linearGradient id="Vector__X" x1="328.605" y1="194.194" x2="284.773" y2="190.358" gradientUnits="userSpaceOnUse"><stop stop-color="#39301A"/><stop offset="1" stop-color="#9F8649"/></linearGradient><linearGradient id="Vector__Y" x1="328.605" y1="194.194" x2="284.773" y2="190.358" gradientUnits="userSpaceOnUse"><stop stop-color="#39301A"/><stop offset="1" stop-color="#9F8649"/></linearGradient><linearGradient id="Vector__Z" x1="328.605" y1="194.194" x2="284.773" y2="190.358" gradientUnits="userSpaceOnUse"><stop stop-color="#39301A"/><stop offset="1" stop-color="#9F8649"/></linearGradient><linearGradient id="Vector__aa" x1="328.605" y1="194.194" x2="284.773" y2="190.358" gradientUnits="userSpaceOnUse"><stop stop-color="#39301A"/><stop offset="1" stop-color="#9F8649"/></linearGradient><linearGradient id="Vector__ab" x1="328.605" y1="194.194" x2="284.773" y2="190.358" gradientUnits="userSpaceOnUse"><stop stop-color="#39301A"/><stop offset="1" stop-color="#9F8649"/></linearGradient><linearGradient id="Vector__ac" x1="328.605" y1="194.194" x2="284.773" y2="190.358" gradientUnits="userSpaceOnUse"><stop stop-color="#39301A"/><stop offset="1" stop-color="#9F8649"/></linearGradient><linearGradient id="Vector__ad" x1="328.605" y1="194.194" x2="284.773" y2="190.358" gradientUnits="userSpaceOnUse"><stop stop-color="#39301A"/><stop offset="1" stop-color="#9F8649"/></linearGradient><linearGradient id="Vector__ae" x1="328.605" y1="194.194" x2="284.773" y2="190.358" gradientUnits="userSpaceOnUse"><stop stop-color="#39301A"/><stop offset="1" stop-color="#9F8649"/></linearGradient><linearGradient id="Vector__af" x1="328.605" y1="194.194" x2="284.773" y2="190.358" gradientUnits="userSpaceOnUse"><stop stop-color="#39301A"/><stop offset="1" stop-color="#9F8649"/></linearGradient><linearGradient id="Vector__ag" x1="328.605" y1="194.194" x2="284.773" y2="190.358" gradientUnits="userSpaceOnUse"><stop stop-color="#39301A"/><stop offset="1" stop-color="#9F8649"/></linearGradient><linearGradient id="Vector__ah" x1="328.605" y1="194.194" x2="284.773" y2="190.358" gradientUnits="userSpaceOnUse"><stop stop-color="#39301A"/><stop offset="1" stop-color="#9F8649"/></linearGradient><linearGradient id="Vector__ai" x1="328.605" y1="194.194" x2="284.773" y2="190.358" gradientUnits="userSpaceOnUse"><stop stop-color="#39301A"/><stop offset="1" stop-color="#9F8649"/></linearGradient><linearGradient id="Vector__aj" x1="328.605" y1="194.194" x2="284.773" y2="190.358" gradientUnits="userSpaceOnUse"><stop stop-color="#39301A"/><stop offset="1" stop-color="#9F8649"/></linearGradient><linearGradient id="Vector__ak" x1="328.605" y1="194.194" x2="284.773" y2="190.358" gradientUnits="userSpaceOnUse"><stop stop-color="#39301A"/><stop offset="1" stop-color="#9F8649"/></linearGradient><linearGradient id="Vector__al" x1="328.605" y1="194.194" x2="284.773" y2="190.358" gradientUnits="userSpaceOnUse"><stop stop-color="#39301A"/><stop offset="1" stop-color="#9F8649"/></linearGradient><linearGradient id="Vector__am" x1="328.605" y1="194.194" x2="284.773" y2="190.358" gradientUnits="userSpaceOnUse"><stop stop-color="#39301A"/><stop offset="1" stop-color="#9F8649"/></linearGradient><linearGradient id="Vector__an" x1="328.605" y1="194.194" x2="284.773" y2="190.358" gradientUnits="userSpaceOnUse"><stop stop-color="#39301A"/><stop offset="1" stop-color="#9F8649"/></linearGradient><filter id="Vector__a" x=".239" y=".209" width="338.998" height="349.221" filterUnits="userSpaceOnUse" color-interpolation-filters="sRGB"><feFlood flood-opacity="0" result="BackgroundImageFix"/><feColorMatrix in="SourceAlpha" values="0 0 0 0 0 0 0 0 0 0 0 0 0 0 0 0 0 0 127 0" result="hardAlpha"/><feOffset/><feGaussianBlur stdDeviation="5"/><feComposite in2="hardAlpha" operator="out"/><feColorMatrix values="0 0 0 0 0.856803 0 0 0 0 0.730251 0 0 0 0 0.358759 0 0 0 0.2 0"/><feBlend in2="BackgroundImageFix" result="effect1_dropShadow_213_857"/><feBlend in="SourceGraphic" in2="effect1_dropShadow_213_857" result="shape"/></filter></defs></svg>