<svg width="694" height="652" viewBox="0 0 694 652" fill="none" xmlns="http://www.w3.org/2000/svg">
<g filter="url(#filter0_bdi_406_1441)">
<g filter="url(#filter1_b_406_1441)">
<mask id="path-1-inside-1_406_1441" fill="white">
<path fill-rule="evenodd" clip-rule="evenodd" d="M9 614.784C9 627.468 19.2821 637.75 31.9656 637.75L662.534 637.75C675.218 637.75 685.5 627.468 685.5 614.784L685.5 25.7156C685.5 13.032 675.218 2.74997 662.534 2.74997L31.9656 2.75C19.282 2.75 8.99997 13.032 8.99997 25.7156L9 614.784ZM42.3002 605.598C37.8609 605.598 34.2622 600.634 34.2622 594.51L34.2622 447.192C34.2622 441.068 37.8609 436.104 42.3002 436.104L59.5244 436.104C63.9637 436.104 67.5624 441.068 67.5624 447.192L67.5624 594.51C67.5624 600.634 63.9637 605.598 59.5244 605.598L42.3002 605.598ZM42.3002 404.423C37.8609 404.423 34.2622 399.458 34.2622 393.335L34.2622 246.017C34.2622 239.893 37.8609 234.929 42.3002 234.929L59.5244 234.929C63.9636 234.929 67.5624 239.893 67.5624 246.017L67.5624 393.335C67.5624 399.458 63.9637 404.423 59.5244 404.423L42.3002 404.423ZM34.2622 192.159C34.2622 198.283 37.8609 203.248 42.3002 203.248L59.5244 203.248C63.9636 203.248 67.5624 198.283 67.5624 192.159L67.5624 44.842C67.5624 38.7181 63.9636 33.7536 59.5244 33.7536L42.3002 33.7536C37.8609 33.7536 34.2622 38.7181 34.2622 44.842L34.2622 192.159Z"/>
</mask>
<path fill-rule="evenodd" clip-rule="evenodd" d="M9 614.784C9 627.468 19.2821 637.75 31.9656 637.75L662.534 637.75C675.218 637.75 685.5 627.468 685.5 614.784L685.5 25.7156C685.5 13.032 675.218 2.74997 662.534 2.74997L31.9656 2.75C19.282 2.75 8.99997 13.032 8.99997 25.7156L9 614.784ZM42.3002 605.598C37.8609 605.598 34.2622 600.634 34.2622 594.51L34.2622 447.192C34.2622 441.068 37.8609 436.104 42.3002 436.104L59.5244 436.104C63.9637 436.104 67.5624 441.068 67.5624 447.192L67.5624 594.51C67.5624 600.634 63.9637 605.598 59.5244 605.598L42.3002 605.598ZM42.3002 404.423C37.8609 404.423 34.2622 399.458 34.2622 393.335L34.2622 246.017C34.2622 239.893 37.8609 234.929 42.3002 234.929L59.5244 234.929C63.9636 234.929 67.5624 239.893 67.5624 246.017L67.5624 393.335C67.5624 399.458 63.9637 404.423 59.5244 404.423L42.3002 404.423ZM34.2622 192.159C34.2622 198.283 37.8609 203.248 42.3002 203.248L59.5244 203.248C63.9636 203.248 67.5624 198.283 67.5624 192.159L67.5624 44.842C67.5624 38.7181 63.9636 33.7536 59.5244 33.7536L42.3002 33.7536C37.8609 33.7536 34.2622 38.7181 34.2622 44.842L34.2622 192.159Z" fill="#89793F" fill-opacity="0.1"/>
<path d="M31.9656 635.453C20.5504 635.453 11.2966 626.2 11.2966 614.784L6.70343 614.784C6.70344 628.736 18.0137 640.047 31.9656 640.047L31.9656 635.453ZM662.534 635.453L31.9656 635.453L31.9656 640.047L662.534 640.047L662.534 635.453ZM683.203 614.784C683.203 626.2 673.95 635.453 662.534 635.453L662.534 640.047C676.486 640.047 687.797 628.736 687.797 614.784L683.203 614.784ZM683.203 25.7156L683.203 614.784L687.797 614.784L687.797 25.7156L683.203 25.7156ZM662.534 5.04654C673.95 5.04654 683.203 14.3004 683.203 25.7156L687.797 25.7156C687.797 11.7636 676.486 0.453401 662.534 0.453402L662.534 5.04654ZM31.9656 5.04657L662.534 5.04654L662.534 0.453402L31.9656 0.453429L31.9656 5.04657ZM11.2965 25.7156C11.2965 14.3004 20.5504 5.04657 31.9656 5.04657L31.9656 0.453429C18.0137 0.45343 6.70341 11.7637 6.70341 25.7156L11.2965 25.7156ZM11.2966 614.784L11.2965 25.7156L6.70341 25.7156L6.70343 614.784L11.2966 614.784ZM31.9656 594.51C31.9656 598.003 32.9886 601.259 34.7571 603.698C36.5236 606.135 39.1615 607.895 42.3002 607.895L42.3002 603.302C40.9997 603.302 39.6185 602.579 38.4759 601.002C37.3351 599.429 36.5588 597.141 36.5588 594.51L31.9656 594.51ZM31.9656 447.192L31.9656 594.51L36.5588 594.51L36.5588 447.192L31.9656 447.192ZM42.3002 433.807C39.1614 433.807 36.5236 435.567 34.7571 438.004C32.9886 440.443 31.9656 443.699 31.9656 447.192L36.5588 447.192C36.5588 444.561 37.3351 442.273 38.4759 440.7C39.6185 439.123 40.9996 438.401 42.3002 438.401L42.3002 433.807ZM59.5244 433.807L42.3002 433.807L42.3002 438.401L59.5244 438.401L59.5244 433.807ZM69.8589 447.192C69.8589 443.699 68.8359 440.443 67.0675 438.004C65.301 435.567 62.6631 433.807 59.5244 433.807L59.5244 438.401C60.8249 438.401 62.2061 439.123 63.3487 440.7C64.4895 442.273 65.2658 444.561 65.2658 447.192L69.8589 447.192ZM69.859 594.51L69.8589 447.192L65.2658 447.192L65.2658 594.51L69.859 594.51ZM59.5244 607.895C62.6631 607.895 65.301 606.135 67.0675 603.698C68.836 601.259 69.859 598.003 69.859 594.51L65.2658 594.51C65.2658 597.141 64.4895 599.429 63.3487 601.002C62.2061 602.579 60.8249 603.302 59.5244 603.302L59.5244 607.895ZM42.3002 607.895L59.5244 607.895L59.5244 603.302L42.3002 603.302L42.3002 607.895ZM31.9656 393.335C31.9656 396.827 32.9886 400.084 34.7571 402.523C36.5236 404.96 39.1614 406.719 42.3002 406.719L42.3002 402.126C40.9996 402.126 39.6185 401.404 38.4759 399.827C37.3351 398.254 36.5588 395.965 36.5588 393.335L31.9656 393.335ZM31.9656 246.017L31.9656 393.335L36.5588 393.335L36.5588 246.017L31.9656 246.017ZM42.3002 232.632C39.1614 232.632 36.5236 234.392 34.757 236.829C32.9886 239.268 31.9656 242.524 31.9656 246.017L36.5588 246.017C36.5588 243.386 37.3351 241.098 38.4759 239.524C39.6185 237.948 40.9996 237.225 42.3002 237.225L42.3002 232.632ZM59.5244 232.632L42.3002 232.632L42.3002 237.225L59.5244 237.225L59.5244 232.632ZM69.8589 246.017C69.8589 242.524 68.8359 239.268 67.0675 236.829C65.301 234.392 62.6631 232.632 59.5244 232.632L59.5244 237.225C60.8249 237.225 62.206 237.948 63.3487 239.524C64.4894 241.098 65.2658 243.386 65.2658 246.017L69.8589 246.017ZM69.8589 393.335L69.8589 246.017L65.2658 246.017L65.2658 393.335L69.8589 393.335ZM59.5244 406.719C62.6631 406.719 65.301 404.96 67.0675 402.523C68.8359 400.084 69.8589 396.827 69.8589 393.335L65.2658 393.335C65.2658 395.965 64.4894 398.254 63.3487 399.827C62.2061 401.404 60.8249 402.126 59.5244 402.126L59.5244 406.719ZM42.3002 406.719L59.5244 406.719L59.5244 402.126L42.3002 402.126L42.3002 406.719ZM42.3002 200.951C40.9996 200.951 39.6185 200.228 38.4759 198.652C37.3351 197.078 36.5587 194.79 36.5587 192.159L31.9656 192.159C31.9656 195.652 32.9886 198.908 34.757 201.348C36.5236 203.785 39.1614 205.544 42.3002 205.544L42.3002 200.951ZM59.5244 200.951L42.3002 200.951L42.3002 205.544L59.5244 205.544L59.5244 200.951ZM65.2658 192.159C65.2658 194.79 64.4894 197.078 63.3487 198.652C62.206 200.228 60.8249 200.951 59.5244 200.951L59.5244 205.544C62.6631 205.544 65.301 203.785 67.0675 201.348C68.8359 198.908 69.8589 195.652 69.8589 192.159L65.2658 192.159ZM65.2658 44.842L65.2658 192.159L69.8589 192.159L69.8589 44.842L65.2658 44.842ZM59.5244 36.0502C60.8249 36.0502 62.206 36.7729 63.3487 38.3492C64.4894 39.9229 65.2658 42.2111 65.2658 44.842L69.8589 44.842C69.8589 41.3491 68.8359 38.093 67.0675 35.6534C65.301 33.2165 62.6631 31.457 59.5244 31.457L59.5244 36.0502ZM42.3002 36.0502L59.5244 36.0502L59.5244 31.457L42.3002 31.457L42.3002 36.0502ZM36.5587 44.842C36.5587 42.2111 37.3351 39.9229 38.4759 38.3492C39.6185 36.7729 40.9996 36.0502 42.3002 36.0502L42.3002 31.457C39.1614 31.457 36.5236 33.2165 34.757 35.6534C32.9886 38.093 31.9656 41.3491 31.9656 44.842L36.5587 44.842ZM36.5587 192.159L36.5587 44.842L31.9656 44.842L31.9656 192.159L36.5587 192.159Z" fill="#DABA5B" fill-opacity="0.12" mask="url(#path-1-inside-1_406_1441)"/>
</g>
</g>
<defs>
<filter id="filter0_bdi_406_1441" x="-21.8326" y="-28.0826" width="738.165" height="696.665" filterUnits="userSpaceOnUse" color-interpolation-filters="sRGB">
<feFlood flood-opacity="0" result="BackgroundImageFix"/>
<feGaussianBlur in="BackgroundImageFix" stdDeviation="15.4163"/>
<feComposite in2="SourceAlpha" operator="in" result="effect1_backgroundBlur_406_1441"/>
<feColorMatrix in="SourceAlpha" type="matrix" values="0 0 0 0 0 0 0 0 0 0 0 0 0 0 0 0 0 0 127 0" result="hardAlpha"/>
<feOffset dy="6.19288"/>
<feGaussianBlur stdDeviation="4.02537"/>
<feComposite in2="hardAlpha" operator="out"/>
<feColorMatrix type="matrix" values="0 0 0 0 0.111133 0 0 0 0 0.0900577 0 0 0 0 0.028192 0 0 0 1 0"/>
<feBlend mode="normal" in2="effect1_backgroundBlur_406_1441" result="effect2_dropShadow_406_1441"/>
<feBlend mode="normal" in="SourceGraphic" in2="effect2_dropShadow_406_1441" result="shape"/>
<feColorMatrix in="SourceAlpha" type="matrix" values="0 0 0 0 0 0 0 0 0 0 0 0 0 0 0 0 0 0 127 0" result="hardAlpha"/>
<feOffset dy="4.21944"/>
<feGaussianBlur stdDeviation="3.85024"/>
<feComposite in2="hardAlpha" operator="arithmetic" k2="-1" k3="1"/>
<feColorMatrix type="matrix" values="0 0 0 0 0.903597 0 0 0 0 0.732888 0 0 0 0 0.323186 0 0 0 0.35 0"/>
<feBlend mode="normal" in2="shape" result="effect3_innerShadow_406_1441"/>
</filter>
<filter id="filter1_b_406_1441" x="-1.33454" y="-7.58454" width="697.169" height="655.669" filterUnits="userSpaceOnUse" color-interpolation-filters="sRGB">
<feFlood flood-opacity="0" result="BackgroundImageFix"/>
<feGaussianBlur in="BackgroundImageFix" stdDeviation="5.16727"/>
<feComposite in2="SourceAlpha" operator="in" result="effect1_backgroundBlur_406_1441"/>
<feBlend mode="normal" in="SourceGraphic" in2="effect1_backgroundBlur_406_1441" result="shape"/>
</filter>
</defs>
</svg>
