<svg width="709" height="668" viewBox="0 0 709 668" fill="none" xmlns="http://www.w3.org/2000/svg">
<g filter="url(#filter0_bdi_420_65)">
<g filter="url(#filter1_b_420_65)">
<mask id="path-1-inside-1_420_65" fill="white">
<path fill-rule="evenodd" clip-rule="evenodd" d="M16 622.784C16 635.468 26.2821 645.75 38.9656 645.75L669.534 645.75C682.218 645.75 692.5 635.468 692.5 622.784L692.5 33.7156C692.5 21.032 682.218 10.75 669.534 10.75L38.9656 10.75C26.282 10.75 16 21.032 16 33.7156L16 622.784ZM49.3002 613.598C44.8609 613.598 41.2622 608.634 41.2622 602.51L41.2622 455.192C41.2622 449.068 44.8609 444.104 49.3002 444.104L66.5244 444.104C70.9637 444.104 74.5624 449.068 74.5624 455.192L74.5624 602.51C74.5624 608.634 70.9637 613.598 66.5244 613.598L49.3002 613.598ZM49.3002 412.423C44.8609 412.423 41.2622 407.458 41.2622 401.335L41.2622 254.017C41.2622 247.893 44.8609 242.929 49.3002 242.929L66.5244 242.929C70.9636 242.929 74.5624 247.893 74.5624 254.017L74.5624 401.335C74.5624 407.458 70.9637 412.423 66.5244 412.423L49.3002 412.423ZM41.2622 200.159C41.2622 206.283 44.8609 211.248 49.3002 211.248L66.5244 211.248C70.9636 211.248 74.5624 206.283 74.5624 200.159L74.5624 52.842C74.5624 46.7181 70.9636 41.7536 66.5244 41.7536L49.3002 41.7536C44.8609 41.7536 41.2622 46.7181 41.2622 52.842L41.2622 200.159Z"/>
</mask>
<path fill-rule="evenodd" clip-rule="evenodd" d="M16 622.784C16 635.468 26.2821 645.75 38.9656 645.75L669.534 645.75C682.218 645.75 692.5 635.468 692.5 622.784L692.5 33.7156C692.5 21.032 682.218 10.75 669.534 10.75L38.9656 10.75C26.282 10.75 16 21.032 16 33.7156L16 622.784ZM49.3002 613.598C44.8609 613.598 41.2622 608.634 41.2622 602.51L41.2622 455.192C41.2622 449.068 44.8609 444.104 49.3002 444.104L66.5244 444.104C70.9637 444.104 74.5624 449.068 74.5624 455.192L74.5624 602.51C74.5624 608.634 70.9637 613.598 66.5244 613.598L49.3002 613.598ZM49.3002 412.423C44.8609 412.423 41.2622 407.458 41.2622 401.335L41.2622 254.017C41.2622 247.893 44.8609 242.929 49.3002 242.929L66.5244 242.929C70.9636 242.929 74.5624 247.893 74.5624 254.017L74.5624 401.335C74.5624 407.458 70.9637 412.423 66.5244 412.423L49.3002 412.423ZM41.2622 200.159C41.2622 206.283 44.8609 211.248 49.3002 211.248L66.5244 211.248C70.9636 211.248 74.5624 206.283 74.5624 200.159L74.5624 52.842C74.5624 46.7181 70.9636 41.7536 66.5244 41.7536L49.3002 41.7536C44.8609 41.7536 41.2622 46.7181 41.2622 52.842L41.2622 200.159Z" fill="#FF89EF" fill-opacity="0.1"/>
<path d="M669.534 10.75L669.534 13.0465L669.534 10.75ZM38.9656 10.75L38.9656 8.45343L38.9656 10.75ZM49.3002 613.598L49.3002 615.895L49.3002 613.598ZM66.5244 613.598L66.5244 611.302L66.5244 613.598ZM41.2622 200.159L43.5587 200.159L41.2622 200.159ZM74.5624 200.159L76.8589 200.159L74.5624 200.159ZM74.5624 52.842L72.2658 52.842L74.5624 52.842ZM41.2622 52.842L38.9656 52.842L41.2622 52.842ZM38.9656 643.453C27.5504 643.453 18.2966 634.2 18.2966 622.784L13.7034 622.784C13.7034 636.736 25.0137 648.047 38.9656 648.047L38.9656 643.453ZM669.534 643.453L38.9656 643.453L38.9656 648.047L669.534 648.047L669.534 643.453ZM690.203 622.784C690.203 634.2 680.95 643.453 669.534 643.453L669.534 648.047C683.486 648.047 694.797 636.736 694.797 622.784L690.203 622.784ZM690.203 33.7156L690.203 622.784L694.797 622.784L694.797 33.7156L690.203 33.7156ZM669.534 13.0465C680.95 13.0465 690.203 22.3004 690.203 33.7156L694.797 33.7156C694.797 19.7636 683.486 8.4534 669.534 8.4534L669.534 13.0465ZM38.9656 13.0466L669.534 13.0465L669.534 8.4534L38.9656 8.45343L38.9656 13.0466ZM18.2965 33.7156C18.2965 22.3004 27.5504 13.0466 38.9656 13.0466L38.9656 8.45343C25.0137 8.45343 13.7034 19.7637 13.7034 33.7156L18.2965 33.7156ZM18.2966 622.784L18.2965 33.7156L13.7034 33.7156L13.7034 622.784L18.2966 622.784ZM38.9656 602.51C38.9656 606.003 39.9886 609.259 41.7571 611.698C43.5236 614.135 46.1615 615.895 49.3002 615.895L49.3002 611.302C47.9997 611.302 46.6185 610.579 45.4759 609.002C44.3351 607.429 43.5588 605.141 43.5588 602.51L38.9656 602.51ZM38.9656 455.192L38.9656 602.51L43.5588 602.51L43.5588 455.192L38.9656 455.192ZM49.3002 441.807C46.1614 441.807 43.5236 443.567 41.7571 446.004C39.9886 448.443 38.9656 451.699 38.9656 455.192L43.5588 455.192C43.5588 452.561 44.3351 450.273 45.4759 448.7C46.6185 447.123 47.9996 446.401 49.3002 446.401L49.3002 441.807ZM66.5244 441.807L49.3002 441.807L49.3002 446.401L66.5244 446.401L66.5244 441.807ZM76.8589 455.192C76.8589 451.699 75.8359 448.443 74.0675 446.004C72.301 443.567 69.6631 441.807 66.5244 441.807L66.5244 446.401C67.8249 446.401 69.2061 447.123 70.3487 448.7C71.4895 450.273 72.2658 452.561 72.2658 455.192L76.8589 455.192ZM76.8589 602.51L76.8589 455.192L72.2658 455.192L72.2658 602.51L76.8589 602.51ZM66.5244 615.895C69.6631 615.895 72.301 614.135 74.0675 611.698C75.836 609.259 76.8589 606.003 76.8589 602.51L72.2658 602.51C72.2658 605.141 71.4895 607.429 70.3487 609.002C69.2061 610.579 67.8249 611.302 66.5244 611.302L66.5244 615.895ZM49.3002 615.895L66.5244 615.895L66.5244 611.302L49.3002 611.302L49.3002 615.895ZM38.9656 401.335C38.9656 404.827 39.9886 408.084 41.7571 410.523C43.5236 412.96 46.1614 414.719 49.3002 414.719L49.3002 410.126C47.9996 410.126 46.6185 409.404 45.4759 407.827C44.3351 406.254 43.5588 403.965 43.5588 401.335L38.9656 401.335ZM38.9656 254.017L38.9656 401.335L43.5588 401.335L43.5588 254.017L38.9656 254.017ZM49.3002 240.632C46.1614 240.632 43.5236 242.392 41.757 244.829C39.9886 247.268 38.9656 250.524 38.9656 254.017L43.5588 254.017C43.5588 251.386 44.3351 249.098 45.4759 247.524C46.6185 245.948 47.9996 245.225 49.3002 245.225L49.3002 240.632ZM66.5244 240.632L49.3002 240.632L49.3002 245.225L66.5244 245.225L66.5244 240.632ZM76.8589 254.017C76.8589 250.524 75.8359 247.268 74.0675 244.829C72.301 242.392 69.6631 240.632 66.5244 240.632L66.5244 245.225C67.8249 245.225 69.206 245.948 70.3487 247.524C71.4894 249.098 72.2658 251.386 72.2658 254.017L76.8589 254.017ZM76.8589 401.335L76.8589 254.017L72.2658 254.017L72.2658 401.335L76.8589 401.335ZM66.5244 414.719C69.6631 414.719 72.301 412.96 74.0675 410.523C75.8359 408.084 76.8589 404.827 76.8589 401.335L72.2658 401.335C72.2658 403.965 71.4894 406.254 70.3487 407.827C69.2061 409.404 67.8249 410.126 66.5244 410.126L66.5244 414.719ZM49.3002 414.719L66.5244 414.719L66.5244 410.126L49.3002 410.126L49.3002 414.719ZM49.3002 208.951C47.9996 208.951 46.6185 208.228 45.4759 206.652C44.3351 205.078 43.5587 202.79 43.5587 200.159L38.9656 200.159C38.9656 203.652 39.9886 206.908 41.757 209.348C43.5236 211.785 46.1614 213.544 49.3002 213.544L49.3002 208.951ZM66.5244 208.951L49.3002 208.951L49.3002 213.544L66.5244 213.544L66.5244 208.951ZM72.2658 200.159C72.2658 202.79 71.4894 205.078 70.3487 206.652C69.206 208.228 67.8249 208.951 66.5244 208.951L66.5244 213.544C69.6631 213.544 72.301 211.785 74.0675 209.348C75.8359 206.908 76.8589 203.652 76.8589 200.159L72.2658 200.159ZM72.2658 52.842L72.2658 200.159L76.8589 200.159L76.8589 52.842L72.2658 52.842ZM66.5244 44.0502C67.8249 44.0502 69.206 44.7729 70.3487 46.3492C71.4894 47.9229 72.2658 50.2111 72.2658 52.842L76.8589 52.842C76.8589 49.3491 75.8359 46.093 74.0675 43.6534C72.301 41.2165 69.6631 39.457 66.5244 39.457L66.5244 44.0502ZM49.3002 44.0502L66.5244 44.0502L66.5244 39.457L49.3002 39.457L49.3002 44.0502ZM43.5587 52.842C43.5587 50.2111 44.3351 47.9229 45.4759 46.3492C46.6185 44.7729 47.9996 44.0502 49.3002 44.0502L49.3002 39.457C46.1614 39.457 43.5236 41.2165 41.757 43.6534C39.9886 46.093 38.9656 49.3491 38.9656 52.842L43.5587 52.842ZM43.5587 200.159L43.5587 52.842L38.9656 52.842L38.9656 200.159L43.5587 200.159Z" fill="#FF89EF" fill-opacity="0.12" mask="url(#path-1-inside-1_420_65)"/>
</g>
</g>
<defs>
<filter id="filter0_bdi_420_65" x="-14.8326" y="-20.0826" width="738.165" height="696.665" filterUnits="userSpaceOnUse" color-interpolation-filters="sRGB">
<feFlood flood-opacity="0" result="BackgroundImageFix"/>
<feGaussianBlur in="BackgroundImageFix" stdDeviation="15.4163"/>
<feComposite in2="SourceAlpha" operator="in" result="effect1_backgroundBlur_420_65"/>
<feColorMatrix in="SourceAlpha" type="matrix" values="0 0 0 0 0 0 0 0 0 0 0 0 0 0 0 0 0 0 127 0" result="hardAlpha"/>
<feOffset dy="6.19288"/>
<feGaussianBlur stdDeviation="8"/>
<feComposite in2="hardAlpha" operator="out"/>
<feColorMatrix type="matrix" values="0 0 0 0 1 0 0 0 0 0.537255 0 0 0 0 0.937255 0 0 0 0.2 0"/>
<feBlend mode="normal" in2="effect1_backgroundBlur_420_65" result="effect2_dropShadow_420_65"/>
<feBlend mode="normal" in="SourceGraphic" in2="effect2_dropShadow_420_65" result="shape"/>
<feColorMatrix in="SourceAlpha" type="matrix" values="0 0 0 0 0 0 0 0 0 0 0 0 0 0 0 0 0 0 127 0" result="hardAlpha"/>
<feOffset dy="4.21944"/>
<feGaussianBlur stdDeviation="3.85024"/>
<feComposite in2="hardAlpha" operator="arithmetic" k2="-1" k3="1"/>
<feColorMatrix type="matrix" values="0 0 0 0 1 0 0 0 0 0.537255 0 0 0 0 0.937255 0 0 0 0.35 0"/>
<feBlend mode="normal" in2="shape" result="effect3_innerShadow_420_65"/>
</filter>
<filter id="filter1_b_420_65" x="5.66546" y="0.415462" width="697.169" height="655.669" filterUnits="userSpaceOnUse" color-interpolation-filters="sRGB">
<feFlood flood-opacity="0" result="BackgroundImageFix"/>
<feGaussianBlur in="BackgroundImageFix" stdDeviation="5.16727"/>
<feComposite in2="SourceAlpha" operator="in" result="effect1_backgroundBlur_420_65"/>
<feBlend mode="normal" in="SourceGraphic" in2="effect1_backgroundBlur_420_65" result="shape"/>
</filter>
</defs>
</svg>
